{"glyphs":{"0":{"ha":833,"x_min":77,"x_max":792,"o":"m 340 -14 q 144 60 211 -14 q 77 277 77 134 q 110 518 77 382 q 200 747 143 654 q 337 884 257 840 q 529 929 417 929 q 792 646 792 929 q 760 408 792 542 q 669 177 728 273 q 526 34 609 81 q 340 -14 444 -14 m 604 653 q 579 749 604 718 q 499 780 553 780 q 376 719 421 780 q 298 507 332 657 q 264 267 264 357 q 292 166 264 195 q 371 136 319 136 q 493 203 447 136 q 572 419 540 271 q 604 653 604 568 m 347 376 l 379 545 l 525 545 l 492 376 l 347 376 z "},"1":{"ha":833,"x_min":30,"x_max":731,"o":"m 30 0 l 58 142 l 321 142 l 439 746 q 314 652 401 690 q 142 614 228 614 l 170 760 q 348 801 265 760 q 481 915 430 843 l 662 915 l 512 142 l 731 142 l 703 0 l 30 0 z "},"2":{"ha":833,"x_min":12,"x_max":803,"o":"m 12 0 l 38 132 q 380 454 143 292 q 556 593 507 542 q 606 696 606 644 q 579 756 606 734 q 498 777 552 777 q 399 744 437 777 q 338 646 360 711 l 148 656 q 286 859 189 789 q 526 929 383 929 q 729 876 656 929 q 803 728 803 822 q 740 557 803 637 q 557 394 677 476 q 349 246 403 290 q 268 157 296 202 l 711 157 l 681 0 l 12 0 z "},"3":{"ha":833,"x_min":40,"x_max":805,"o":"m 343 -16 q 118 45 197 -16 q 40 223 40 105 q 41 250 40 243 l 237 267 l 237 255 q 372 139 237 139 q 465 159 425 139 q 528 215 506 178 q 551 290 551 252 q 507 362 551 337 q 382 388 464 388 l 315 388 l 345 542 l 408 542 q 552 581 500 542 q 605 684 605 621 q 575 752 605 726 q 490 777 545 777 q 328 663 361 777 l 140 676 q 279 864 178 798 q 522 929 380 929 q 730 877 656 929 q 805 730 805 824 q 776 615 805 671 q 690 523 747 560 q 555 471 633 486 l 554 469 q 696 412 647 457 q 745 295 745 367 q 716 178 745 240 q 635 74 687 116 q 509 8 583 31 q 343 -16 435 -16 z "},"4":{"ha":833,"x_min":15,"x_max":786,"o":"m 631 195 l 593 0 l 412 0 l 450 195 l 15 195 l 43 338 l 558 915 l 771 915 l 659 336 l 786 336 l 759 195 l 631 195 m 564 749 q 535 711 558 741 q 498 663 513 682 q 202 336 483 644 l 477 336 l 538 646 q 564 749 558 734 z "},"5":{"ha":833,"x_min":45,"x_max":812,"o":"m 334 -14 q 120 48 195 -14 q 45 228 45 111 l 45 239 l 239 254 q 365 138 243 138 q 465 164 422 138 q 533 242 509 191 q 557 343 557 292 q 525 428 557 397 q 432 459 493 459 q 290 397 352 459 l 104 397 l 238 915 l 812 915 l 785 773 l 384 773 l 325 552 q 510 613 408 613 q 692 551 627 613 q 758 381 758 489 q 703 182 758 275 q 552 37 648 88 q 334 -14 455 -14 z "},"6":{"ha":833,"x_min":86,"x_max":797,"o":"m 361 -14 q 157 67 229 -14 q 86 300 86 149 q 120 534 86 406 q 215 752 155 663 q 358 885 275 841 q 549 929 441 929 q 730 876 671 929 q 797 709 789 822 l 612 684 q 582 756 609 734 q 515 779 555 779 q 380 705 438 779 q 295 490 323 631 q 395 568 336 541 q 523 595 454 595 q 691 536 630 595 q 751 376 751 478 q 723 228 751 303 q 643 99 694 152 q 520 16 591 45 q 361 -14 448 -14 m 556 341 q 528 424 556 393 q 441 454 499 454 q 354 431 393 454 q 292 367 314 407 q 271 270 271 326 q 301 172 271 210 q 384 135 331 135 q 472 162 433 135 q 533 239 511 189 q 556 341 556 288 z "},"7":{"ha":833,"x_min":157,"x_max":847,"o":"m 355 0 l 157 0 q 307 361 191 177 q 640 758 423 545 l 165 758 l 195 915 l 847 915 l 818 764 q 496 353 602 531 q 355 0 390 176 z "},"8":{"ha":833,"x_min":47,"x_max":803,"o":"m 343 -14 q 124 42 201 -14 q 47 201 47 98 q 78 329 47 270 q 165 429 109 389 q 290 479 222 469 l 291 482 q 190 543 224 498 q 155 646 155 587 q 201 788 155 721 q 331 892 247 856 q 524 929 414 929 q 730 879 658 929 q 803 736 803 829 q 740 572 803 644 q 585 484 677 501 l 585 481 q 701 424 659 469 q 743 308 743 378 q 694 146 743 224 q 555 28 646 69 q 343 -14 464 -14 m 603 710 q 498 795 603 795 q 416 776 450 795 q 365 719 382 756 q 347 640 347 682 q 451 548 347 548 q 538 570 503 548 q 588 635 574 593 q 603 710 603 677 m 549 312 q 422 414 549 414 q 328 390 368 414 q 268 320 288 366 q 247 226 247 275 q 371 121 247 121 q 469 145 429 121 q 529 219 509 170 q 549 312 549 269 z "},"9":{"ha":833,"x_min":64,"x_max":789,"o":"m 319 -14 q 132 41 193 -14 q 64 211 71 95 l 248 236 q 351 136 255 136 q 486 208 427 136 q 573 420 545 279 q 474 340 537 370 q 341 311 410 311 q 178 371 238 311 q 118 538 118 431 q 146 690 118 616 q 228 819 174 764 q 356 901 281 873 q 520 929 431 929 q 789 641 789 929 q 754 400 789 533 q 658 175 720 268 q 511 34 596 81 q 319 -14 425 -14 m 599 648 q 569 745 599 709 q 487 780 539 780 q 400 753 439 780 q 338 676 361 726 q 315 573 315 627 q 344 485 315 517 q 424 453 374 453 q 548 507 497 453 q 599 648 599 560 z "}," ":{"ha":833,"x_min":0,"x_max":0,"o":""},"!":{"ha":833,"x_min":246,"x_max":623,"o":"m 480 289 l 324 289 l 424 915 l 623 915 l 480 289 m 246 0 l 281 183 l 477 183 l 441 0 l 246 0 z "},"\"":{"ha":833,"x_min":235,"x_max":790,"o":"m 679 572 l 544 572 l 604 1007 l 790 1007 l 679 572 m 370 572 l 235 572 l 294 1007 l 479 1007 l 370 572 z "},"#":{"ha":833,"x_min":16,"x_max":850,"o":"m 684 566 l 594 347 l 755 347 l 735 245 l 552 245 l 452 0 l 347 0 l 448 245 l 238 245 l 138 0 l 34 0 l 134 245 l 16 245 l 36 347 l 176 347 l 266 566 l 112 566 l 132 667 l 307 667 l 409 915 l 513 915 l 412 667 l 621 667 l 722 915 l 826 915 l 725 667 l 850 667 l 831 566 l 684 566 m 370 566 l 279 347 l 489 347 l 579 566 l 370 566 z "},"$":{"ha":833,"x_min":27,"x_max":824,"o":"m 361 -116 l 288 -116 l 310 1 q 96 70 165 6 q 27 264 27 133 l 207 296 l 207 288 q 238 181 207 214 q 337 141 270 148 l 389 406 q 379 409 387 408 q 369 411 372 411 q 187 494 239 442 q 135 624 135 545 q 157 739 135 682 q 224 838 179 796 q 337 901 270 879 q 490 927 404 924 l 508 1018 l 582 1018 l 564 927 q 757 868 696 922 q 824 690 818 813 l 640 663 l 640 668 q 538 794 640 780 l 492 555 l 506 553 q 667 497 618 525 q 742 429 715 469 q 768 329 768 388 q 743 203 768 265 q 670 98 718 141 q 551 31 622 55 q 385 3 479 7 l 361 -116 m 465 797 q 319 688 339 787 l 317 663 q 326 627 317 641 q 350 602 334 612 q 421 572 365 592 l 465 797 m 588 290 q 578 330 588 315 q 550 357 568 346 q 509 375 532 368 q 460 390 486 382 l 411 141 q 509 164 469 145 q 569 217 549 183 q 588 290 588 252 z "},"%":{"ha":833,"x_min":-30,"x_max":901,"o":"m 89 0 l -30 0 l 781 918 l 901 918 l 89 0 m 306 923 q 461 774 461 923 q 445 660 461 720 q 397 554 429 599 q 319 487 364 509 q 214 464 274 464 q 56 618 56 464 q 72 733 56 670 q 121 839 89 795 q 198 903 153 882 q 306 923 243 923 m 341 762 q 327 816 341 800 q 286 831 313 831 q 229 807 252 831 q 191 727 205 783 q 176 631 176 671 q 233 559 176 559 q 288 584 264 559 q 327 664 312 610 q 341 762 341 718 m 659 451 q 814 301 814 451 q 785 148 814 224 q 701 32 756 72 q 567 -8 646 -8 q 409 146 409 -8 q 426 260 409 198 q 474 366 442 322 q 550 430 505 409 q 659 451 595 451 m 694 290 q 680 344 694 328 q 640 359 666 359 q 582 335 606 359 q 544 255 559 311 q 529 159 529 199 q 587 87 529 87 q 641 112 617 87 q 680 192 665 138 q 694 290 694 246 z "},"&":{"ha":833,"x_min":-13,"x_max":784,"o":"m 252 528 q 234 650 234 587 q 268 789 234 726 q 368 886 301 852 q 526 920 435 920 q 668 880 616 920 q 721 768 721 839 q 691 661 721 709 q 600 570 662 613 q 420 476 538 526 q 526 271 463 361 q 642 491 598 375 l 776 473 q 614 178 715 311 q 719 128 661 128 q 784 140 757 128 l 758 7 q 691 -7 730 -7 q 503 71 581 -7 q 243 -13 378 -13 q 52 38 117 -13 q -13 186 -13 90 q 57 384 -13 294 q 252 528 127 473 m 415 162 q 285 406 329 286 q 191 326 225 376 q 156 217 156 276 q 187 138 156 165 q 274 111 218 111 q 415 162 344 111 m 573 747 q 556 793 573 776 q 503 810 538 810 q 411 772 445 810 q 377 669 377 734 q 391 583 377 624 q 535 664 498 627 q 573 747 573 701 z "},"'":{"ha":833,"x_min":389,"x_max":634,"o":"m 524 572 l 389 572 l 449 1007 l 634 1007 l 524 572 z "},"(":{"ha":833,"x_min":207,"x_max":749,"o":"m 307 -288 q 207 123 207 -87 q 247 428 207 262 q 361 731 286 593 q 559 1006 437 869 l 749 1006 q 549 725 624 863 q 435 429 473 587 q 396 131 396 270 q 498 -288 396 -79 l 307 -288 z "},")":{"ha":833,"x_min":81,"x_max":624,"o":"m 81 -288 q 283 -5 209 -143 q 396 291 358 132 q 435 587 435 450 q 410 799 435 697 q 332 1006 385 901 l 523 1006 q 624 597 624 804 q 586 297 624 461 q 472 -7 547 133 q 271 -288 397 -147 l 81 -288 z "},"*":{"ha":833,"x_min":225,"x_max":760,"o":"m 567 820 l 740 890 l 760 757 l 583 715 l 681 571 l 540 489 l 474 660 l 340 489 l 230 572 l 387 715 l 225 757 l 297 890 l 446 820 l 469 1006 l 615 1006 l 567 820 z "},"+":{"ha":833,"x_min":68,"x_max":765,"o":"m 492 386 l 492 109 l 339 109 l 339 386 l 68 386 l 68 538 l 339 538 l 339 814 l 492 814 l 492 538 l 765 538 l 765 386 l 492 386 z "},",":{"ha":833,"x_min":56,"x_max":471,"o":"m 56 -246 l 258 203 l 471 203 l 173 -246 l 56 -246 z "},"-":{"ha":833,"x_min":203,"x_max":628,"o":"m 203 277 l 235 443 l 628 443 l 596 277 l 203 277 z "},".":{"ha":833,"x_min":248,"x_max":484,"o":"m 248 0 l 288 207 l 484 207 l 444 0 l 248 0 z "},"/":{"ha":833,"x_min":-14,"x_max":896,"o":"m -14 -14 l 741 1006 l 896 1006 l 144 -14 l -14 -14 z "},":":{"ha":833,"x_min":248,"x_max":587,"o":"m 248 0 l 288 207 l 484 207 l 444 0 l 248 0 m 351 529 l 391 736 l 587 736 l 547 529 l 351 529 z "},";":{"ha":833,"x_min":102,"x_max":593,"o":"m 357 529 l 397 736 l 593 736 l 553 529 l 357 529 m 102 -246 l 304 203 l 517 203 l 219 -246 l 102 -246 z "},"<":{"ha":833,"x_min":68,"x_max":765,"o":"m 68 350 l 68 568 l 765 833 l 765 679 l 200 458 l 765 239 l 765 85 l 68 350 z "},"=":{"ha":833,"x_min":68,"x_max":765,"o":"m 68 571 l 68 722 l 765 722 l 765 571 l 68 571 m 68 197 l 68 347 l 765 347 l 765 197 l 68 197 z "},">":{"ha":833,"x_min":68,"x_max":765,"o":"m 68 85 l 68 239 l 633 458 l 68 679 l 68 833 l 765 568 l 765 350 l 68 85 z "},"?":{"ha":833,"x_min":103,"x_max":819,"o":"m 452 275 l 271 275 q 299 347 281 315 q 340 407 316 379 q 394 457 364 434 q 513 537 424 479 q 596 608 570 573 q 622 682 622 642 q 589 749 622 722 q 492 776 556 776 q 370 736 424 776 q 295 630 316 696 l 103 638 q 258 852 148 776 q 519 929 368 929 q 739 873 659 929 q 819 718 819 817 q 770 569 819 633 q 631 450 722 505 q 504 359 545 398 q 452 275 463 321 m 212 0 l 248 183 l 444 183 l 408 0 l 212 0 z "},"@":{"ha":833,"x_min":7,"x_max":851,"o":"m 542 71 q 463 144 463 71 q 466 177 463 161 l 473 210 l 469 210 q 384 110 435 149 q 283 71 334 71 q 199 111 228 71 q 170 228 170 151 q 222 469 170 341 q 352 672 274 597 q 511 747 430 747 q 576 720 553 747 q 599 642 599 692 l 599 629 l 602 629 l 645 732 l 736 732 l 602 388 q 549 239 561 280 q 536 179 536 198 q 544 158 536 162 q 563 153 551 153 q 651 227 607 153 q 727 429 694 301 q 760 650 760 556 q 708 849 760 777 q 562 921 656 921 q 390 861 471 921 q 244 694 308 802 q 141 444 180 587 q 102 186 102 300 q 158 -28 102 49 q 318 -105 214 -105 q 444 -81 380 -105 q 589 2 508 -58 l 625 -64 q 451 -162 530 -133 q 294 -192 373 -192 q 82 -96 157 -192 q 7 169 7 1 q 55 466 7 301 q 180 752 102 631 q 362 940 259 874 q 580 1006 465 1006 q 781 917 710 1006 q 851 669 851 828 q 806 392 851 544 q 690 156 760 241 q 542 71 620 71 m 551 592 q 496 664 551 664 q 395 596 447 664 q 309 420 344 529 q 274 230 274 312 q 316 156 274 156 q 381 185 349 156 q 447 271 414 214 q 516 435 479 328 q 551 592 553 542 z "},"A":{"ha":833,"x_min":-71,"x_max":762,"o":"m 762 0 l 563 0 l 544 224 l 235 224 l 129 0 l -71 0 l 407 915 l 640 915 l 762 0 m 500 791 q 468 718 489 764 q 306 374 448 671 l 531 374 l 508 632 l 500 768 l 500 791 z "},"B":{"ha":833,"x_min":22,"x_max":817,"o":"m 416 0 l 22 0 l 199 915 l 555 915 q 749 870 682 915 q 817 738 817 826 q 758 572 817 641 q 589 481 700 503 q 738 426 688 470 q 789 307 789 381 q 764 194 789 253 q 690 91 740 136 q 570 23 640 46 q 416 0 500 0 m 608 690 q 513 766 608 766 l 371 766 l 329 550 l 472 550 q 605 658 583 550 q 608 690 608 677 m 589 310 q 559 378 589 355 q 469 402 528 402 l 300 402 l 251 149 l 425 149 q 514 169 478 149 q 570 229 551 189 q 589 310 589 268 z "},"C":{"ha":833,"x_min":56,"x_max":834,"o":"m 262 330 q 404 144 262 144 q 599 309 515 144 l 777 274 q 371 -14 629 -14 q 136 67 215 -14 q 56 304 56 147 q 73 462 56 378 q 549 929 165 929 q 834 665 803 929 l 641 621 q 604 732 635 693 q 521 772 572 772 q 385 714 441 772 q 295 541 328 656 q 262 330 262 427 z "},"D":{"ha":833,"x_min":20,"x_max":813,"o":"m 306 0 l 20 0 l 198 915 l 443 915 q 813 603 813 915 q 777 377 813 498 q 674 171 740 256 q 514 43 608 87 q 306 0 420 0 m 609 576 q 559 717 609 673 q 410 760 509 760 l 368 760 l 250 155 l 319 155 q 597 465 536 155 q 609 576 609 528 z "},"E":{"ha":833,"x_min":22,"x_max":856,"o":"m 22 0 l 199 915 l 856 915 l 826 760 l 370 760 l 327 541 l 742 541 l 712 386 l 297 386 l 252 155 l 736 155 l 706 0 l 22 0 z "},"F":{"ha":833,"x_min":42,"x_max":857,"o":"m 390 760 l 339 500 l 760 500 l 730 345 l 309 345 l 242 0 l 42 0 l 220 915 l 857 915 l 827 760 l 390 760 z "},"G":{"ha":833,"x_min":57,"x_max":806,"o":"m 357 -14 q 134 72 210 -14 q 57 312 57 157 q 94 550 57 421 q 192 763 131 680 q 340 887 253 846 q 542 929 428 929 q 728 867 663 929 q 806 675 793 804 l 613 638 q 513 772 602 772 q 381 717 434 772 q 294 543 328 663 q 261 328 261 422 q 398 146 261 146 q 478 161 435 146 q 549 197 521 176 l 580 356 l 394 356 l 422 504 l 791 504 l 718 125 q 357 -14 527 -14 z "},"H":{"ha":833,"x_min":22,"x_max":846,"o":"m 469 0 l 545 389 l 298 389 l 222 0 l 22 0 l 200 915 l 400 915 l 330 555 l 576 555 l 646 915 l 846 915 l 669 0 l 469 0 z "},"I":{"ha":833,"x_min":35,"x_max":834,"o":"m 213 915 l 834 915 l 804 760 l 590 760 l 472 155 l 686 155 l 656 0 l 35 0 l 65 155 l 279 155 l 397 760 l 183 760 l 213 915 z "},"J":{"ha":833,"x_min":50,"x_max":798,"o":"m 309 -14 q 115 55 180 -14 q 50 251 50 124 l 51 273 l 254 302 l 254 289 q 276 181 254 218 q 340 143 298 143 q 427 183 390 143 q 478 298 464 223 l 568 758 l 363 758 l 394 915 l 798 915 l 679 302 q 551 71 650 155 q 309 -14 452 -14 z "},"K":{"ha":833,"x_min":21,"x_max":927,"o":"m 526 0 l 380 378 l 276 281 l 221 0 l 21 0 l 199 915 l 399 915 l 320 509 l 694 915 l 927 915 l 539 522 l 762 0 l 526 0 z "},"L":{"ha":833,"x_min":72,"x_max":720,"o":"m 72 0 l 250 915 l 450 915 l 302 155 l 720 155 l 690 0 l 72 0 z "},"M":{"ha":833,"x_min":-4,"x_max":873,"o":"m 545 0 l 659 589 q 683 691 666 623 q 709 793 700 760 q 614 562 636 608 l 468 244 l 320 244 l 296 562 q 290 793 292 629 q 260 589 271 644 l 145 0 l -4 0 l 174 915 l 409 915 l 435 576 l 436 545 q 430 420 436 515 q 488 576 465 521 l 646 915 l 873 915 l 695 0 l 545 0 z "},"N":{"ha":833,"x_min":20,"x_max":848,"o":"m 436 0 l 309 685 l 300 591 q 281 445 288 480 l 195 0 l 20 0 l 198 915 l 427 915 l 557 212 q 586 459 569 374 l 674 915 l 848 915 l 671 0 l 436 0 z "},"O":{"ha":833,"x_min":50,"x_max":820,"o":"m 343 -14 q 124 65 199 -14 q 50 298 50 143 q 85 538 50 410 q 181 753 120 667 q 329 884 242 840 q 526 929 416 929 q 745 852 670 929 q 820 622 820 776 q 785 381 820 511 q 687 164 749 252 q 538 32 625 77 q 343 -14 452 -14 m 616 605 q 496 772 616 772 q 371 711 423 772 q 286 530 318 651 q 254 316 254 410 q 374 144 254 144 q 498 206 446 144 q 584 389 551 268 q 616 605 616 510 z "},"P":{"ha":833,"x_min":21,"x_max":832,"o":"m 418 323 l 284 323 l 221 0 l 21 0 l 199 915 l 524 915 q 754 859 675 915 q 832 696 832 804 q 802 552 832 624 q 719 429 772 479 q 589 351 665 378 q 418 323 513 323 m 627 660 q 588 736 627 713 q 472 760 549 760 l 369 760 l 314 477 l 422 477 q 623 623 595 477 q 627 660 627 643 z "},"Q":{"ha":833,"x_min":50,"x_max":820,"o":"m 457 0 q 504 -95 467 -64 q 613 -126 540 -126 q 698 -117 643 -126 l 671 -254 q 504 -273 581 -273 q 332 -211 393 -273 q 255 -5 271 -149 q 50 298 50 39 q 85 538 50 410 q 181 752 120 666 q 328 884 241 839 q 526 929 415 929 q 745 852 670 929 q 820 622 820 776 q 775 350 820 493 q 651 118 731 206 q 457 0 570 30 m 616 605 q 496 772 616 772 q 371 711 423 772 q 286 530 318 651 q 254 316 254 410 q 374 144 254 144 q 498 206 446 144 q 584 389 551 268 q 616 605 616 510 z "},"R":{"ha":833,"x_min":22,"x_max":845,"o":"m 536 0 l 407 349 l 290 349 l 222 0 l 22 0 l 199 915 l 534 915 q 768 862 690 915 q 845 707 845 808 q 830 609 845 660 q 783 515 814 557 q 703 440 751 472 q 601 394 656 409 l 761 0 l 536 0 m 639 667 q 598 739 639 718 q 484 760 558 760 l 370 760 l 320 505 l 439 505 q 635 635 610 505 l 639 667 z "},"S":{"ha":833,"x_min":3,"x_max":827,"o":"m 340 -14 q 94 54 181 -14 q 3 249 7 121 l 201 274 q 247 173 205 210 q 375 136 289 136 q 486 152 442 136 q 553 201 530 168 q 576 273 576 234 q 444 380 576 345 q 239 448 293 418 q 155 519 184 477 q 125 620 125 562 q 151 737 125 680 q 231 838 176 793 q 361 905 285 882 q 526 929 437 929 q 752 869 678 929 q 827 683 826 809 l 629 663 q 495 787 623 787 q 402 772 440 787 q 345 727 364 757 q 325 664 325 697 q 341 618 325 637 q 384 587 357 600 q 498 551 412 574 q 668 489 612 520 q 749 415 723 458 q 776 318 776 372 q 723 150 776 229 q 571 29 670 71 q 340 -14 473 -14 z "},"T":{"ha":833,"x_min":118,"x_max":899,"o":"m 593 760 l 446 0 l 245 0 l 393 760 l 118 760 l 148 915 l 899 915 l 869 760 l 593 760 z "},"U":{"ha":833,"x_min":71,"x_max":852,"o":"m 332 -14 q 134 44 197 -14 q 71 224 71 102 q 86 358 71 283 l 194 915 l 394 915 l 286 360 q 273 249 273 296 q 296 167 273 191 q 368 143 319 143 q 480 194 438 143 q 546 367 522 245 l 652 915 l 852 915 l 747 368 q 607 80 708 174 q 332 -14 505 -14 z "},"V":{"ha":833,"x_min":109,"x_max":939,"o":"m 448 0 l 245 0 l 109 915 l 317 915 l 374 389 q 389 209 385 290 q 473 389 438 321 l 732 915 l 939 915 l 448 0 z "},"W":{"ha":833,"x_min":72,"x_max":939,"o":"m 619 0 l 451 0 l 441 212 q 431 431 437 252 q 240 0 429 427 l 72 0 l 106 915 l 282 915 l 251 444 q 227 263 248 387 q 296 429 248 323 l 408 659 l 541 659 q 562 441 554 519 q 568 294 570 363 l 568 263 l 573 281 q 615 444 600 393 l 764 915 l 939 915 l 619 0 z "},"X":{"ha":833,"x_min":-71,"x_max":912,"o":"m 552 0 l 412 334 l 140 0 l -71 0 l 334 482 l 134 915 l 346 915 l 468 623 l 702 915 l 912 915 l 538 482 l 762 0 l 552 0 z "},"Y":{"ha":833,"x_min":109,"x_max":937,"o":"m 445 0 l 245 0 l 319 377 l 109 915 l 318 915 l 447 531 l 728 915 l 937 915 l 518 377 l 445 0 z "},"Z":{"ha":833,"x_min":-12,"x_max":850,"o":"m 701 0 l -12 0 l 16 142 l 590 758 l 186 758 l 217 915 l 850 915 l 823 776 l 248 157 l 731 157 l 701 0 z "},"[":{"ha":833,"x_min":125,"x_max":785,"o":"m 125 -288 l 377 1006 l 785 1006 l 761 878 l 533 878 l 332 -159 l 559 -159 l 534 -288 l 125 -288 z "},"\\":{"ha":833,"x_min":186,"x_max":699,"o":"m 542 -14 l 186 1006 l 340 1006 l 699 -14 l 542 -14 z "},"]":{"ha":833,"x_min":45,"x_max":705,"o":"m 45 -288 l 71 -159 l 298 -159 l 500 878 l 272 878 l 296 1006 l 705 1006 l 453 -288 l 45 -288 z "},"^":{"ha":833,"x_min":27,"x_max":777,"o":"m 622 349 l 500 859 l 181 349 l 27 349 l 410 956 l 629 956 l 777 349 l 622 349 z "},"_":{"ha":833,"x_min":-104,"x_max":749,"o":"m -104 -149 l -91 -84 l 749 -84 l 736 -149 l -104 -149 z "},"`":{"ha":833,"x_min":351,"x_max":670,"o":"m 551 803 l 351 960 l 356 989 l 531 989 l 670 824 l 666 803 l 551 803 z "},"a":{"ha":833,"x_min":35,"x_max":749,"o":"m 224 -14 q 84 28 133 -14 q 35 151 35 71 q 41 208 35 177 q 370 442 87 439 l 522 445 l 528 482 q 535 539 535 515 q 456 624 535 624 q 379 600 408 624 q 334 520 351 575 l 137 530 q 488 747 214 747 q 666 698 605 747 q 726 553 726 649 q 719 483 726 522 l 667 217 q 660 159 660 180 q 670 121 660 134 q 707 109 681 109 q 749 113 728 109 l 730 9 q 698 2 712 5 q 670 -3 684 -1 q 640 -7 656 -5 q 604 -8 625 -8 q 511 20 540 -8 q 483 103 483 48 l 484 131 l 480 131 q 360 20 422 54 q 224 -14 298 -14 m 500 340 l 410 338 q 304 319 338 337 q 255 263 271 302 q 239 186 239 225 q 304 119 239 119 q 425 173 370 119 q 494 302 479 226 l 500 340 z "},"b":{"ha":833,"x_min":24,"x_max":783,"o":"m 24 0 l 39 65 l 60 160 l 224 1006 l 415 1006 l 363 739 l 338 618 l 340 618 q 441 714 379 680 q 580 748 504 748 q 731 685 680 748 q 783 505 783 622 q 756 315 783 414 q 680 140 729 215 q 566 26 631 66 q 426 -14 501 -14 q 308 21 355 -14 q 244 119 261 55 l 241 119 q 224 48 235 87 q 208 0 213 10 l 24 0 m 278 271 q 306 158 278 199 q 384 117 334 117 q 486 165 441 117 q 555 307 530 214 q 581 479 581 399 q 480 618 581 618 q 362 553 413 618 q 289 371 312 488 q 278 271 278 315 z "},"c":{"ha":833,"x_min":63,"x_max":773,"o":"m 349 -14 q 137 56 211 -14 q 63 256 63 126 q 94 443 63 347 q 183 607 125 538 q 322 712 241 676 q 500 747 403 747 q 701 683 629 747 q 773 506 773 618 l 773 503 l 579 493 l 580 506 q 555 585 580 553 q 471 616 530 616 q 361 571 406 616 q 290 432 317 525 q 263 261 263 339 q 376 117 263 117 q 474 151 430 117 q 539 253 517 185 l 728 244 q 650 111 705 170 q 517 19 595 52 q 349 -14 439 -14 z "},"d":{"ha":833,"x_min":52,"x_max":857,"o":"m 483 0 l 483 5 q 488 60 483 20 q 496 119 492 100 l 493 119 q 388 19 447 52 q 253 -14 330 -14 q 104 52 156 -14 q 52 237 52 117 q 80 427 52 325 q 155 600 108 528 q 266 708 202 671 q 408 746 330 746 q 529 712 481 746 q 591 616 576 678 l 593 616 l 614 737 l 667 1006 l 857 1006 l 693 160 q 667 0 685 120 l 483 0 m 557 470 q 528 579 557 542 q 451 616 500 616 q 347 567 391 616 q 278 423 303 518 q 252 256 252 328 q 352 117 252 117 q 433 147 394 117 q 501 233 472 177 q 546 370 530 290 q 557 470 557 427 z "},"e":{"ha":833,"x_min":57,"x_max":773,"o":"m 351 -14 q 134 57 210 -14 q 57 261 57 128 q 86 440 57 347 q 174 604 115 533 q 318 711 234 675 q 501 747 402 747 q 704 674 635 747 q 773 465 773 601 q 760 336 773 405 l 759 330 l 261 330 q 254 263 254 296 q 289 152 254 191 q 385 114 323 114 q 480 136 437 114 q 543 201 522 158 l 720 186 q 567 38 663 90 q 351 -14 471 -14 m 475 627 q 355 580 406 627 q 286 450 304 533 l 597 450 l 600 488 q 566 592 600 557 q 475 627 531 627 z "},"f":{"ha":833,"x_min":125,"x_max":886,"o":"m 489 605 l 372 0 l 182 0 l 299 605 l 125 605 l 151 734 l 324 734 l 335 790 q 444 967 358 907 q 667 1027 529 1027 q 886 1008 776 1027 l 861 883 q 675 896 762 896 q 571 868 608 896 q 522 772 534 840 l 514 734 l 814 734 l 789 605 l 489 605 z "},"g":{"ha":833,"x_min":24,"x_max":827,"o":"m 290 -294 q 95 -242 163 -294 q 24 -97 26 -191 l 220 -75 q 248 -144 221 -119 q 319 -170 275 -170 q 496 25 457 -170 l 520 143 l 519 143 q 407 40 472 72 q 270 8 342 8 q 123 68 174 8 q 72 243 72 129 q 99 431 72 331 q 173 601 125 530 q 284 709 220 672 q 428 745 349 745 q 548 711 500 745 q 610 616 595 677 l 614 616 q 646 734 636 710 l 827 734 l 811 665 l 790 564 l 684 22 q 552 -214 654 -133 q 290 -294 450 -294 m 576 469 q 548 575 576 536 q 470 614 520 614 q 367 567 411 614 q 298 432 323 519 q 273 276 273 344 q 376 140 273 140 q 481 188 435 140 q 551 318 527 235 q 576 469 576 401 z "},"h":{"ha":833,"x_min":26,"x_max":779,"o":"m 328 587 q 448 709 382 671 q 595 747 514 747 q 779 566 779 747 q 768 465 779 519 l 677 0 l 488 0 l 570 421 q 580 508 580 473 q 559 579 580 555 q 488 604 539 604 q 366 546 418 604 q 293 393 313 487 l 216 0 l 26 0 l 221 1006 l 412 1006 l 359 732 q 331 612 350 684 l 325 587 l 328 587 z "},"i":{"ha":833,"x_min":9,"x_max":732,"o":"m 492 129 l 732 129 l 707 0 l 9 0 l 34 129 l 302 129 l 394 605 l 197 605 l 222 734 l 610 734 l 492 129 m 445 866 l 472 1006 l 663 1006 l 635 866 l 445 866 z "},"j":{"ha":833,"x_min":-42,"x_max":710,"o":"m 147 -288 q 40 -279 94 -288 q -42 -259 -13 -271 l -14 -117 q 159 -140 74 -140 q 273 -103 235 -140 q 325 7 311 -66 l 441 605 l 201 605 l 226 734 l 657 734 l 513 -9 q 445 -159 496 -96 q 316 -255 393 -222 q 147 -288 239 -288 m 492 866 l 519 1006 l 710 1006 l 683 866 l 492 866 z "},"k":{"ha":833,"x_min":46,"x_max":846,"o":"m 515 0 l 383 332 l 290 275 l 237 0 l 46 0 l 241 1006 l 432 1006 l 320 430 l 641 734 l 846 734 l 532 448 l 723 0 l 515 0 z "},"l":{"ha":833,"x_min":9,"x_max":732,"o":"m 492 129 l 732 129 l 707 0 l 9 0 l 34 129 l 302 129 l 448 878 l 251 878 l 275 1006 l 663 1006 l 492 129 z "},"m":{"ha":833,"x_min":-20,"x_max":821,"o":"m 269 0 l 355 446 q 371 566 371 531 q 361 612 371 599 q 331 626 351 626 q 264 563 297 626 q 212 395 232 499 l 135 0 l -20 0 l 92 577 q 101 626 96 600 q 109 674 105 651 q 115 713 113 696 q 118 734 118 729 l 260 734 l 247 648 l 241 615 l 242 615 q 322 718 281 688 q 414 747 363 747 q 497 715 474 747 q 520 618 520 683 l 520 614 l 522 614 q 607 717 563 686 q 707 747 650 747 q 794 716 767 747 q 821 617 821 685 q 806 489 821 566 l 711 0 l 557 0 l 644 446 q 659 566 659 531 q 649 612 659 599 q 619 626 640 626 q 554 571 585 626 q 503 408 524 517 l 423 0 l 269 0 z "},"n":{"ha":833,"x_min":26,"x_max":779,"o":"m 488 0 l 569 420 q 579 506 579 470 q 557 581 579 557 q 489 605 536 605 q 367 547 420 605 q 293 393 313 489 l 216 0 l 26 0 l 136 570 q 163 734 159 682 l 345 734 q 338 674 345 723 q 326 588 332 625 l 328 588 q 595 748 432 748 q 779 563 779 748 q 768 466 779 519 l 677 0 l 488 0 z "},"o":{"ha":833,"x_min":52,"x_max":784,"o":"m 340 -14 q 125 57 199 -14 q 52 260 52 127 q 105 504 52 385 q 258 685 159 623 q 492 747 356 747 q 784 488 784 747 q 771 368 784 436 q 624 86 736 185 q 340 -14 512 -14 m 585 485 q 557 585 585 553 q 469 616 530 616 q 351 572 397 616 q 277 431 304 528 q 250 256 250 334 q 363 117 250 117 q 484 162 437 117 q 558 308 530 208 q 585 485 585 408 z "},"p":{"ha":833,"x_min":-27,"x_max":781,"o":"m 351 734 l 351 728 q 338 614 351 684 l 340 614 q 446 713 384 678 q 581 748 507 748 q 729 682 677 748 q 781 496 781 616 q 735 247 781 373 q 608 54 688 121 q 425 -14 528 -14 q 306 19 353 -14 q 242 116 259 52 l 241 116 l 219 -5 l 163 -288 l -27 -288 l 140 574 q 166 734 149 614 l 351 734 m 277 264 q 304 155 277 193 q 382 116 332 116 q 486 165 442 116 q 555 306 530 214 q 581 477 581 399 q 481 618 581 618 q 378 568 427 618 q 303 429 330 518 q 277 264 277 340 z "},"q":{"ha":833,"x_min":52,"x_max":810,"o":"m 810 734 l 794 669 l 773 574 l 606 -288 l 415 -288 l 471 -5 l 495 116 l 494 116 q 392 20 454 54 q 254 -14 330 -14 q 102 50 153 -14 q 52 229 52 113 q 77 417 52 317 q 152 592 103 516 q 267 708 201 667 q 408 748 332 748 q 524 714 479 748 q 589 614 570 680 l 592 614 q 608 679 595 633 q 625 734 621 725 l 810 734 m 555 464 q 527 577 555 536 q 450 618 498 618 q 348 569 392 618 q 278 425 303 519 q 252 255 252 330 q 353 116 252 116 q 470 180 420 116 q 545 363 521 245 q 555 464 555 420 z "},"r":{"ha":833,"x_min":98,"x_max":805,"o":"m 774 575 q 633 588 701 588 q 450 509 528 588 q 346 297 372 429 l 288 0 l 98 0 l 191 475 q 208 671 208 568 l 205 734 l 389 734 q 393 648 393 681 q 391 579 393 610 l 393 579 q 511 709 445 671 q 667 747 576 747 q 805 736 739 747 l 774 575 z "},"s":{"ha":833,"x_min":46,"x_max":768,"o":"m 347 -14 q 123 35 195 -14 q 46 183 52 83 l 219 208 q 253 134 222 156 q 371 113 284 113 q 492 133 452 113 q 541 197 532 153 l 542 212 q 515 257 542 239 q 429 288 489 275 q 243 338 294 315 q 165 395 192 360 q 138 480 138 429 q 181 620 138 557 q 305 715 224 682 q 496 748 386 748 q 697 697 627 748 q 768 550 766 646 l 595 532 q 567 600 595 579 q 471 621 539 621 q 366 604 404 621 q 321 546 329 587 l 319 532 q 343 491 319 507 q 419 465 368 475 l 492 447 q 631 404 587 427 q 700 346 676 380 q 724 262 724 312 q 677 118 724 181 q 546 20 631 54 q 347 -14 460 -14 z "},"t":{"ha":833,"x_min":155,"x_max":743,"o":"m 269 605 l 155 605 l 180 734 l 303 734 l 400 925 l 519 925 l 482 734 l 743 734 l 718 605 l 457 605 l 387 245 q 380 189 380 205 q 404 137 380 153 q 481 121 429 121 q 658 139 565 121 l 633 13 q 582 5 607 9 q 529 -2 556 1 q 473 -7 503 -5 q 409 -9 444 -9 q 242 30 299 -9 q 185 152 185 68 q 189 195 185 172 q 269 605 192 218 z "},"u":{"ha":833,"x_min":62,"x_max":801,"o":"m 353 734 l 273 322 q 265 244 265 279 q 353 129 265 129 q 466 190 414 129 q 534 340 517 250 l 610 734 l 801 734 l 690 164 q 673 67 681 119 q 664 0 666 16 l 482 0 q 503 146 488 62 l 499 146 q 245 -14 395 -14 q 62 172 62 -14 q 73 268 62 217 l 163 734 l 353 734 z "},"v":{"ha":833,"x_min":92,"x_max":880,"o":"m 454 0 l 226 0 l 92 734 l 294 734 l 353 312 q 369 142 359 274 q 452 310 409 231 l 681 734 l 880 734 l 454 0 z "},"w":{"ha":833,"x_min":60,"x_max":897,"o":"m 626 0 l 460 0 l 426 319 l 420 389 q 409 361 417 378 q 225 0 401 344 l 60 0 l 79 734 l 233 734 l 210 322 q 193 169 203 221 l 216 219 l 388 554 l 519 554 l 553 245 q 558 169 558 198 q 602 322 569 222 l 744 734 l 897 734 l 626 0 z "},"x":{"ha":833,"x_min":-38,"x_max":856,"o":"m 522 0 l 395 266 l 165 0 l -38 0 l 311 379 l 117 734 l 323 734 l 440 494 l 649 734 l 856 734 l 525 381 l 728 0 l 522 0 z "},"y":{"ha":833,"x_min":-28,"x_max":878,"o":"m 93 -288 q -28 -279 20 -288 l -2 -144 l 32 -147 l 66 -149 q 163 -120 123 -149 q 241 -25 203 -91 l 260 7 l 97 734 l 298 734 l 358 376 q 361 358 359 370 q 363 335 362 347 q 374 238 365 324 q 382 150 382 153 l 394 175 l 487 374 l 679 734 l 878 734 l 425 -39 q 268 -234 342 -179 q 93 -288 193 -288 z "},"z":{"ha":833,"x_min":22,"x_max":768,"o":"m 22 0 l 49 135 l 525 596 l 166 596 l 193 734 l 768 734 l 742 597 l 269 139 l 686 139 l 659 0 l 22 0 z "},"{":{"ha":833,"x_min":117,"x_max":833,"o":"m 359 -288 q 237 -249 279 -288 q 194 -138 194 -209 q 199 -85 194 -115 l 242 137 q 247 184 247 161 q 217 263 247 236 q 117 292 186 290 l 143 425 q 269 466 224 428 q 329 581 314 504 l 372 804 q 454 955 391 903 q 611 1006 517 1006 l 833 1006 l 808 878 l 681 878 q 585 842 619 878 q 536 736 550 807 l 496 532 q 435 420 484 466 q 323 361 387 374 l 323 358 q 405 309 376 345 q 433 222 433 273 q 430 187 433 203 l 390 -17 q 385 -68 385 -45 q 407 -136 385 -114 q 479 -159 430 -159 l 607 -159 l 581 -288 l 359 -288 z "},"|":{"ha":833,"x_min":328,"x_max":505,"o":"m 328 -309 l 328 1006 l 505 1006 l 505 -309 l 328 -309 z "},"}":{"ha":833,"x_min":-3,"x_max":713,"o":"m -3 -288 l 23 -159 l 151 -159 q 247 -124 212 -159 q 294 -17 281 -89 l 334 187 q 394 297 347 251 q 508 358 441 343 l 508 361 q 427 410 456 373 q 397 496 397 446 l 401 532 l 441 736 q 446 788 446 759 q 352 878 446 878 l 224 878 l 249 1006 l 471 1006 q 594 969 551 1006 q 637 859 637 932 q 631 804 637 833 l 589 581 q 583 533 583 554 q 713 425 583 427 l 688 292 q 561 252 606 291 q 502 137 516 212 l 459 -85 q 377 -233 441 -178 q 219 -288 313 -288 l -3 -288 z "},"~":{"ha":833,"x_min":65,"x_max":804,"o":"m 584 350 q 487 364 533 350 q 393 396 441 378 q 250 428 307 428 q 159 414 201 428 q 65 368 116 399 l 93 513 q 288 570 180 570 q 446 538 359 570 q 565 498 534 505 q 625 490 597 490 q 804 553 715 490 l 776 404 q 685 362 727 374 q 584 350 642 350 z "},"Ä":{"ha":833,"x_min":-71,"x_max":786,"o":"m 762 0 l 563 0 l 544 224 l 235 224 l 129 0 l -71 0 l 407 915 l 640 915 l 762 0 m 500 791 q 468 718 489 764 q 306 374 448 671 l 531 374 l 508 632 l 500 768 l 500 791 m 603 980 l 632 1128 l 786 1128 l 757 980 l 603 980 m 315 980 l 345 1128 l 496 1128 l 467 980 l 315 980 z "},"Å":{"ha":833,"x_min":-71,"x_max":762,"o":"m 762 0 l 563 0 l 544 224 l 235 224 l 129 0 l -71 0 l 407 915 l 640 915 l 762 0 m 500 791 q 468 718 489 764 q 306 374 448 671 l 531 374 l 508 632 l 500 768 l 500 791 m 515 867 q 413 897 450 867 q 375 977 375 926 q 399 1056 375 1017 q 468 1116 422 1095 q 568 1138 513 1138 q 671 1109 633 1138 q 709 1029 709 1081 q 684 948 709 986 q 614 888 659 909 q 515 867 570 867 m 612 1010 q 595 1041 612 1030 q 551 1051 578 1051 q 491 1033 512 1051 q 471 995 471 1015 q 487 966 471 977 q 532 955 503 955 q 590 971 568 955 q 612 1010 612 987 z "},"Ç":{"ha":833,"x_min":56,"x_max":834,"o":"m 262 330 q 404 144 262 144 q 599 309 515 144 l 777 274 q 371 -14 629 -14 q 136 67 215 -14 q 56 304 56 147 q 73 462 56 378 q 549 929 165 929 q 834 665 803 929 l 641 621 q 604 732 635 693 q 521 772 572 772 q 385 714 441 772 q 295 541 328 656 q 262 330 262 427 m 239 -302 q 172 -298 208 -302 l 187 -218 q 243 -222 209 -222 q 347 -166 347 -222 q 331 -139 347 -149 q 271 -129 316 -129 q 236 -130 245 -129 l 308 0 l 405 0 l 364 -69 q 472 -150 472 -76 q 447 -227 472 -191 q 368 -282 422 -263 q 239 -302 315 -302 z "},"É":{"ha":833,"x_min":22,"x_max":856,"o":"m 22 0 l 199 915 l 856 915 l 826 760 l 370 760 l 327 541 l 742 541 l 712 386 l 297 386 l 252 155 l 736 155 l 706 0 l 22 0 m 427 968 l 431 989 l 634 1154 l 809 1154 l 804 1125 l 543 968 l 427 968 z "},"Ñ":{"ha":833,"x_min":20,"x_max":848,"o":"m 436 0 l 309 685 l 300 591 q 281 445 288 480 l 195 0 l 20 0 l 198 915 l 427 915 l 557 212 q 586 459 569 374 l 674 915 l 848 915 l 671 0 l 436 0 m 646 964 q 588 976 616 964 q 534 1003 560 988 q 486 1029 509 1017 q 442 1041 463 1041 q 392 1023 410 1041 q 361 964 374 1006 l 268 964 q 341 1112 295 1068 q 458 1156 388 1156 q 517 1144 488 1156 q 571 1118 545 1133 q 618 1092 596 1103 q 661 1080 641 1080 q 712 1099 694 1080 q 743 1156 729 1118 l 834 1156 q 762 1009 809 1055 q 646 964 714 964 z "},"Ö":{"ha":833,"x_min":50,"x_max":820,"o":"m 343 -14 q 124 65 199 -14 q 50 298 50 143 q 85 538 50 410 q 181 753 120 667 q 329 884 242 840 q 526 929 416 929 q 745 852 670 929 q 820 622 820 776 q 785 381 820 511 q 687 164 749 252 q 538 32 625 77 q 343 -14 452 -14 m 616 605 q 496 772 616 772 q 371 711 423 772 q 286 530 318 651 q 254 316 254 410 q 374 144 254 144 q 498 206 446 144 q 584 389 551 268 q 616 605 616 510 m 605 980 l 634 1128 l 788 1128 l 759 980 l 605 980 m 317 980 l 347 1128 l 498 1128 l 469 980 l 317 980 z "},"Ü":{"ha":833,"x_min":71,"x_max":852,"o":"m 332 -14 q 134 44 197 -14 q 71 224 71 102 q 86 358 71 283 l 194 915 l 394 915 l 286 360 q 273 249 273 296 q 296 167 273 191 q 368 143 319 143 q 480 194 438 143 q 546 367 522 245 l 652 915 l 852 915 l 747 368 q 607 80 708 174 q 332 -14 505 -14 m 603 980 l 632 1128 l 786 1128 l 757 980 l 603 980 m 315 980 l 345 1128 l 496 1128 l 467 980 l 315 980 z "},"á":{"ha":833,"x_min":35,"x_max":768,"o":"m 224 -14 q 84 28 133 -14 q 35 151 35 71 q 41 208 35 177 q 370 442 87 439 l 522 445 l 528 482 q 535 539 535 515 q 456 624 535 624 q 379 600 408 624 q 334 520 351 575 l 137 530 q 488 747 214 747 q 666 698 605 747 q 726 553 726 649 q 719 483 726 522 l 667 217 q 660 159 660 180 q 670 121 660 134 q 707 109 681 109 q 749 113 728 109 l 730 9 q 698 2 712 5 q 670 -3 684 -1 q 640 -7 656 -5 q 604 -8 625 -8 q 511 20 540 -8 q 483 103 483 48 l 484 131 l 480 131 q 360 20 422 54 q 224 -14 298 -14 m 500 340 l 410 338 q 304 319 338 337 q 255 263 271 302 q 239 186 239 225 q 304 119 239 119 q 425 173 370 119 q 494 302 479 226 l 500 340 m 386 803 l 390 824 l 593 989 l 768 989 l 762 960 l 501 803 l 386 803 z "},"à":{"ha":833,"x_min":35,"x_max":749,"o":"m 224 -14 q 84 28 133 -14 q 35 151 35 71 q 41 208 35 177 q 370 442 87 439 l 522 445 l 528 482 q 535 539 535 515 q 456 624 535 624 q 379 600 408 624 q 334 520 351 575 l 137 530 q 488 747 214 747 q 666 698 605 747 q 726 553 726 649 q 719 483 726 522 l 667 217 q 660 159 660 180 q 670 121 660 134 q 707 109 681 109 q 749 113 728 109 l 730 9 q 698 2 712 5 q 670 -3 684 -1 q 640 -7 656 -5 q 604 -8 625 -8 q 511 20 540 -8 q 483 103 483 48 l 484 131 l 480 131 q 360 20 422 54 q 224 -14 298 -14 m 500 340 l 410 338 q 304 319 338 337 q 255 263 271 302 q 239 186 239 225 q 304 119 239 119 q 425 173 370 119 q 494 302 479 226 l 500 340 m 473 803 l 273 960 l 279 989 l 454 989 l 593 824 l 589 803 l 473 803 z "},"â":{"ha":833,"x_min":35,"x_max":749,"o":"m 224 -14 q 84 28 133 -14 q 35 151 35 71 q 41 208 35 177 q 370 442 87 439 l 522 445 l 528 482 q 535 539 535 515 q 456 624 535 624 q 379 600 408 624 q 334 520 351 575 l 137 530 q 488 747 214 747 q 666 698 605 747 q 726 553 726 649 q 719 483 726 522 l 667 217 q 660 159 660 180 q 670 121 660 134 q 707 109 681 109 q 749 113 728 109 l 730 9 q 698 2 712 5 q 670 -3 684 -1 q 640 -7 656 -5 q 604 -8 625 -8 q 511 20 540 -8 q 483 103 483 48 l 484 131 l 480 131 q 360 20 422 54 q 224 -14 298 -14 m 500 340 l 410 338 q 304 319 338 337 q 255 263 271 302 q 239 186 239 225 q 304 119 239 119 q 425 173 370 119 q 494 302 479 226 l 500 340 m 743 821 l 739 802 l 631 802 l 511 893 l 509 893 l 348 802 l 239 802 l 243 821 l 451 991 l 606 991 l 743 821 z "},"ä":{"ha":833,"x_min":35,"x_max":749,"o":"m 224 -14 q 84 28 133 -14 q 35 151 35 71 q 41 208 35 177 q 370 442 87 439 l 522 445 l 528 482 q 535 539 535 515 q 456 624 535 624 q 379 600 408 624 q 334 520 351 575 l 137 530 q 488 747 214 747 q 666 698 605 747 q 726 553 726 649 q 719 483 726 522 l 667 217 q 660 159 660 180 q 670 121 660 134 q 707 109 681 109 q 749 113 728 109 l 730 9 q 698 2 712 5 q 670 -3 684 -1 q 640 -7 656 -5 q 604 -8 625 -8 q 511 20 540 -8 q 483 103 483 48 l 484 131 l 480 131 q 360 20 422 54 q 224 -14 298 -14 m 500 340 l 410 338 q 304 319 338 337 q 255 263 271 302 q 239 186 239 225 q 304 119 239 119 q 425 173 370 119 q 494 302 479 226 l 500 340 m 562 827 l 591 975 l 745 975 l 716 827 l 562 827 m 275 827 l 304 975 l 456 975 l 427 827 l 275 827 z "},"ã":{"ha":833,"x_min":35,"x_max":798,"o":"m 224 -14 q 84 28 133 -14 q 35 151 35 71 q 41 208 35 177 q 370 442 87 439 l 522 445 l 528 482 q 535 539 535 515 q 456 624 535 624 q 379 600 408 624 q 334 520 351 575 l 137 530 q 488 747 214 747 q 666 698 605 747 q 726 553 726 649 q 719 483 726 522 l 667 217 q 660 159 660 180 q 670 121 660 134 q 707 109 681 109 q 749 113 728 109 l 730 9 q 698 2 712 5 q 670 -3 684 -1 q 640 -7 656 -5 q 604 -8 625 -8 q 511 20 540 -8 q 483 103 483 48 l 484 131 l 480 131 q 360 20 422 54 q 224 -14 298 -14 m 500 340 l 410 338 q 304 319 338 337 q 255 263 271 302 q 239 186 239 225 q 304 119 239 119 q 425 173 370 119 q 494 302 479 226 l 500 340 m 609 802 q 551 814 579 802 q 498 841 524 826 q 449 867 472 855 q 406 879 426 879 q 355 861 373 879 q 324 802 337 844 l 231 802 q 305 950 258 906 q 421 994 351 994 q 480 982 452 994 q 534 956 509 970 q 582 929 559 941 q 624 918 604 918 q 675 937 658 918 q 706 994 692 956 l 798 994 q 725 847 772 892 q 609 802 677 802 z "},"å":{"ha":833,"x_min":35,"x_max":749,"o":"m 224 -14 q 84 28 133 -14 q 35 151 35 71 q 41 208 35 177 q 370 442 87 439 l 522 445 l 528 482 q 535 539 535 515 q 456 624 535 624 q 379 600 408 624 q 334 520 351 575 l 137 530 q 488 747 214 747 q 666 698 605 747 q 726 553 726 649 q 719 483 726 522 l 667 217 q 660 159 660 180 q 670 121 660 134 q 707 109 681 109 q 749 113 728 109 l 730 9 q 698 2 712 5 q 670 -3 684 -1 q 640 -7 656 -5 q 604 -8 625 -8 q 511 20 540 -8 q 483 103 483 48 l 484 131 l 480 131 q 360 20 422 54 q 224 -14 298 -14 m 500 340 l 410 338 q 304 319 338 337 q 255 263 271 302 q 239 186 239 225 q 304 119 239 119 q 425 173 370 119 q 494 302 479 226 l 500 340 m 491 779 q 388 808 426 779 q 351 888 351 838 q 374 967 351 928 q 443 1027 398 1006 q 544 1049 488 1049 q 646 1021 608 1049 q 684 940 684 992 q 659 859 684 897 q 590 800 634 821 q 491 779 546 779 m 588 921 q 571 952 588 941 q 527 962 554 962 q 467 944 488 962 q 446 906 446 926 q 463 877 446 888 q 508 866 479 866 q 566 882 544 866 q 588 921 588 899 z "},"ç":{"ha":833,"x_min":63,"x_max":773,"o":"m 349 -14 q 137 56 211 -14 q 63 256 63 126 q 94 443 63 347 q 183 607 125 538 q 322 712 241 676 q 500 747 403 747 q 701 683 629 747 q 773 506 773 618 l 773 503 l 579 493 l 580 506 q 555 585 580 553 q 471 616 530 616 q 361 571 406 616 q 290 432 317 525 q 263 261 263 339 q 376 117 263 117 q 474 151 430 117 q 539 253 517 185 l 728 244 q 650 111 705 170 q 517 19 595 52 q 349 -14 439 -14 m 228 -302 q 160 -298 197 -302 l 176 -218 q 231 -222 197 -222 q 335 -166 335 -222 q 320 -139 335 -149 q 260 -129 304 -129 q 224 -130 234 -129 l 296 0 l 393 0 l 353 -69 q 460 -150 460 -76 q 435 -227 460 -191 q 357 -282 410 -263 q 228 -302 303 -302 z "},"é":{"ha":833,"x_min":57,"x_max":791,"o":"m 351 -14 q 134 57 210 -14 q 57 261 57 128 q 86 440 57 347 q 174 604 115 533 q 318 711 234 675 q 501 747 402 747 q 704 674 635 747 q 773 465 773 601 q 760 336 773 405 l 759 330 l 261 330 q 254 263 254 296 q 289 152 254 191 q 385 114 323 114 q 480 136 437 114 q 543 201 522 158 l 720 186 q 567 38 663 90 q 351 -14 471 -14 m 475 627 q 355 580 406 627 q 286 450 304 533 l 597 450 l 600 488 q 566 592 600 557 q 475 627 531 627 m 409 803 l 413 824 l 616 989 l 791 989 l 785 960 l 524 803 l 409 803 z "},"è":{"ha":833,"x_min":57,"x_max":773,"o":"m 351 -14 q 134 57 210 -14 q 57 261 57 128 q 86 440 57 347 q 174 604 115 533 q 318 711 234 675 q 501 747 402 747 q 704 674 635 747 q 773 465 773 601 q 760 336 773 405 l 759 330 l 261 330 q 254 263 254 296 q 289 152 254 191 q 385 114 323 114 q 480 136 437 114 q 543 201 522 158 l 720 186 q 567 38 663 90 q 351 -14 471 -14 m 475 627 q 355 580 406 627 q 286 450 304 533 l 597 450 l 600 488 q 566 592 600 557 q 475 627 531 627 m 497 803 l 297 960 l 302 989 l 477 989 l 616 824 l 612 803 l 497 803 z "},"ê":{"ha":833,"x_min":57,"x_max":773,"o":"m 351 -14 q 134 57 210 -14 q 57 261 57 128 q 86 440 57 347 q 174 604 115 533 q 318 711 234 675 q 501 747 402 747 q 704 674 635 747 q 773 465 773 601 q 760 336 773 405 l 759 330 l 261 330 q 254 263 254 296 q 289 152 254 191 q 385 114 323 114 q 480 136 437 114 q 543 201 522 158 l 720 186 q 567 38 663 90 q 351 -14 471 -14 m 475 627 q 355 580 406 627 q 286 450 304 533 l 597 450 l 600 488 q 566 592 600 557 q 475 627 531 627 m 760 821 l 756 802 l 648 802 l 528 893 l 526 893 l 365 802 l 256 802 l 260 821 l 468 991 l 623 991 l 760 821 z "},"ë":{"ha":833,"x_min":57,"x_max":773,"o":"m 351 -14 q 134 57 210 -14 q 57 261 57 128 q 86 440 57 347 q 174 604 115 533 q 318 711 234 675 q 501 747 402 747 q 704 674 635 747 q 773 465 773 601 q 760 336 773 405 l 759 330 l 261 330 q 254 263 254 296 q 289 152 254 191 q 385 114 323 114 q 480 136 437 114 q 543 201 522 158 l 720 186 q 567 38 663 90 q 351 -14 471 -14 m 475 627 q 355 580 406 627 q 286 450 304 533 l 597 450 l 600 488 q 566 592 600 557 q 475 627 531 627 m 578 827 l 608 975 l 762 975 l 732 827 l 578 827 m 291 827 l 320 975 l 472 975 l 443 827 l 291 827 z "},"í":{"ha":833,"x_min":9,"x_max":786,"o":"m 492 129 l 732 129 l 707 0 l 9 0 l 34 129 l 302 129 l 394 605 l 197 605 l 222 734 l 610 734 l 492 129 m 404 803 l 408 824 l 611 989 l 786 989 l 781 960 l 519 803 l 404 803 z "},"ì":{"ha":833,"x_min":9,"x_max":732,"o":"m 492 129 l 732 129 l 707 0 l 9 0 l 34 129 l 302 129 l 394 605 l 197 605 l 222 734 l 610 734 l 492 129 m 505 803 l 305 960 l 311 989 l 486 989 l 625 824 l 621 803 l 505 803 z "},"î":{"ha":833,"x_min":9,"x_max":762,"o":"m 492 129 l 732 129 l 707 0 l 9 0 l 34 129 l 302 129 l 394 605 l 197 605 l 222 734 l 610 734 l 492 129 m 762 821 l 758 802 l 650 802 l 530 893 l 528 893 l 367 802 l 258 802 l 262 821 l 470 991 l 625 991 l 762 821 z "},"ï":{"ha":833,"x_min":9,"x_max":784,"o":"m 492 129 l 732 129 l 707 0 l 9 0 l 34 129 l 302 129 l 394 605 l 197 605 l 222 734 l 610 734 l 492 129 m 601 827 l 630 975 l 784 975 l 755 827 l 601 827 m 313 827 l 342 975 l 494 975 l 465 827 l 313 827 z "},"ñ":{"ha":833,"x_min":26,"x_max":810,"o":"m 488 0 l 569 420 q 579 506 579 470 q 557 581 579 557 q 489 605 536 605 q 367 547 420 605 q 293 393 313 489 l 216 0 l 26 0 l 136 570 q 163 734 159 682 l 345 734 q 338 674 345 723 q 326 588 332 625 l 328 588 q 595 748 432 748 q 779 563 779 748 q 768 466 779 519 l 677 0 l 488 0 m 621 802 q 564 814 591 802 q 510 841 536 826 q 461 867 484 855 q 418 879 438 879 q 367 861 385 879 q 336 802 349 844 l 243 802 q 317 950 271 906 q 433 994 363 994 q 492 982 464 994 q 546 956 521 970 q 594 929 572 941 q 636 918 616 918 q 687 937 670 918 q 718 994 705 956 l 810 994 q 737 847 785 892 q 621 802 690 802 z "},"ó":{"ha":833,"x_min":52,"x_max":784,"o":"m 340 -14 q 125 57 199 -14 q 52 260 52 127 q 105 504 52 385 q 258 685 159 623 q 492 747 356 747 q 784 488 784 747 q 771 368 784 436 q 624 86 736 185 q 340 -14 512 -14 m 585 485 q 557 585 585 553 q 469 616 530 616 q 351 572 397 616 q 277 431 304 528 q 250 256 250 334 q 363 117 250 117 q 484 162 437 117 q 558 308 530 208 q 585 485 585 408 m 402 803 l 406 824 l 609 989 l 784 989 l 779 960 l 517 803 l 402 803 z "},"ò":{"ha":833,"x_min":52,"x_max":784,"o":"m 340 -14 q 125 57 199 -14 q 52 260 52 127 q 105 504 52 385 q 258 685 159 623 q 492 747 356 747 q 784 488 784 747 q 771 368 784 436 q 624 86 736 185 q 340 -14 512 -14 m 585 485 q 557 585 585 553 q 469 616 530 616 q 351 572 397 616 q 277 431 304 528 q 250 256 250 334 q 363 117 250 117 q 484 162 437 117 q 558 308 530 208 q 585 485 585 408 m 503 803 l 303 960 l 309 989 l 484 989 l 623 824 l 618 803 l 503 803 z "},"ô":{"ha":833,"x_min":52,"x_max":784,"o":"m 340 -14 q 125 57 199 -14 q 52 260 52 127 q 105 504 52 385 q 258 685 159 623 q 492 747 356 747 q 784 488 784 747 q 771 368 784 436 q 624 86 736 185 q 340 -14 512 -14 m 585 485 q 557 585 585 553 q 469 616 530 616 q 351 572 397 616 q 277 431 304 528 q 250 256 250 334 q 363 117 250 117 q 484 162 437 117 q 558 308 530 208 q 585 485 585 408 m 755 821 l 751 802 l 644 802 l 524 893 l 521 893 l 360 802 l 252 802 l 255 821 l 463 991 l 618 991 l 755 821 z "},"ö":{"ha":833,"x_min":52,"x_max":784,"o":"m 340 -14 q 125 57 199 -14 q 52 260 52 127 q 105 504 52 385 q 258 685 159 623 q 492 747 356 747 q 784 488 784 747 q 771 368 784 436 q 624 86 736 185 q 340 -14 512 -14 m 585 485 q 557 585 585 553 q 469 616 530 616 q 351 572 397 616 q 277 431 304 528 q 250 256 250 334 q 363 117 250 117 q 484 162 437 117 q 558 308 530 208 q 585 485 585 408 m 573 827 l 602 975 l 756 975 l 727 827 l 573 827 m 286 827 l 315 975 l 467 975 l 437 827 l 286 827 z "},"õ":{"ha":833,"x_min":52,"x_max":803,"o":"m 340 -14 q 125 57 199 -14 q 52 260 52 127 q 105 504 52 385 q 258 685 159 623 q 492 747 356 747 q 784 488 784 747 q 771 368 784 436 q 624 86 736 185 q 340 -14 512 -14 m 585 485 q 557 585 585 553 q 469 616 530 616 q 351 572 397 616 q 277 431 304 528 q 250 256 250 334 q 363 117 250 117 q 484 162 437 117 q 558 308 530 208 q 585 485 585 408 m 614 802 q 557 814 585 802 q 503 841 529 826 q 454 867 477 855 q 411 879 431 879 q 360 861 378 879 q 330 802 342 844 l 237 802 q 310 950 264 906 q 427 994 357 994 q 486 982 457 994 q 539 956 514 970 q 587 929 565 941 q 629 918 610 918 q 681 937 663 918 q 711 994 698 956 l 803 994 q 730 847 778 892 q 614 802 683 802 z "},"ú":{"ha":833,"x_min":62,"x_max":801,"o":"m 353 734 l 273 322 q 265 244 265 279 q 353 129 265 129 q 466 190 414 129 q 534 340 517 250 l 610 734 l 801 734 l 690 164 q 673 67 681 119 q 664 0 666 16 l 482 0 q 503 146 488 62 l 499 146 q 245 -14 395 -14 q 62 172 62 -14 q 73 268 62 217 l 163 734 l 353 734 m 395 803 l 399 824 l 602 989 l 777 989 l 771 960 l 510 803 l 395 803 z "},"ù":{"ha":833,"x_min":62,"x_max":801,"o":"m 353 734 l 273 322 q 265 244 265 279 q 353 129 265 129 q 466 190 414 129 q 534 340 517 250 l 610 734 l 801 734 l 690 164 q 673 67 681 119 q 664 0 666 16 l 482 0 q 503 146 488 62 l 499 146 q 245 -14 395 -14 q 62 172 62 -14 q 73 268 62 217 l 163 734 l 353 734 m 487 803 l 287 960 l 292 989 l 467 989 l 606 824 l 602 803 l 487 803 z "},"û":{"ha":833,"x_min":62,"x_max":801,"o":"m 353 734 l 273 322 q 265 244 265 279 q 353 129 265 129 q 466 190 414 129 q 534 340 517 250 l 610 734 l 801 734 l 690 164 q 673 67 681 119 q 664 0 666 16 l 482 0 q 503 146 488 62 l 499 146 q 245 -14 395 -14 q 62 172 62 -14 q 73 268 62 217 l 163 734 l 353 734 m 755 821 l 751 802 l 644 802 l 524 893 l 521 893 l 360 802 l 252 802 l 255 821 l 463 991 l 618 991 l 755 821 z "},"ü":{"ha":833,"x_min":62,"x_max":801,"o":"m 353 734 l 273 322 q 265 244 265 279 q 353 129 265 129 q 466 190 414 129 q 534 340 517 250 l 610 734 l 801 734 l 690 164 q 673 67 681 119 q 664 0 666 16 l 482 0 q 503 146 488 62 l 499 146 q 245 -14 395 -14 q 62 172 62 -14 q 73 268 62 217 l 163 734 l 353 734 m 573 827 l 602 975 l 756 975 l 727 827 l 573 827 m 286 827 l 315 975 l 467 975 l 437 827 l 286 827 z "},"†":{"ha":833,"x_min":168,"x_max":795,"o":"m 539 651 l 370 -144 l 264 -144 l 404 651 l 168 633 l 195 771 l 423 751 l 454 1006 l 627 1006 l 558 751 l 795 771 l 768 633 l 539 651 z "},"°":{"ha":833,"x_min":199,"x_max":634,"o":"m 634 753 q 571 602 634 665 q 416 539 507 539 q 263 601 327 539 q 199 753 199 663 q 228 861 199 811 q 307 938 257 910 q 416 966 357 966 q 571 904 508 966 q 634 753 634 841 m 527 753 q 495 833 527 800 q 416 865 464 865 q 336 832 368 865 q 304 753 304 800 q 337 672 304 706 q 416 639 370 639 q 494 672 462 639 q 527 753 527 705 z "},"¢":{"ha":833,"x_min":73,"x_max":806,"o":"m 400 211 q 508 248 460 211 q 578 353 555 285 l 768 345 q 643 171 732 239 q 431 89 554 103 l 406 -41 l 296 -41 l 321 87 q 137 166 201 99 q 73 351 73 233 q 121 569 73 463 q 256 737 169 675 q 461 811 343 799 l 486 936 l 595 936 l 571 811 q 744 735 683 798 q 806 573 806 672 l 806 569 l 612 559 l 612 565 q 581 656 612 625 q 492 688 550 688 q 400 665 441 688 q 330 597 359 642 q 283 486 300 551 q 266 366 266 421 q 300 250 266 290 q 400 211 334 211 z "},"£":{"ha":833,"x_min":-14,"x_max":806,"o":"m 777 246 q 650 65 734 130 q 463 0 566 0 l -14 0 l 13 139 q 123 225 87 176 q 174 347 159 275 l 184 403 l 56 403 l 79 518 l 200 518 l 226 652 q 339 859 253 789 q 568 929 426 929 q 738 884 680 929 q 806 732 795 839 l 642 700 q 614 776 637 752 q 547 800 591 800 q 450 761 485 800 q 399 637 416 722 l 376 518 l 570 518 l 547 403 l 353 403 l 343 349 q 291 227 328 275 q 180 142 253 178 l 444 142 q 557 175 515 142 q 624 273 600 209 l 777 246 z "},"§":{"ha":833,"x_min":17,"x_max":824,"o":"m 551 1007 q 752 960 682 1007 q 824 821 823 912 l 659 804 q 624 869 658 847 q 529 892 590 892 q 413 872 453 892 q 366 808 374 852 l 363 792 q 378 754 363 771 q 424 725 393 738 q 535 692 454 711 q 684 644 639 667 q 753 588 730 620 q 777 509 777 555 q 729 375 777 436 q 604 291 680 314 q 672 238 647 270 q 698 157 698 207 q 653 19 698 84 q 524 -81 609 -47 q 320 -116 439 -116 q 96 -69 169 -116 q 17 79 24 -22 l 182 104 q 222 25 185 50 q 342 -1 258 -1 q 487 30 441 -1 q 532 118 532 60 q 517 160 532 144 q 471 190 502 177 q 328 231 440 203 q 159 306 208 262 q 111 411 111 349 q 158 539 111 484 q 292 620 205 593 q 220 679 245 642 q 195 760 195 715 q 239 888 195 829 q 363 977 283 947 q 551 1007 443 1007 m 609 467 q 575 524 609 501 q 433 568 541 546 q 318 528 357 559 q 280 451 280 496 q 295 413 280 430 q 340 384 310 397 q 456 350 370 370 q 570 384 530 353 q 609 467 609 415 z "},"•":{"ha":833,"x_min":233,"x_max":637,"o":"m 395 262 q 278 309 323 262 q 233 424 233 355 q 268 541 233 486 q 358 629 303 597 q 472 661 414 661 q 591 615 544 661 q 637 500 637 569 q 603 384 637 440 q 510 295 568 328 q 395 262 453 262 z "},"¶":{"ha":833,"x_min":131,"x_max":863,"o":"m 755 818 l 553 -220 l 448 -220 l 649 818 l 517 818 l 315 -220 l 210 -220 l 336 430 q 185 476 239 430 q 131 608 131 523 q 170 764 131 691 q 277 876 208 838 q 436 915 347 915 l 863 915 l 844 818 l 755 818 z "},"ß":{"ha":833,"x_min":16,"x_max":808,"o":"m 463 -14 q 290 16 363 -14 l 318 155 q 391 128 348 140 q 467 115 433 115 q 552 139 522 115 q 589 201 582 162 l 591 220 q 512 329 591 271 q 442 399 466 362 q 418 479 418 436 q 444 572 418 533 q 523 650 471 610 q 600 722 576 690 q 624 792 624 754 q 597 848 624 827 q 518 869 571 869 q 340 687 374 869 l 206 0 l 16 0 l 149 683 q 281 923 178 840 q 547 1006 383 1006 q 739 958 670 1006 q 808 823 808 909 q 801 766 808 797 q 777 708 793 735 q 737 657 760 680 q 654 587 715 633 q 613 551 625 565 q 602 522 602 536 q 617 490 602 507 q 684 430 632 472 q 774 258 774 355 q 736 121 774 188 q 629 21 699 55 q 463 -14 559 -14 z "},"®":{"ha":833,"x_min":21,"x_max":812,"o":"m 812 516 q 764 251 812 362 q 626 83 715 140 q 416 26 536 26 q 207 84 296 26 q 70 252 118 142 q 21 516 21 363 q 69 780 21 669 q 207 948 117 890 q 416 1006 297 1006 q 626 949 536 1006 q 764 781 715 891 q 812 516 812 671 m 535 233 l 406 456 l 328 456 l 328 233 l 225 233 l 225 796 l 433 796 q 581 753 530 796 q 632 635 632 711 q 598 522 632 566 q 506 465 564 478 l 654 233 l 535 233 m 530 634 q 410 720 530 720 l 328 720 l 328 530 l 418 530 q 501 557 473 530 q 530 634 530 583 m 726 516 q 645 820 726 711 q 416 928 564 928 q 190 820 271 928 q 109 516 109 711 q 190 211 109 319 q 416 104 271 104 q 645 211 564 104 q 726 516 726 319 z "},"©":{"ha":833,"x_min":21,"x_max":812,"o":"m 426 226 q 249 303 312 226 q 186 517 186 380 q 247 730 186 654 q 421 805 307 805 q 627 663 568 805 l 533 634 q 422 720 500 720 q 324 668 358 720 q 290 517 290 616 q 327 366 290 421 q 426 310 363 310 q 542 414 503 310 l 629 386 q 552 268 604 309 q 426 226 499 226 m 812 516 q 764 251 812 362 q 626 83 715 140 q 416 26 536 26 q 207 84 296 26 q 70 252 118 142 q 21 516 21 363 q 69 780 21 669 q 207 948 117 890 q 416 1006 297 1006 q 626 949 536 1006 q 764 781 715 891 q 812 516 812 671 m 726 516 q 645 820 726 711 q 416 928 564 928 q 190 820 271 928 q 109 516 109 711 q 190 211 109 319 q 416 104 271 104 q 645 211 564 104 q 726 516 726 319 z "},"™":{"ha":833,"x_min":0,"x_max":818,"o":"m 214 916 l 214 571 l 107 571 l 107 916 l 0 916 l 0 1006 l 323 1006 l 323 916 l 214 916 m 586 708 q 595 745 587 719 q 694 1006 604 772 l 818 1006 l 818 571 l 726 571 l 726 810 l 728 870 l 711 810 l 618 571 l 553 571 l 460 810 l 443 869 l 445 810 l 445 571 l 353 571 l 353 1006 l 477 1006 l 574 753 q 586 708 583 729 z "},"´":{"ha":833,"x_min":334,"x_max":715,"o":"m 334 803 l 338 824 l 541 989 l 715 989 l 710 960 l 449 803 l 334 803 z "},"¨":{"ha":833,"x_min":286,"x_max":756,"o":"m 573 827 l 602 975 l 756 975 l 727 827 l 573 827 m 286 827 l 315 975 l 467 975 l 437 827 l 286 827 z "},"≠":{"ha":833,"x_min":62,"x_max":772,"o":"m 348 197 l 260 25 l 116 25 l 203 197 l 62 197 l 62 347 l 277 347 l 389 571 l 62 571 l 62 722 l 463 722 l 553 897 l 696 897 l 608 722 l 772 722 l 772 571 l 534 571 l 421 347 l 772 347 l 772 197 l 348 197 z "},"Æ":{"ha":833,"x_min":-71,"x_max":904,"o":"m 397 262 l 226 262 l 106 0 l -71 0 l 359 915 l 904 915 l 878 778 l 668 778 l 621 537 l 823 537 l 796 401 l 595 401 l 543 137 l 779 137 l 753 0 l 347 0 l 397 262 m 498 781 l 459 781 l 401 646 l 287 397 l 424 397 l 498 781 z "},"Ø":{"ha":833,"x_min":-36,"x_max":903,"o":"m 343 -14 q 122 67 197 -14 l 32 -29 l -36 22 l 76 141 q 50 298 50 206 q 84 535 50 406 q 180 752 119 665 q 329 884 241 839 q 526 929 416 929 q 745 851 671 929 l 836 947 l 903 897 l 792 779 q 820 621 820 711 q 785 381 820 511 q 688 165 749 252 q 539 32 626 77 q 343 -14 452 -14 m 616 591 l 267 221 q 374 144 295 144 q 496 203 444 144 q 581 379 548 262 q 616 591 614 495 m 254 330 l 602 699 q 496 772 575 772 q 373 714 425 772 q 288 539 321 656 q 254 330 256 423 z "},"∞":{"ha":833,"x_min":13,"x_max":821,"o":"m 821 395 q 766 207 821 281 q 624 133 712 133 q 511 171 558 133 q 416 302 465 209 q 350 204 378 235 q 287 156 321 173 q 211 140 252 140 q 67 211 121 140 q 13 405 13 281 q 67 594 13 521 q 211 667 121 667 q 320 628 273 667 q 416 492 368 588 q 484 595 456 563 q 544 644 512 627 q 616 661 576 661 q 767 590 713 661 q 821 395 821 518 m 608 544 q 469 397 538 544 q 533 289 501 328 q 607 250 565 250 q 669 291 646 250 q 692 397 692 332 q 669 505 692 466 q 608 544 646 544 m 363 404 q 295 521 323 490 q 232 551 266 551 q 166 509 191 551 q 142 404 142 467 q 166 297 142 336 q 233 258 191 258 q 298 294 267 258 q 363 404 329 331 z "},"±":{"ha":833,"x_min":68,"x_max":765,"o":"m 492 479 l 492 248 l 340 248 l 340 479 l 68 479 l 68 631 l 340 631 l 340 861 l 492 861 l 492 631 l 765 631 l 765 479 l 492 479 m 68 0 l 68 151 l 765 151 l 765 0 l 68 0 z "},"≤":{"ha":833,"x_min":62,"x_max":758,"o":"m 62 428 l 62 646 l 758 880 l 758 726 l 193 536 l 758 347 l 758 193 l 62 428 m 62 0 l 62 151 l 756 151 l 756 0 l 62 0 z "},"≥":{"ha":833,"x_min":75,"x_max":771,"o":"m 75 193 l 75 347 l 640 536 l 75 726 l 75 880 l 771 646 l 771 428 l 75 193 m 77 0 l 77 151 l 771 151 l 771 0 l 77 0 z "},"¥":{"ha":833,"x_min":56,"x_max":917,"o":"m 570 469 l 757 469 l 738 370 l 509 370 l 487 260 l 716 260 l 697 160 l 468 160 l 437 0 l 252 0 l 283 160 l 56 160 l 75 260 l 302 260 l 324 370 l 96 370 l 115 469 l 302 469 l 129 915 l 325 915 l 451 551 l 721 915 l 917 915 l 570 469 z "},"µ":{"ha":833,"x_min":-39,"x_max":813,"o":"m 494 0 q 510 125 500 76 l 508 125 q 314 -14 429 -14 q 253 3 279 -14 q 216 47 227 19 l 214 47 l 201 -31 l 152 -282 l -39 -282 l 159 734 l 349 734 l 270 323 q 261 243 261 275 q 357 131 261 131 q 477 189 425 131 q 547 342 529 247 l 623 734 l 813 734 l 703 164 q 676 0 678 24 l 494 0 z "},"∂":{"ha":833,"x_min":52,"x_max":771,"o":"m 771 635 q 751 443 771 549 q 693 250 732 337 q 600 103 654 162 q 475 13 545 44 q 321 -18 406 -18 q 122 51 193 -18 q 52 245 52 119 q 80 409 52 325 q 154 553 107 492 q 264 647 201 614 q 405 680 328 680 q 529 649 475 680 q 608 568 583 618 l 612 568 q 617 638 617 621 q 567 811 617 751 q 416 871 516 871 q 319 854 370 871 q 233 811 269 837 l 264 952 q 448 1002 340 1002 q 687 907 604 1002 q 771 635 771 813 m 583 450 q 529 533 570 500 q 435 566 488 566 q 325 525 375 566 q 244 405 275 484 q 213 248 213 326 q 245 150 213 185 q 336 114 277 114 q 491 208 423 114 q 583 450 559 302 z "},"∑":{"ha":833,"x_min":15,"x_max":825,"o":"m 15 -309 l 15 -200 l 426 306 l 28 812 l 28 915 l 786 915 l 786 761 l 280 761 l 638 309 l 267 -154 l 825 -154 l 825 -309 l 15 -309 z "},"∏":{"ha":833,"x_min":71,"x_max":762,"o":"m 570 -309 l 570 749 l 271 749 l 271 -309 l 71 -309 l 71 915 l 762 915 l 762 -309 l 570 -309 z "},"∫":{"ha":833,"x_min":135,"x_max":699,"o":"m 240 -309 q 180 -304 211 -309 q 135 -294 149 -299 l 135 -147 q 216 -164 180 -164 q 321 -31 321 -164 l 321 764 q 393 954 321 886 q 593 1022 465 1022 q 699 1009 653 1022 l 699 861 q 618 878 665 878 q 538 843 566 878 q 511 745 511 809 l 511 -50 q 440 -241 511 -174 q 240 -309 368 -309 z "},"ª":{"ha":833,"x_min":177,"x_max":726,"o":"m 315 436 q 213 467 250 436 q 177 555 177 497 q 181 593 177 573 q 434 758 214 755 l 549 760 q 559 824 559 810 q 493 885 559 885 q 391 812 414 885 l 244 819 q 341 935 271 893 q 509 977 411 977 q 653 941 604 977 q 702 836 702 904 q 698 794 702 817 l 662 609 q 656 567 656 583 q 687 534 656 534 l 726 537 l 709 452 q 614 438 660 438 q 535 464 559 438 q 511 527 511 490 l 512 543 l 510 543 q 315 436 432 436 m 391 538 q 480 576 439 538 q 530 664 521 614 l 534 685 l 463 683 q 380 670 406 682 q 341 635 354 659 q 328 587 328 612 q 391 538 328 538 z "},"º":{"ha":833,"x_min":213,"x_max":754,"o":"m 427 436 q 269 489 325 436 q 213 637 213 542 q 236 766 213 700 q 302 880 260 832 q 404 952 345 927 q 536 977 463 977 q 697 927 641 977 q 754 781 754 878 q 730 647 754 714 q 664 534 707 581 q 560 461 621 487 q 427 436 499 436 m 599 777 q 577 847 599 827 q 515 866 555 866 q 434 837 465 866 q 385 749 402 808 q 368 640 368 689 q 448 545 368 545 q 531 575 499 545 q 581 666 564 605 q 599 777 599 728 z "},"Ω":{"ha":833,"x_min":34,"x_max":799,"o":"m 416 775 q 287 705 335 775 q 239 511 239 635 q 268 351 239 420 q 370 206 298 281 l 370 0 l 34 0 l 34 155 l 113 155 q 231 147 156 155 q 46 541 46 294 q 94 744 46 656 q 228 881 142 833 q 416 929 313 929 q 605 881 519 929 q 739 744 690 833 q 787 541 787 655 q 602 147 787 294 q 723 155 680 155 l 799 155 l 799 0 l 463 0 l 463 206 q 565 350 535 281 q 594 511 594 419 q 546 705 594 635 q 416 775 498 775 z "},"æ":{"ha":833,"x_min":-24,"x_max":837,"o":"m 467 328 l 467 327 q 456 234 456 277 q 476 142 456 175 q 536 109 496 109 q 603 134 576 109 q 650 204 630 160 l 764 174 q 515 -14 677 -14 q 400 23 437 -14 q 354 144 362 60 q 244 26 306 65 q 115 -14 182 -14 q 11 26 46 -14 q -24 137 -24 65 q -18 205 -24 168 q 253 448 29 444 l 353 450 q 367 542 367 518 q 309 624 367 624 q 216 524 245 624 l 77 536 q 175 694 111 642 q 332 747 239 747 q 481 653 452 747 q 666 747 556 747 q 837 530 837 747 q 833 459 837 496 q 812 328 829 422 l 467 328 m 119 165 q 159 110 119 110 q 260 168 212 110 q 324 302 309 225 l 332 338 l 262 336 q 180 313 208 335 q 135 247 151 292 q 119 165 119 203 m 633 627 q 578 605 606 627 q 526 543 549 583 q 491 448 503 503 l 695 448 q 701 522 701 490 q 685 600 701 572 q 633 627 670 627 z "},"ø":{"ha":833,"x_min":5,"x_max":825,"o":"m 340 -14 q 130 52 204 -14 l 60 -14 l 5 39 l 83 112 q 52 259 52 173 q 105 504 52 385 q 258 686 159 624 q 492 747 357 747 q 703 688 631 747 l 769 749 l 825 696 l 753 629 q 784 487 784 572 q 753 294 784 393 q 664 127 722 195 q 526 23 607 59 q 340 -14 444 -14 m 585 473 l 263 176 q 363 117 289 117 q 479 158 433 117 q 552 287 524 199 q 585 473 579 376 m 250 267 l 570 564 q 469 616 545 616 q 353 574 398 616 q 280 440 307 532 q 250 267 253 348 z "},"¿":{"ha":833,"x_min":20,"x_max":736,"o":"m 387 458 l 568 458 q 504 334 551 389 q 382 233 458 279 q 253 139 290 176 q 217 52 217 101 q 250 -15 217 12 q 347 -42 283 -42 q 469 -3 414 -42 q 545 104 524 37 l 736 96 q 582 -118 692 -40 q 319 -195 472 -195 q 100 -139 180 -195 q 20 15 20 -83 q 31 86 20 49 q 64 157 41 123 q 121 221 86 191 q 267 321 156 252 q 387 458 370 386 m 627 734 l 591 551 l 395 551 l 431 734 l 627 734 z "},"¡":{"ha":833,"x_min":211,"x_max":588,"o":"m 354 443 l 510 443 l 410 -183 l 211 -183 l 354 443 m 588 732 l 552 549 l 357 549 l 393 732 l 588 732 z "},"¬":{"ha":833,"x_min":57,"x_max":753,"o":"m 602 96 l 602 386 l 57 386 l 57 538 l 753 538 l 753 96 l 602 96 z "},"√":{"ha":833,"x_min":41,"x_max":806,"o":"m 463 -17 l 349 -17 l 165 494 l 41 494 l 41 607 l 252 607 l 400 176 l 680 1099 l 806 1099 l 463 -17 z "},"ƒ":{"ha":833,"x_min":-7,"x_max":859,"o":"m 804 785 q 752 796 785 792 q 702 800 720 800 q 620 782 648 800 q 574 714 593 764 l 547 642 l 751 642 l 702 513 l 496 513 l 183 -288 l -7 -288 l 306 513 l 165 513 l 215 642 l 356 642 l 392 733 q 505 882 430 835 q 700 929 580 929 q 795 921 749 929 q 859 905 842 913 l 804 785 z "},"≈":{"ha":833,"x_min":64,"x_max":768,"o":"m 587 513 q 487 527 536 513 q 387 558 438 541 q 237 590 298 590 q 152 577 192 590 q 64 530 112 564 l 64 675 q 248 732 139 732 q 326 723 284 732 q 465 682 368 715 q 600 653 547 653 q 768 715 691 653 l 768 567 q 685 525 726 536 q 587 513 644 513 m 587 186 q 487 201 536 186 q 387 233 438 216 q 237 264 300 264 q 149 249 189 264 q 64 204 109 235 l 64 349 q 248 406 141 406 q 359 390 304 406 q 465 357 413 374 q 557 331 534 335 q 600 326 581 326 q 768 389 691 326 l 768 240 q 685 198 725 210 q 587 186 646 186 z "},"∆":{"ha":833,"x_min":12,"x_max":822,"o":"m 12 153 l 302 915 l 536 915 l 822 153 l 822 0 l 12 0 l 12 153 m 623 165 l 471 585 q 424 760 441 678 l 418 786 q 398 706 417 779 q 364 583 380 633 l 215 165 l 623 165 z "},"«":{"ha":833,"x_min":85,"x_max":795,"o":"m 528 96 l 403 340 l 412 389 l 634 637 l 795 637 l 791 612 l 570 364 l 696 119 l 691 96 l 528 96 m 212 96 l 85 340 l 94 389 l 317 637 l 477 637 l 473 612 l 252 364 l 378 119 l 373 96 l 212 96 z "},"»":{"ha":833,"x_min":37,"x_max":748,"o":"m 37 96 l 41 119 l 262 364 l 139 612 l 144 637 l 305 637 l 430 389 l 421 340 l 199 96 l 37 96 m 355 96 l 359 119 l 581 364 l 457 612 l 462 637 l 622 637 l 748 389 l 739 340 l 516 96 l 355 96 z "},"…":{"ha":833,"x_min":-31,"x_max":768,"o":"m 553 0 l 593 207 l 768 207 l 728 0 l 553 0 m 262 0 l 302 207 l 475 207 l 435 0 l 262 0 m -31 0 l 9 207 l 184 207 l 144 0 l -31 0 z "},"À":{"ha":833,"x_min":-71,"x_max":762,"o":"m 762 0 l 563 0 l 544 224 l 235 224 l 129 0 l -71 0 l 407 915 l 640 915 l 762 0 m 500 791 q 468 718 489 764 q 306 374 448 671 l 531 374 l 508 632 l 500 768 l 500 791 m 519 968 l 319 1124 l 325 1154 l 500 1154 l 639 989 l 635 968 l 519 968 z "},"Ã":{"ha":833,"x_min":-71,"x_max":834,"o":"m 762 0 l 563 0 l 544 224 l 235 224 l 129 0 l -71 0 l 407 915 l 640 915 l 762 0 m 500 791 q 468 718 489 764 q 306 374 448 671 l 531 374 l 508 632 l 500 768 l 500 791 m 646 964 q 588 976 616 964 q 534 1003 560 988 q 486 1029 509 1017 q 442 1041 463 1041 q 392 1023 410 1041 q 361 964 374 1006 l 268 964 q 341 1112 295 1068 q 458 1156 388 1156 q 517 1144 488 1156 q 571 1118 545 1133 q 618 1092 596 1103 q 661 1080 641 1080 q 712 1099 694 1080 q 743 1156 729 1118 l 834 1156 q 762 1009 809 1055 q 646 964 714 964 z "},"Õ":{"ha":833,"x_min":50,"x_max":834,"o":"m 343 -14 q 124 65 199 -14 q 50 298 50 143 q 85 538 50 410 q 181 753 120 667 q 329 884 242 840 q 526 929 416 929 q 745 852 670 929 q 820 622 820 776 q 785 381 820 511 q 687 164 749 252 q 538 32 625 77 q 343 -14 452 -14 m 616 605 q 496 772 616 772 q 371 711 423 772 q 286 530 318 651 q 254 316 254 410 q 374 144 254 144 q 498 206 446 144 q 584 389 551 268 q 616 605 616 510 m 646 964 q 588 976 616 964 q 534 1003 560 988 q 486 1029 509 1017 q 442 1041 463 1041 q 392 1023 410 1041 q 361 964 374 1006 l 268 964 q 341 1112 295 1068 q 458 1156 388 1156 q 517 1144 488 1156 q 571 1118 545 1133 q 618 1092 596 1103 q 661 1080 641 1080 q 712 1099 694 1080 q 743 1156 729 1118 l 834 1156 q 762 1009 809 1055 q 646 964 714 964 z "},"Œ":{"ha":833,"x_min":18,"x_max":900,"o":"m 335 0 l 281 -3 q 82 65 146 -3 q 18 275 18 134 q 51 520 18 382 q 139 745 84 658 q 273 876 193 833 q 462 919 352 919 q 522 915 488 919 l 900 915 l 873 778 l 661 778 l 614 537 l 809 537 l 783 401 l 588 401 l 536 137 l 777 137 l 750 0 l 335 0 m 308 129 q 366 133 345 129 l 492 782 q 436 786 467 786 q 311 722 360 786 q 229 522 262 659 q 197 292 197 386 q 308 129 197 129 z "},"œ":{"ha":833,"x_min":1,"x_max":834,"o":"m 489 328 q 478 230 478 273 q 548 115 478 115 q 605 138 583 115 q 645 204 627 160 l 760 174 q 524 -14 676 -14 q 370 111 401 -14 q 165 -14 290 -14 q 44 41 87 -14 q 1 208 1 96 q 27 407 1 294 q 94 594 53 519 q 192 708 136 669 q 318 747 248 747 q 475 627 445 747 q 674 747 556 747 q 834 534 834 747 q 814 357 834 456 l 809 328 l 489 328 m 372 509 q 302 620 372 620 q 223 565 256 620 q 166 396 191 510 q 142 216 142 282 q 200 114 142 114 q 289 172 253 114 q 349 338 326 230 q 372 509 372 446 m 643 620 q 513 448 551 620 l 692 448 q 700 535 700 506 q 686 601 700 582 q 643 620 673 620 z "},"–":{"ha":833,"x_min":94,"x_max":734,"o":"m 94 283 l 121 421 l 734 421 l 707 283 l 94 283 z "},"—":{"ha":833,"x_min":-23,"x_max":850,"o":"m -23 283 l 4 421 l 850 421 l 823 283 l -23 283 z "},"“":{"ha":833,"x_min":136,"x_max":863,"o":"m 552 1006 l 356 585 l 136 585 l 428 1006 l 552 1006 m 863 1006 l 667 585 l 447 585 l 739 1006 l 863 1006 z "},"”":{"ha":833,"x_min":136,"x_max":864,"o":"m 448 585 l 644 1006 l 864 1006 l 572 585 l 448 585 m 136 585 l 332 1006 l 553 1006 l 260 585 l 136 585 z "},"‘":{"ha":833,"x_min":292,"x_max":708,"o":"m 708 1006 l 512 585 l 292 585 l 584 1006 l 708 1006 z "},"’":{"ha":833,"x_min":293,"x_max":709,"o":"m 293 585 l 489 1006 l 709 1006 l 417 585 l 293 585 z "},"÷":{"ha":833,"x_min":68,"x_max":765,"o":"m 336 652 l 336 810 l 498 810 l 498 652 l 336 652 m 68 386 l 68 538 l 765 538 l 765 386 l 68 386 m 336 115 l 336 273 l 498 273 l 498 115 l 336 115 z "},"◊":{"ha":833,"x_min":75,"x_max":759,"o":"m 451 0 l 380 0 l 75 489 l 380 981 l 451 981 l 759 490 l 451 0 m 416 817 l 220 490 l 416 155 l 612 490 l 416 817 z "},"ÿ":{"ha":833,"x_min":-28,"x_max":878,"o":"m 93 -288 q -28 -279 20 -288 l -2 -144 l 32 -147 l 66 -149 q 163 -120 123 -149 q 241 -25 203 -91 l 260 7 l 97 734 l 298 734 l 358 376 q 361 358 359 370 q 363 335 362 347 q 374 238 365 324 q 382 150 382 153 l 394 175 l 487 374 l 679 734 l 878 734 l 425 -39 q 268 -234 342 -179 q 93 -288 193 -288 m 576 827 l 606 975 l 760 975 l 730 827 l 576 827 m 289 827 l 318 975 l 470 975 l 441 827 l 289 827 z "},"Ÿ":{"ha":833,"x_min":109,"x_max":937,"o":"m 445 0 l 245 0 l 319 377 l 109 915 l 318 915 l 447 531 l 728 915 l 937 915 l 518 377 l 445 0 m 603 980 l 632 1128 l 786 1128 l 757 980 l 603 980 m 315 980 l 345 1128 l 496 1128 l 467 980 l 315 980 z "},"⁄":{"ha":833,"x_min":42,"x_max":829,"o":"m 152 0 l 42 0 l 720 915 l 829 915 l 152 0 z "},"€":{"ha":833,"x_min":37,"x_max":878,"o":"m 595 314 l 342 314 q 379 187 345 231 q 478 143 413 143 q 580 164 532 143 q 682 221 629 184 l 747 96 q 600 14 676 41 q 433 -14 524 -14 q 214 66 291 -14 q 137 292 137 146 l 138 312 l 37 312 l 56 410 l 145 410 l 149 437 l 165 514 l 77 514 l 96 610 l 195 610 q 360 847 252 766 q 617 929 468 929 q 878 833 785 929 l 762 696 q 687 751 728 729 q 594 772 646 772 q 481 730 530 772 q 402 609 432 687 l 653 609 l 634 513 l 368 513 q 349 410 352 457 l 614 410 l 595 314 z "},"‹":{"ha":833,"x_min":237,"x_max":629,"o":"m 363 96 l 237 340 l 245 389 l 469 637 l 629 637 l 625 612 l 404 364 l 530 119 l 525 96 l 363 96 z "},"›":{"ha":833,"x_min":202,"x_max":595,"o":"m 202 96 l 207 119 l 428 364 l 304 612 l 309 637 l 469 637 l 595 389 l 587 340 l 363 96 l 202 96 z "},"ﬁ":{"ha":833,"x_min":46,"x_max":863,"o":"m 353 605 l 236 0 l 46 0 l 163 605 l 64 605 l 90 734 l 189 734 l 203 810 q 292 971 224 916 q 464 1027 361 1027 q 601 1008 534 1027 l 576 883 q 481 896 524 896 q 422 872 444 896 q 390 793 401 849 l 378 734 l 530 734 l 505 605 l 353 605 m 667 0 l 477 0 l 619 734 l 810 734 l 667 0 m 645 866 l 672 1006 l 863 1006 l 836 866 l 645 866 z "},"ﬂ":{"ha":833,"x_min":46,"x_max":863,"o":"m 353 605 l 236 0 l 46 0 l 163 605 l 64 605 l 90 734 l 189 734 l 203 810 q 292 971 224 916 q 464 1027 361 1027 q 601 1008 534 1027 l 576 883 q 481 896 524 896 q 422 872 444 896 q 390 793 401 849 l 378 734 l 530 734 l 505 605 l 353 605 m 477 0 l 672 1006 l 863 1006 l 667 0 l 477 0 z "},"‡":{"ha":833,"x_min":61,"x_max":798,"o":"m 406 665 l 172 646 l 199 785 l 425 765 l 461 1006 l 607 1006 l 549 765 l 798 785 l 771 646 l 530 665 l 467 431 l 439 199 l 687 217 l 661 79 l 420 98 l 384 -143 l 238 -143 l 296 98 l 61 79 l 87 217 l 315 199 l 378 431 l 406 665 z "},"∙":{"ha":833,"x_min":302,"x_max":538,"o":"m 302 283 l 342 490 l 538 490 l 498 283 l 302 283 z "},"‚":{"ha":833,"x_min":97,"x_max":514,"o":"m 97 -246 l 294 176 l 514 176 l 221 -246 l 97 -246 z "},"„":{"ha":833,"x_min":-26,"x_max":703,"o":"m 286 -247 l 482 175 l 703 175 l 410 -247 l 286 -247 m -26 -247 l 171 175 l 391 175 l 98 -247 l -26 -247 z "},"‰":{"ha":833,"x_min":-12,"x_max":810,"o":"m 96 291 l -12 291 l 475 697 l 585 697 l 96 291 m 275 957 q 399 829 399 957 q 385 729 399 785 q 344 632 371 673 q 279 572 317 592 q 193 552 241 552 q 68 684 68 552 q 92 816 68 746 q 160 921 115 886 q 275 957 204 957 m 297 821 q 287 860 297 850 q 257 870 277 870 q 212 847 229 870 q 182 778 194 825 q 171 699 171 732 q 212 642 171 642 q 256 668 237 642 q 286 742 275 693 q 297 821 297 791 m 343 405 q 467 277 467 405 q 453 177 467 233 q 413 80 439 121 q 348 20 386 40 q 262 0 309 0 q 136 132 136 0 q 160 264 136 194 q 228 369 184 334 q 343 405 273 405 m 366 269 q 355 308 366 298 q 326 318 345 318 q 280 295 298 318 q 251 226 262 273 q 239 147 239 180 q 281 90 239 90 q 325 116 306 90 q 354 190 343 141 q 366 269 366 239 m 686 405 q 810 277 810 405 q 796 177 810 233 q 755 80 782 121 q 690 20 728 40 q 604 0 652 0 q 479 132 479 0 q 503 264 479 194 q 571 369 526 334 q 686 405 615 405 m 708 269 q 698 308 708 298 q 668 318 688 318 q 623 295 640 318 q 593 226 605 273 q 582 147 582 180 q 623 90 582 90 q 667 116 648 90 q 697 190 686 141 q 708 269 708 239 z "},"Â":{"ha":833,"x_min":-71,"x_max":787,"o":"m 762 0 l 563 0 l 544 224 l 235 224 l 129 0 l -71 0 l 407 915 l 640 915 l 762 0 m 500 791 q 468 718 489 764 q 306 374 448 671 l 531 374 l 508 632 l 500 768 l 500 791 m 787 987 l 783 968 l 675 968 l 555 1059 l 553 1059 l 392 968 l 283 968 l 287 987 l 495 1156 l 650 1156 l 787 987 z "},"Ê":{"ha":833,"x_min":22,"x_max":856,"o":"m 22 0 l 199 915 l 856 915 l 826 760 l 370 760 l 327 541 l 742 541 l 712 386 l 297 386 l 252 155 l 736 155 l 706 0 l 22 0 m 787 987 l 783 968 l 675 968 l 555 1059 l 553 1059 l 392 968 l 283 968 l 287 987 l 495 1156 l 650 1156 l 787 987 z "},"Á":{"ha":833,"x_min":-71,"x_max":810,"o":"m 762 0 l 563 0 l 544 224 l 235 224 l 129 0 l -71 0 l 407 915 l 640 915 l 762 0 m 500 791 q 468 718 489 764 q 306 374 448 671 l 531 374 l 508 632 l 500 768 l 500 791 m 429 968 l 433 989 l 635 1154 l 810 1154 l 805 1125 l 544 968 l 429 968 z "},"Ë":{"ha":833,"x_min":22,"x_max":856,"o":"m 22 0 l 199 915 l 856 915 l 826 760 l 370 760 l 327 541 l 742 541 l 712 386 l 297 386 l 252 155 l 736 155 l 706 0 l 22 0 m 616 980 l 646 1128 l 800 1128 l 770 980 l 616 980 m 329 980 l 358 1128 l 510 1128 l 481 980 l 329 980 z "},"È":{"ha":833,"x_min":22,"x_max":856,"o":"m 22 0 l 199 915 l 856 915 l 826 760 l 370 760 l 327 541 l 742 541 l 712 386 l 297 386 l 252 155 l 736 155 l 706 0 l 22 0 m 534 968 l 334 1125 l 340 1154 l 515 1154 l 654 989 l 650 968 l 534 968 z "},"Í":{"ha":833,"x_min":35,"x_max":834,"o":"m 213 915 l 834 915 l 804 760 l 590 760 l 472 155 l 686 155 l 656 0 l 35 0 l 65 155 l 279 155 l 397 760 l 183 760 l 213 915 m 435 968 l 439 989 l 642 1154 l 817 1154 l 812 1125 l 551 968 l 435 968 z "},"Î":{"ha":833,"x_min":35,"x_max":834,"o":"m 213 915 l 834 915 l 804 760 l 590 760 l 472 155 l 686 155 l 656 0 l 35 0 l 65 155 l 279 155 l 397 760 l 183 760 l 213 915 m 787 987 l 783 968 l 675 968 l 555 1059 l 553 1059 l 392 968 l 283 968 l 287 987 l 495 1156 l 650 1156 l 787 987 z "},"Ï":{"ha":833,"x_min":35,"x_max":834,"o":"m 213 915 l 834 915 l 804 760 l 590 760 l 472 155 l 686 155 l 656 0 l 35 0 l 65 155 l 279 155 l 397 760 l 183 760 l 213 915 m 603 980 l 632 1128 l 786 1128 l 757 980 l 603 980 m 315 980 l 345 1128 l 496 1128 l 467 980 l 315 980 z "},"Ì":{"ha":833,"x_min":35,"x_max":834,"o":"m 213 915 l 834 915 l 804 760 l 590 760 l 472 155 l 686 155 l 656 0 l 35 0 l 65 155 l 279 155 l 397 760 l 183 760 l 213 915 m 528 968 l 328 1125 l 333 1154 l 508 1154 l 647 989 l 643 968 l 528 968 z "},"Ó":{"ha":833,"x_min":50,"x_max":820,"o":"m 343 -14 q 124 65 199 -14 q 50 298 50 143 q 85 538 50 410 q 181 753 120 667 q 329 884 242 840 q 526 929 416 929 q 745 852 670 929 q 820 622 820 776 q 785 381 820 511 q 687 164 749 252 q 538 32 625 77 q 343 -14 452 -14 m 616 605 q 496 772 616 772 q 371 711 423 772 q 286 530 318 651 q 254 316 254 410 q 374 144 254 144 q 498 206 446 144 q 584 389 551 268 q 616 605 616 510 m 432 968 l 436 989 l 639 1154 l 814 1154 l 808 1125 l 547 968 l 432 968 z "},"Ô":{"ha":833,"x_min":50,"x_max":820,"o":"m 343 -14 q 124 65 199 -14 q 50 298 50 143 q 85 538 50 410 q 181 753 120 667 q 329 884 242 840 q 526 929 416 929 q 745 852 670 929 q 820 622 820 776 q 785 381 820 511 q 687 164 749 252 q 538 32 625 77 q 343 -14 452 -14 m 616 605 q 496 772 616 772 q 371 711 423 772 q 286 530 318 651 q 254 316 254 410 q 374 144 254 144 q 498 206 446 144 q 584 389 551 268 q 616 605 616 510 m 787 987 l 783 968 l 675 968 l 555 1059 l 553 1059 l 392 968 l 283 968 l 287 987 l 495 1156 l 650 1156 l 787 987 z "},"Ò":{"ha":833,"x_min":50,"x_max":820,"o":"m 343 -14 q 124 65 199 -14 q 50 298 50 143 q 85 538 50 410 q 181 753 120 667 q 329 884 242 840 q 526 929 416 929 q 745 852 670 929 q 820 622 820 776 q 785 381 820 511 q 687 164 749 252 q 538 32 625 77 q 343 -14 452 -14 m 616 605 q 496 772 616 772 q 371 711 423 772 q 286 530 318 651 q 254 316 254 410 q 374 144 254 144 q 498 206 446 144 q 584 389 551 268 q 616 605 616 510 m 524 968 l 324 1125 l 330 1154 l 505 1154 l 644 989 l 640 968 l 524 968 z "},"Ú":{"ha":833,"x_min":71,"x_max":852,"o":"m 332 -14 q 134 44 197 -14 q 71 224 71 102 q 86 358 71 283 l 194 915 l 394 915 l 286 360 q 273 249 273 296 q 296 167 273 191 q 368 143 319 143 q 480 194 438 143 q 546 367 522 245 l 652 915 l 852 915 l 747 368 q 607 80 708 174 q 332 -14 505 -14 m 424 968 l 428 989 l 631 1154 l 806 1154 l 800 1125 l 539 968 l 424 968 z "},"Û":{"ha":833,"x_min":71,"x_max":852,"o":"m 332 -14 q 134 44 197 -14 q 71 224 71 102 q 86 358 71 283 l 194 915 l 394 915 l 286 360 q 273 249 273 296 q 296 167 273 191 q 368 143 319 143 q 480 194 438 143 q 546 367 522 245 l 652 915 l 852 915 l 747 368 q 607 80 708 174 q 332 -14 505 -14 m 787 987 l 783 968 l 675 968 l 555 1059 l 553 1059 l 392 968 l 283 968 l 287 987 l 495 1156 l 650 1156 l 787 987 z "},"Ù":{"ha":833,"x_min":71,"x_max":852,"o":"m 332 -14 q 134 44 197 -14 q 71 224 71 102 q 86 358 71 283 l 194 915 l 394 915 l 286 360 q 273 249 273 296 q 296 167 273 191 q 368 143 319 143 q 480 194 438 143 q 546 367 522 245 l 652 915 l 852 915 l 747 368 q 607 80 708 174 q 332 -14 505 -14 m 517 968 l 317 1125 l 322 1154 l 497 1154 l 636 989 l 632 968 l 517 968 z "},"ı":{"ha":833,"x_min":9,"x_max":732,"o":"m 492 129 l 732 129 l 707 0 l 9 0 l 34 129 l 302 129 l 394 605 l 197 605 l 222 734 l 610 734 l 492 129 z "},"ˆ":{"ha":833,"x_min":252,"x_max":755,"o":"m 755 821 l 751 802 l 644 802 l 524 893 l 521 893 l 360 802 l 252 802 l 255 821 l 463 991 l 618 991 l 755 821 z "},"˜":{"ha":833,"x_min":237,"x_max":803,"o":"m 614 802 q 557 814 585 802 q 503 841 529 826 q 454 867 477 855 q 411 879 431 879 q 360 861 378 879 q 330 802 342 844 l 237 802 q 310 950 264 906 q 427 994 357 994 q 486 982 457 994 q 539 956 514 970 q 587 929 565 941 q 629 918 610 918 q 681 937 663 918 q 711 994 698 956 l 803 994 q 730 847 778 892 q 614 802 683 802 z "},"ˉ":{"ha":833,"x_min":296,"x_max":733,"o":"m 318 930 l 733 930 l 711 816 l 296 816 l 318 930 z "},"˘":{"ha":833,"x_min":296,"x_max":778,"o":"m 500 802 q 348 844 399 802 q 296 963 296 886 q 298 991 296 983 l 408 991 l 408 984 q 522 909 408 909 q 615 928 581 909 q 667 991 649 948 l 778 991 q 500 802 718 802 z "},"˙":{"ha":833,"x_min":417,"x_max":635,"o":"m 417 859 l 445 1000 l 635 1000 l 608 859 l 417 859 z "},"˚":{"ha":833,"x_min":356,"x_max":690,"o":"m 496 779 q 394 808 431 779 q 356 888 356 838 q 380 967 356 928 q 449 1027 404 1006 q 549 1049 494 1049 q 652 1021 614 1049 q 690 940 690 992 q 665 859 690 897 q 595 800 640 821 q 496 779 551 779 m 593 921 q 576 952 593 941 q 532 962 559 962 q 472 944 493 962 q 452 906 452 926 q 468 877 452 888 q 513 866 484 866 q 571 882 549 866 q 593 921 593 899 z "},"¸":{"ha":833,"x_min":-68,"x_max":232,"o":"m -1 -302 q -68 -298 -32 -302 l -53 -218 q 3 -222 -31 -222 q 106 -166 106 -222 q 91 -139 106 -149 q 31 -129 76 -129 q -4 -130 5 -129 l 68 0 l 165 0 l 124 -69 q 232 -150 232 -76 q 207 -227 232 -191 q 128 -282 182 -263 q -1 -302 75 -302 z "},"˝":{"ha":833,"x_min":85,"x_max":709,"o":"m 181 802 l 85 802 l 89 825 l 274 991 l 433 991 l 428 962 l 181 802 m 456 802 l 360 802 l 364 825 l 549 991 l 709 991 l 703 962 l 456 802 z "},"˛":{"ha":833,"x_min":181,"x_max":443,"o":"m 318 -288 q 219 -261 256 -288 q 181 -182 181 -235 q 221 -71 181 -125 q 323 14 260 -16 l 427 14 q 342 -63 374 -17 q 311 -144 311 -109 q 322 -176 311 -161 q 363 -191 333 -191 q 443 -173 401 -191 l 425 -266 q 318 -288 378 -288 z "},"ˇ":{"ha":833,"x_min":284,"x_max":788,"o":"m 582 802 l 427 802 l 284 971 l 288 991 l 397 991 l 522 900 l 525 900 l 680 991 l 788 991 l 784 971 l 582 802 z "},"Ł":{"ha":833,"x_min":1,"x_max":726,"o":"m 256 915 l 456 915 l 385 549 l 569 636 l 608 513 l 355 393 l 309 155 l 726 155 l 696 0 l 79 0 l 135 289 l 42 245 l 1 368 l 165 446 l 256 915 z "},"ł":{"ha":833,"x_min":9,"x_max":787,"o":"m 593 644 l 751 726 l 787 621 l 566 507 l 492 129 l 732 129 l 707 0 l 9 0 l 34 129 l 302 129 l 354 398 l 206 322 l 169 427 l 380 535 l 448 878 l 251 878 l 275 1006 l 663 1006 l 593 644 z "},"Š":{"ha":833,"x_min":3,"x_max":827,"o":"m 340 -14 q 94 54 181 -14 q 3 249 7 121 l 201 274 q 247 173 205 210 q 375 136 289 136 q 486 152 442 136 q 553 201 530 168 q 576 273 576 234 q 444 380 576 345 q 239 448 293 418 q 155 519 184 477 q 125 620 125 562 q 151 737 125 680 q 231 838 176 793 q 361 905 285 882 q 526 929 437 929 q 752 869 678 929 q 827 683 826 809 l 629 663 q 495 787 623 787 q 402 772 440 787 q 345 727 364 757 q 325 664 325 697 q 341 618 325 637 q 384 587 357 600 q 498 551 412 574 q 668 489 612 520 q 749 415 723 458 q 776 318 776 372 q 723 150 776 229 q 571 29 670 71 q 340 -14 473 -14 m 614 968 l 458 968 l 316 1137 l 320 1156 l 429 1156 l 554 1065 l 557 1065 l 712 1156 l 820 1156 l 816 1137 l 614 968 z "},"š":{"ha":833,"x_min":46,"x_max":791,"o":"m 347 -14 q 123 35 195 -14 q 46 183 52 83 l 219 208 q 253 134 222 156 q 371 113 284 113 q 492 133 452 113 q 541 197 532 153 l 542 212 q 515 257 542 239 q 429 288 489 275 q 243 338 294 315 q 165 395 192 360 q 138 480 138 429 q 181 620 138 557 q 305 715 224 682 q 496 748 386 748 q 697 697 627 748 q 768 550 766 646 l 595 532 q 567 600 595 579 q 471 621 539 621 q 366 604 404 621 q 321 546 329 587 l 319 532 q 343 491 319 507 q 419 465 368 475 l 492 447 q 631 404 587 427 q 700 346 676 380 q 724 262 724 312 q 677 118 724 181 q 546 20 631 54 q 347 -14 460 -14 m 585 802 l 430 802 l 288 971 l 292 991 l 400 991 l 526 900 l 528 900 l 684 991 l 791 991 l 787 971 l 585 802 z "},"Ž":{"ha":833,"x_min":-12,"x_max":850,"o":"m 701 0 l -12 0 l 16 142 l 590 758 l 186 758 l 217 915 l 850 915 l 823 776 l 248 157 l 731 157 l 701 0 m 621 968 l 465 968 l 323 1137 l 327 1156 l 435 1156 l 561 1065 l 564 1065 l 719 1156 l 827 1156 l 823 1137 l 621 968 z "},"ž":{"ha":833,"x_min":22,"x_max":789,"o":"m 22 0 l 49 135 l 525 596 l 166 596 l 193 734 l 768 734 l 742 597 l 269 139 l 686 139 l 659 0 l 22 0 m 583 802 l 427 802 l 285 971 l 289 991 l 397 991 l 523 900 l 526 900 l 681 991 l 789 991 l 785 971 l 583 802 z "},"¦":{"ha":833,"x_min":328,"x_max":505,"o":"m 328 458 l 328 986 l 505 986 l 505 458 l 328 458 m 328 -309 l 328 220 l 505 220 l 505 -309 l 328 -309 z "},"Ð":{"ha":833,"x_min":13,"x_max":822,"o":"m 315 0 l 29 0 l 104 382 l 13 382 l 41 531 l 132 531 l 207 915 l 452 915 q 822 603 822 915 q 785 377 822 498 q 683 171 749 256 q 523 43 616 87 q 315 0 429 0 m 618 576 q 568 717 618 673 q 418 760 518 760 l 377 760 l 332 531 l 473 531 l 444 382 l 304 382 l 259 155 l 328 155 q 606 465 545 155 q 618 576 618 528 z "},"ð":{"ha":833,"x_min":40,"x_max":787,"o":"m 652 859 q 783 494 783 694 q 751 293 783 393 q 662 125 720 193 q 523 22 605 58 q 338 -14 441 -14 q 118 52 195 -14 q 40 240 40 118 q 71 405 40 321 q 158 545 102 488 q 292 633 213 602 q 472 664 371 664 q 560 650 525 664 q 494 798 537 730 l 321 728 l 289 833 l 425 887 q 273 1006 375 935 l 472 1006 q 568 943 530 974 l 751 1017 l 787 912 l 652 859 m 572 410 q 543 503 572 473 q 450 533 513 533 q 317 482 365 533 q 249 323 269 431 q 240 243 240 279 q 359 115 240 115 q 478 151 433 115 q 547 265 523 187 q 572 410 572 342 z "},"Ý":{"ha":833,"x_min":109,"x_max":937,"o":"m 445 0 l 245 0 l 319 377 l 109 915 l 318 915 l 447 531 l 728 915 l 937 915 l 518 377 l 445 0 m 434 968 l 438 989 l 641 1154 l 816 1154 l 810 1125 l 549 968 l 434 968 z "},"ý":{"ha":833,"x_min":-28,"x_max":878,"o":"m 93 -288 q -28 -279 20 -288 l -2 -144 l 32 -147 l 66 -149 q 163 -120 123 -149 q 241 -25 203 -91 l 260 7 l 97 734 l 298 734 l 358 376 q 361 358 359 370 q 363 335 362 347 q 374 238 365 324 q 382 150 382 153 l 394 175 l 487 374 l 679 734 l 878 734 l 425 -39 q 268 -234 342 -179 q 93 -288 193 -288 m 406 803 l 410 824 l 613 989 l 788 989 l 783 960 l 522 803 l 406 803 z "},"Þ":{"ha":833,"x_min":22,"x_max":814,"o":"m 401 174 l 256 174 l 222 0 l 22 0 l 199 915 l 399 915 l 369 755 l 507 755 q 734 697 655 755 q 814 532 814 639 q 762 353 814 437 q 614 221 709 268 q 401 174 519 174 m 609 498 q 571 582 609 550 q 456 614 534 614 l 341 614 l 283 315 l 404 315 q 511 340 464 315 q 584 409 559 365 q 609 498 609 454 z "},"þ":{"ha":833,"x_min":-31,"x_max":779,"o":"m 221 1006 l 412 1006 l 357 727 l 333 613 l 336 613 q 579 748 437 748 q 728 684 677 748 q 779 502 779 619 q 752 314 779 415 q 677 139 725 212 q 564 26 629 65 q 419 -14 498 -14 q 306 20 353 -14 q 239 117 258 54 l 235 117 q 228 68 235 106 q 215 -7 222 31 l 160 -288 l -31 -288 l 221 1006 m 585 479 q 479 616 585 616 q 360 551 411 616 q 284 364 309 486 q 274 267 274 311 q 302 155 274 193 q 381 117 331 117 q 489 164 445 117 q 559 309 532 212 q 585 479 585 405 z "},"−":{"ha":833,"x_min":68,"x_max":765,"o":"m 68 386 l 68 538 l 765 538 l 765 386 l 68 386 z "},"×":{"ha":833,"x_min":69,"x_max":764,"o":"m 69 221 l 311 464 l 72 703 l 179 808 l 418 571 l 656 810 l 764 703 l 525 463 l 764 225 l 656 117 l 418 357 l 176 114 l 69 221 z "},"¹":{"ha":833,"x_min":189,"x_max":663,"o":"m 189 382 l 208 478 l 368 478 l 438 838 q 363 783 416 806 q 267 760 310 760 l 287 864 q 389 890 337 864 q 468 956 441 917 l 606 956 l 513 478 l 663 478 l 644 382 l 189 382 z "},"²":{"ha":833,"x_min":191,"x_max":732,"o":"m 191 382 l 210 478 q 425 657 273 572 q 538 735 504 702 q 573 812 573 769 q 519 863 573 863 q 429 785 452 863 l 275 789 q 373 917 302 870 q 539 964 444 964 q 682 930 631 964 q 732 831 732 896 q 572 619 732 709 q 443 541 476 565 q 392 492 409 517 l 680 492 l 659 382 l 191 382 z "},"³":{"ha":833,"x_min":212,"x_max":727,"o":"m 425 374 q 267 410 321 374 q 212 523 212 447 q 213 539 212 535 l 365 549 l 364 540 q 441 475 364 475 q 514 502 488 475 q 540 568 540 528 q 441 625 540 625 l 397 625 l 416 725 l 457 725 q 544 749 514 725 q 574 813 573 773 q 513 863 574 863 q 456 845 480 863 q 422 791 432 827 l 276 801 q 370 921 300 878 q 537 964 439 964 q 677 930 627 964 q 727 840 727 897 q 689 738 727 783 q 576 678 651 693 l 576 677 q 663 640 637 669 q 689 570 689 611 q 657 471 689 517 q 566 399 625 424 q 425 374 507 374 z "},"½":{"ha":833,"x_min":16,"x_max":826,"o":"m 219 786 q 181 754 206 767 q 124 732 156 741 q 71 724 92 724 l 93 836 q 180 859 132 836 q 251 915 227 881 l 374 915 l 273 399 l 144 399 l 219 786 m 126 0 l 16 0 l 694 915 l 804 915 l 126 0 m 375 1 l 394 98 q 470 184 426 146 q 578 258 513 222 q 664 317 638 292 q 696 374 690 342 l 699 399 q 654 436 697 436 q 604 418 624 436 q 571 356 584 400 l 450 363 q 534 485 478 446 q 673 524 590 524 q 788 495 751 524 q 826 412 826 465 l 823 378 q 792 305 814 336 q 738 248 769 273 q 618 176 706 223 q 526 104 545 136 l 763 104 l 743 1 l 375 1 z "},"¼":{"ha":833,"x_min":26,"x_max":814,"o":"m 218 786 q 180 754 205 767 q 123 732 155 741 q 71 724 91 724 l 92 836 q 179 859 132 836 q 250 915 227 881 l 373 915 l 273 399 l 143 399 l 218 786 m 136 0 l 26 0 l 705 915 l 814 915 l 136 0 m 701 110 l 680 1 l 550 1 l 571 110 l 340 110 l 359 211 l 637 517 l 780 517 l 721 212 l 777 212 l 756 110 l 701 110 m 634 411 q 601 367 623 395 q 562 316 580 339 q 471 212 544 293 l 591 212 l 617 347 q 634 411 625 383 z "},"¾":{"ha":833,"x_min":42,"x_max":865,"o":"m 211 386 q 84 422 125 386 q 42 541 42 458 l 42 543 l 184 561 q 184 545 184 549 q 231 479 184 479 q 285 507 267 479 q 302 567 302 534 q 284 605 302 593 q 221 616 265 616 l 193 616 l 210 705 l 235 705 q 292 715 271 705 q 323 749 313 725 q 334 800 334 773 q 299 835 334 835 q 254 816 269 835 q 229 760 239 797 l 98 768 q 178 884 124 846 q 320 923 232 923 q 432 894 393 923 q 471 814 471 865 q 353 667 471 708 l 352 663 q 437 567 437 644 l 434 538 q 362 427 421 469 q 211 386 304 386 m 188 0 l 78 0 l 756 915 l 865 915 l 188 0 m 727 110 l 706 1 l 576 1 l 597 110 l 366 110 l 386 211 l 663 517 l 806 517 l 747 212 l 803 212 l 783 110 l 727 110 m 661 411 q 628 367 649 395 q 588 316 606 339 q 498 212 570 293 l 618 212 l 644 347 q 661 411 651 383 z "},"₣":{"ha":833,"x_min":-12,"x_max":874,"o":"m 393 774 l 348 546 l 780 546 l 753 405 l 321 405 l 296 276 l 509 276 l 489 175 l 276 175 l 242 0 l 49 0 l 83 175 l -12 175 l 7 276 l 102 276 l 227 915 l 874 915 l 847 774 l 393 774 z "},"Ğ":{"ha":833,"x_min":57,"x_max":812,"o":"m 357 -14 q 134 72 210 -14 q 57 312 57 157 q 94 550 57 421 q 192 763 131 680 q 340 887 253 846 q 542 929 428 929 q 728 867 663 929 q 806 675 793 804 l 613 638 q 513 772 602 772 q 381 717 434 772 q 294 543 328 663 q 261 328 261 422 q 398 146 261 146 q 478 161 435 146 q 549 197 521 176 l 580 356 l 394 356 l 422 504 l 791 504 l 718 125 q 357 -14 527 -14 m 534 968 q 382 1009 433 968 q 330 1128 330 1051 q 332 1156 330 1149 l 442 1156 l 442 1149 q 555 1074 442 1074 q 649 1094 615 1074 q 701 1156 683 1114 l 812 1156 q 534 968 752 968 z "},"ğ":{"ha":833,"x_min":24,"x_max":827,"o":"m 290 -294 q 95 -242 163 -294 q 24 -97 26 -191 l 220 -75 q 248 -144 221 -119 q 319 -170 275 -170 q 496 25 457 -170 l 520 143 l 519 143 q 407 40 472 72 q 270 8 342 8 q 123 68 174 8 q 72 243 72 129 q 99 431 72 331 q 173 601 125 530 q 284 709 220 672 q 428 745 349 745 q 548 711 500 745 q 610 616 595 677 l 614 616 q 646 734 636 710 l 827 734 l 811 665 l 790 564 l 684 22 q 552 -214 654 -133 q 290 -294 450 -294 m 576 469 q 548 575 576 536 q 470 614 520 614 q 367 567 411 614 q 298 432 323 519 q 273 276 273 344 q 376 140 273 140 q 481 188 435 140 q 551 318 527 235 q 576 469 576 401 m 494 802 q 342 844 393 802 q 290 963 290 886 q 292 991 290 983 l 402 991 l 402 984 q 515 909 402 909 q 609 928 575 909 q 661 991 643 948 l 772 991 q 494 802 712 802 z "},"İ":{"ha":833,"x_min":35,"x_max":834,"o":"m 213 915 l 834 915 l 804 760 l 590 760 l 472 155 l 686 155 l 656 0 l 35 0 l 65 155 l 279 155 l 397 760 l 183 760 l 213 915 m 437 964 l 465 1104 l 656 1104 l 628 964 l 437 964 z "},"Ş":{"ha":833,"x_min":3,"x_max":827,"o":"m 340 -14 q 94 54 181 -14 q 3 249 7 121 l 201 274 q 247 173 205 210 q 375 136 289 136 q 486 152 442 136 q 553 201 530 168 q 576 273 576 234 q 444 380 576 345 q 239 448 293 418 q 155 519 184 477 q 125 620 125 562 q 151 737 125 680 q 231 838 176 793 q 361 905 285 882 q 526 929 437 929 q 752 869 678 929 q 827 683 826 809 l 629 663 q 495 787 623 787 q 402 772 440 787 q 345 727 364 757 q 325 664 325 697 q 341 618 325 637 q 384 587 357 600 q 498 551 412 574 q 668 489 612 520 q 749 415 723 458 q 776 318 776 372 q 723 150 776 229 q 571 29 670 71 q 340 -14 473 -14 m 224 -302 q 157 -298 193 -302 l 172 -218 q 228 -222 194 -222 q 332 -166 332 -222 q 316 -139 332 -149 q 256 -129 301 -129 q 221 -130 231 -129 l 293 0 l 390 0 l 349 -69 q 457 -150 457 -76 q 432 -227 457 -191 q 353 -282 407 -263 q 224 -302 300 -302 z "},"ş":{"ha":833,"x_min":46,"x_max":768,"o":"m 347 -14 q 123 35 195 -14 q 46 183 52 83 l 219 208 q 253 134 222 156 q 371 113 284 113 q 492 133 452 113 q 541 197 532 153 l 542 212 q 515 257 542 239 q 429 288 489 275 q 243 338 294 315 q 165 395 192 360 q 138 480 138 429 q 181 620 138 557 q 305 715 224 682 q 496 748 386 748 q 697 697 627 748 q 768 550 766 646 l 595 532 q 567 600 595 579 q 471 621 539 621 q 366 604 404 621 q 321 546 329 587 l 319 532 q 343 491 319 507 q 419 465 368 475 l 492 447 q 631 404 587 427 q 700 346 676 380 q 724 262 724 312 q 677 118 724 181 q 546 20 631 54 q 347 -14 460 -14 m 231 -302 q 163 -298 200 -302 l 179 -218 q 235 -222 201 -222 q 338 -166 338 -222 q 323 -139 338 -149 q 263 -129 308 -129 q 228 -130 237 -129 l 300 0 l 397 0 l 356 -69 q 464 -150 464 -76 q 439 -227 464 -191 q 360 -282 414 -263 q 231 -302 307 -302 z "},"Ć":{"ha":833,"x_min":56,"x_max":837,"o":"m 262 330 q 404 144 262 144 q 599 309 515 144 l 777 274 q 371 -14 629 -14 q 136 67 215 -14 q 56 304 56 147 q 73 462 56 378 q 549 929 165 929 q 834 665 803 929 l 641 621 q 604 732 635 693 q 521 772 572 772 q 385 714 441 772 q 295 541 328 656 q 262 330 262 427 m 455 968 l 459 989 l 662 1154 l 837 1154 l 831 1125 l 570 968 l 455 968 z "},"ć":{"ha":833,"x_min":63,"x_max":785,"o":"m 349 -14 q 137 56 211 -14 q 63 256 63 126 q 94 443 63 347 q 183 607 125 538 q 322 712 241 676 q 500 747 403 747 q 701 683 629 747 q 773 506 773 618 l 773 503 l 579 493 l 580 506 q 555 585 580 553 q 471 616 530 616 q 361 571 406 616 q 290 432 317 525 q 263 261 263 339 q 376 117 263 117 q 474 151 430 117 q 539 253 517 185 l 728 244 q 650 111 705 170 q 517 19 595 52 q 349 -14 439 -14 m 403 803 l 407 824 l 610 989 l 785 989 l 779 960 l 518 803 l 403 803 z "},"Č":{"ha":833,"x_min":56,"x_max":834,"o":"m 262 330 q 404 144 262 144 q 599 309 515 144 l 777 274 q 371 -14 629 -14 q 136 67 215 -14 q 56 304 56 147 q 73 462 56 378 q 549 929 165 929 q 834 665 803 929 l 641 621 q 604 732 635 693 q 521 772 572 772 q 385 714 441 772 q 295 541 328 656 q 262 330 262 427 m 625 968 l 470 968 l 328 1137 l 332 1156 l 440 1156 l 566 1065 l 568 1065 l 724 1156 l 831 1156 l 827 1137 l 625 968 z "},"č":{"ha":833,"x_min":63,"x_max":785,"o":"m 349 -14 q 137 56 211 -14 q 63 256 63 126 q 94 443 63 347 q 183 607 125 538 q 322 712 241 676 q 500 747 403 747 q 701 683 629 747 q 773 506 773 618 l 773 503 l 579 493 l 580 506 q 555 585 580 553 q 471 616 530 616 q 361 571 406 616 q 290 432 317 525 q 263 261 263 339 q 376 117 263 117 q 474 151 430 117 q 539 253 517 185 l 728 244 q 650 111 705 170 q 517 19 595 52 q 349 -14 439 -14 m 579 802 l 424 802 l 281 971 l 286 991 l 394 991 l 519 900 l 522 900 l 677 991 l 785 991 l 781 971 l 579 802 z "},"đ":{"ha":833,"x_min":47,"x_max":926,"o":"m 904 800 l 814 800 l 690 160 q 664 0 682 120 l 479 0 l 479 5 q 484 60 479 20 q 492 119 489 100 l 490 119 q 385 19 444 52 q 250 -14 326 -14 q 99 50 152 -14 q 47 229 47 113 q 74 413 47 313 q 148 583 101 513 q 258 688 194 652 q 401 724 321 724 q 521 691 474 724 q 583 595 568 657 l 585 595 l 623 800 l 432 800 l 454 915 l 646 915 l 663 1006 l 854 1006 l 836 915 l 926 915 l 904 800 m 551 456 q 524 559 551 524 q 443 595 496 595 q 339 549 381 595 q 272 412 297 503 q 248 250 248 321 q 349 117 248 117 q 468 181 418 117 q 541 359 519 246 q 551 456 551 414 z "},"¯":{"ha":833,"x_min":117,"x_max":969,"o":"m 117 985 l 130 1050 l 969 1050 l 956 985 l 117 985 z "},"·":{"ha":833,"x_min":302,"x_max":538,"o":"m 302 283 l 342 490 l 538 490 l 498 283 l 302 283 z "},"Ă":{"ha":833,"x_min":-71,"x_max":810,"o":"m 762 0 l 563 0 l 544 224 l 235 224 l 129 0 l -71 0 l 407 915 l 640 915 l 762 0 m 500 791 q 468 718 489 764 q 306 374 448 671 l 531 374 l 508 632 l 500 768 l 500 791 m 532 968 q 380 1009 431 968 q 328 1128 328 1051 q 330 1156 328 1149 l 440 1156 l 440 1149 q 553 1074 440 1074 q 647 1094 613 1074 q 699 1156 681 1114 l 810 1156 q 532 968 750 968 z "},"ă":{"ha":833,"x_min":35,"x_max":765,"o":"m 224 -14 q 84 28 133 -14 q 35 151 35 71 q 41 208 35 177 q 370 442 87 439 l 522 445 l 528 482 q 535 539 535 515 q 456 624 535 624 q 379 600 408 624 q 334 520 351 575 l 137 530 q 488 747 214 747 q 666 698 605 747 q 726 553 726 649 q 719 483 726 522 l 667 217 q 660 159 660 180 q 670 121 660 134 q 707 109 681 109 q 749 113 728 109 l 730 9 q 698 2 712 5 q 670 -3 684 -1 q 640 -7 656 -5 q 604 -8 625 -8 q 511 20 540 -8 q 483 103 483 48 l 484 131 l 480 131 q 360 20 422 54 q 224 -14 298 -14 m 500 340 l 410 338 q 304 319 338 337 q 255 263 271 302 q 239 186 239 225 q 304 119 239 119 q 425 173 370 119 q 494 302 479 226 l 500 340 m 487 802 q 335 844 387 802 q 283 963 283 886 q 285 991 283 983 l 395 991 l 395 984 q 509 909 395 909 q 602 928 568 909 q 654 991 636 948 l 765 991 q 487 802 705 802 z "},"Ą":{"ha":833,"x_min":-71,"x_max":762,"o":"m 762 0 l 563 0 l 544 224 l 235 224 l 129 0 l -71 0 l 407 915 l 640 915 l 762 0 m 500 791 q 468 718 489 764 q 306 374 448 671 l 531 374 l 508 632 l 500 768 l 500 791 m 604 -281 q 505 -254 543 -281 q 467 -174 467 -227 q 507 -63 467 -117 q 610 22 547 -9 l 713 22 q 628 -55 660 -9 q 597 -136 597 -101 q 608 -169 597 -154 q 650 -184 619 -184 q 729 -165 687 -184 l 711 -258 q 604 -281 665 -281 z "},"ą":{"ha":833,"x_min":35,"x_max":749,"o":"m 224 -14 q 84 28 133 -14 q 35 151 35 71 q 41 208 35 177 q 370 442 87 439 l 522 445 l 528 482 q 535 539 535 515 q 456 624 535 624 q 379 600 408 624 q 334 520 351 575 l 137 530 q 488 747 214 747 q 666 698 605 747 q 726 553 726 649 q 719 483 726 522 l 667 217 q 660 159 660 180 q 670 121 660 134 q 707 109 681 109 q 749 113 728 109 l 730 9 q 698 2 712 5 q 670 -3 684 -1 q 640 -7 656 -5 q 604 -8 625 -8 q 511 20 540 -8 q 483 103 483 48 l 484 131 l 480 131 q 360 20 422 54 q 224 -14 298 -14 m 500 340 l 410 338 q 304 319 338 337 q 255 263 271 302 q 239 186 239 225 q 304 119 239 119 q 425 173 370 119 q 494 302 479 226 l 500 340 m 564 -288 q 465 -261 503 -288 q 427 -182 427 -235 q 467 -71 427 -125 q 570 14 507 -16 l 673 14 q 588 -63 620 -17 q 557 -144 557 -109 q 568 -176 557 -161 q 610 -191 579 -191 q 689 -173 647 -191 l 671 -266 q 564 -288 625 -288 z "},"Ď":{"ha":833,"x_min":20,"x_max":813,"o":"m 306 0 l 20 0 l 198 915 l 443 915 q 813 603 813 915 q 777 377 813 498 q 674 171 740 256 q 514 43 608 87 q 306 0 420 0 m 609 576 q 559 717 609 673 q 410 760 509 760 l 368 760 l 250 155 l 319 155 q 597 465 536 155 q 609 576 609 528 m 593 968 l 438 968 l 296 1137 l 300 1156 l 408 1156 l 534 1065 l 536 1065 l 692 1156 l 800 1156 l 795 1137 l 593 968 z "},"ď":{"ha":833,"x_min":5,"x_max":959,"o":"m 363 0 l 363 5 q 368 60 363 20 q 376 119 372 100 l 373 119 q 278 20 328 53 q 167 -14 229 -14 q 47 49 90 -14 q 5 227 5 112 q 48 477 5 349 q 164 676 92 606 q 322 746 235 746 q 471 616 439 746 l 473 616 l 494 737 l 547 1006 l 730 1006 l 566 160 q 541 0 558 120 l 363 0 m 439 485 q 419 581 439 546 q 365 616 399 616 q 282 561 321 616 q 221 407 244 505 q 198 241 198 309 q 216 148 198 179 q 266 117 234 117 q 328 147 296 117 q 385 233 359 177 q 426 370 410 290 q 439 485 439 437 m 736 766 l 741 788 l 802 1006 l 959 1006 l 954 981 l 830 766 l 736 766 z "},"Đ":{"ha":833,"x_min":13,"x_max":822,"o":"m 315 0 l 29 0 l 104 382 l 13 382 l 41 531 l 132 531 l 207 915 l 452 915 q 822 603 822 915 q 785 377 822 498 q 683 171 749 256 q 523 43 616 87 q 315 0 429 0 m 618 576 q 568 717 618 673 q 418 760 518 760 l 377 760 l 332 531 l 473 531 l 444 382 l 304 382 l 259 155 l 328 155 q 606 465 545 155 q 618 576 618 528 z "},"Ę":{"ha":833,"x_min":22,"x_max":856,"o":"m 22 0 l 199 915 l 856 915 l 826 760 l 370 760 l 327 541 l 742 541 l 712 386 l 297 386 l 252 155 l 736 155 l 706 0 l 22 0 m 543 -288 q 443 -261 481 -288 q 406 -182 406 -235 q 445 -71 406 -125 q 548 14 485 -16 l 652 14 q 567 -63 598 -17 q 535 -144 535 -109 q 546 -176 535 -161 q 588 -191 557 -191 q 667 -173 625 -191 l 650 -266 q 543 -288 603 -288 z "},"ę":{"ha":833,"x_min":57,"x_max":773,"o":"m 351 -14 q 134 57 210 -14 q 57 261 57 128 q 86 440 57 347 q 174 604 115 533 q 318 711 234 675 q 501 747 402 747 q 704 674 635 747 q 773 465 773 601 q 760 336 773 405 l 759 330 l 261 330 q 254 263 254 296 q 289 152 254 191 q 385 114 323 114 q 480 136 437 114 q 543 201 522 158 l 720 186 q 567 38 663 90 q 351 -14 471 -14 m 475 627 q 355 580 406 627 q 286 450 304 533 l 597 450 l 600 488 q 566 592 600 557 q 475 627 531 627 m 360 -288 q 261 -261 298 -288 q 223 -182 223 -235 q 263 -71 223 -125 q 366 14 302 -16 l 469 14 q 384 -63 416 -17 q 353 -144 353 -109 q 364 -176 353 -161 q 406 -191 375 -191 q 485 -173 443 -191 l 467 -266 q 360 -288 420 -288 z "},"Ě":{"ha":833,"x_min":22,"x_max":856,"o":"m 22 0 l 199 915 l 856 915 l 826 760 l 370 760 l 327 541 l 742 541 l 712 386 l 297 386 l 252 155 l 736 155 l 706 0 l 22 0 m 621 968 l 466 968 l 323 1137 l 328 1156 l 436 1156 l 562 1065 l 564 1065 l 720 1156 l 827 1156 l 823 1137 l 621 968 z "},"ě":{"ha":833,"x_min":57,"x_max":783,"o":"m 351 -14 q 134 57 210 -14 q 57 261 57 128 q 86 440 57 347 q 174 604 115 533 q 318 711 234 675 q 501 747 402 747 q 704 674 635 747 q 773 465 773 601 q 760 336 773 405 l 759 330 l 261 330 q 254 263 254 296 q 289 152 254 191 q 385 114 323 114 q 480 136 437 114 q 543 201 522 158 l 720 186 q 567 38 663 90 q 351 -14 471 -14 m 475 627 q 355 580 406 627 q 286 450 304 533 l 597 450 l 600 488 q 566 592 600 557 q 475 627 531 627 m 577 802 l 422 802 l 279 971 l 283 991 l 392 991 l 517 900 l 520 900 l 675 991 l 783 991 l 779 971 l 577 802 z "},"Ĺ":{"ha":833,"x_min":72,"x_max":720,"o":"m 72 0 l 250 915 l 450 915 l 302 155 l 720 155 l 690 0 l 72 0 m 300 969 l 304 990 l 507 1155 l 682 1155 l 676 1126 l 415 969 l 300 969 z "},"ĺ":{"ha":833,"x_min":9,"x_max":836,"o":"m 492 129 l 732 129 l 707 0 l 9 0 l 34 129 l 302 129 l 429 786 l 233 786 l 258 915 l 645 915 l 492 129 m 454 970 l 458 991 l 661 1156 l 836 1156 l 830 1127 l 569 970 l 454 970 z "},"Ľ":{"ha":833,"x_min":72,"x_max":853,"o":"m 72 0 l 250 915 l 450 915 l 302 155 l 720 155 l 690 0 l 72 0 m 572 674 l 576 696 l 679 915 l 853 915 l 848 890 l 684 674 l 572 674 z "},"ľ":{"ha":833,"x_min":-24,"x_max":939,"o":"m 459 129 l 699 129 l 673 0 l -24 0 l 1 129 l 269 129 l 414 878 l 218 878 l 242 1006 l 629 1006 l 459 129 m 657 766 l 662 788 l 764 1006 l 939 1006 l 934 981 l 769 766 l 657 766 z "},"Ŀ":{"ha":833,"x_min":72,"x_max":720,"o":"m 72 0 l 250 915 l 450 915 l 302 155 l 720 155 l 690 0 l 72 0 m 453 395 l 481 536 l 671 536 l 644 395 l 453 395 z "},"ŀ":{"ha":833,"x_min":9,"x_max":827,"o":"m 492 129 l 732 129 l 707 0 l 9 0 l 34 129 l 302 129 l 448 878 l 251 878 l 275 1006 l 663 1006 l 492 129 m 609 395 l 637 536 l 827 536 l 800 395 l 609 395 z "},"Ń":{"ha":833,"x_min":20,"x_max":848,"o":"m 436 0 l 309 685 l 300 591 q 281 445 288 480 l 195 0 l 20 0 l 198 915 l 427 915 l 557 212 q 586 459 569 374 l 674 915 l 848 915 l 671 0 l 436 0 m 449 969 l 453 990 l 656 1155 l 831 1155 l 825 1126 l 564 969 l 449 969 z "},"ń":{"ha":833,"x_min":26,"x_max":808,"o":"m 488 0 l 569 420 q 579 506 579 470 q 557 581 579 557 q 489 605 536 605 q 367 547 420 605 q 293 393 313 489 l 216 0 l 26 0 l 136 570 q 163 734 159 682 l 345 734 q 338 674 345 723 q 326 588 332 625 l 328 588 q 595 748 432 748 q 779 563 779 748 q 768 466 779 519 l 677 0 l 488 0 m 427 803 l 431 824 l 633 989 l 808 989 l 803 960 l 542 803 l 427 803 z "},"Ň":{"ha":833,"x_min":20,"x_max":848,"o":"m 436 0 l 309 685 l 300 591 q 281 445 288 480 l 195 0 l 20 0 l 198 915 l 427 915 l 557 212 q 586 459 569 374 l 674 915 l 848 915 l 671 0 l 436 0 m 610 968 l 455 968 l 313 1137 l 317 1156 l 425 1156 l 551 1065 l 553 1065 l 709 1156 l 817 1156 l 812 1137 l 610 968 z "},"ň":{"ha":833,"x_min":26,"x_max":788,"o":"m 488 0 l 569 420 q 579 506 579 470 q 557 581 579 557 q 489 605 536 605 q 367 547 420 605 q 293 393 313 489 l 216 0 l 26 0 l 136 570 q 163 734 159 682 l 345 734 q 338 674 345 723 q 326 588 332 625 l 328 588 q 595 748 432 748 q 779 563 779 748 q 768 466 779 519 l 677 0 l 488 0 m 582 802 l 427 802 l 284 971 l 288 991 l 397 991 l 522 900 l 525 900 l 680 991 l 788 991 l 784 971 l 582 802 z "},"Ő":{"ha":833,"x_min":50,"x_max":945,"o":"m 343 -14 q 124 65 199 -14 q 50 298 50 143 q 85 538 50 410 q 181 753 120 667 q 329 884 242 840 q 526 929 416 929 q 745 852 670 929 q 820 622 820 776 q 785 381 820 511 q 687 164 749 252 q 538 32 625 77 q 343 -14 452 -14 m 616 605 q 496 772 616 772 q 371 711 423 772 q 286 530 318 651 q 254 316 254 410 q 374 144 254 144 q 498 206 446 144 q 584 389 551 268 q 616 605 616 510 m 417 967 l 321 967 l 325 990 l 510 1156 l 669 1156 l 664 1127 l 417 967 m 692 967 l 596 967 l 600 990 l 785 1156 l 945 1156 l 939 1127 l 692 967 z "},"ő":{"ha":833,"x_min":52,"x_max":926,"o":"m 340 -14 q 125 57 199 -14 q 52 260 52 127 q 105 504 52 385 q 258 685 159 623 q 492 747 356 747 q 784 488 784 747 q 771 368 784 436 q 624 86 736 185 q 340 -14 512 -14 m 585 485 q 557 585 585 553 q 469 616 530 616 q 351 572 397 616 q 277 431 304 528 q 250 256 250 334 q 363 117 250 117 q 484 162 437 117 q 558 308 530 208 q 585 485 585 408 m 398 802 l 302 802 l 306 825 l 491 991 l 650 991 l 645 962 l 398 802 m 673 802 l 577 802 l 581 825 l 766 991 l 926 991 l 920 962 l 673 802 z "},"Ŕ":{"ha":833,"x_min":22,"x_max":845,"o":"m 536 0 l 407 349 l 290 349 l 222 0 l 22 0 l 199 915 l 534 915 q 768 862 690 915 q 845 707 845 808 q 830 609 845 660 q 783 515 814 557 q 703 440 751 472 q 601 394 656 409 l 761 0 l 536 0 m 639 667 q 598 739 639 718 q 484 760 558 760 l 370 760 l 320 505 l 439 505 q 635 635 610 505 l 639 667 m 415 969 l 419 990 l 622 1155 l 797 1155 l 791 1126 l 530 969 l 415 969 z "},"ŕ":{"ha":833,"x_min":98,"x_max":805,"o":"m 774 575 q 633 588 701 588 q 450 509 528 588 q 346 297 372 429 l 288 0 l 98 0 l 191 475 q 208 671 208 568 l 205 734 l 389 734 q 393 648 393 681 q 391 579 393 610 l 393 579 q 511 709 445 671 q 667 747 576 747 q 805 736 739 747 l 774 575 m 394 803 l 398 824 l 601 989 l 776 989 l 770 960 l 509 803 l 394 803 z "},"Ř":{"ha":833,"x_min":22,"x_max":845,"o":"m 536 0 l 407 349 l 290 349 l 222 0 l 22 0 l 199 915 l 534 915 q 768 862 690 915 q 845 707 845 808 q 830 609 845 660 q 783 515 814 557 q 703 440 751 472 q 601 394 656 409 l 761 0 l 536 0 m 639 667 q 598 739 639 718 q 484 760 558 760 l 370 760 l 320 505 l 439 505 q 635 635 610 505 l 639 667 m 600 968 l 445 968 l 302 1137 l 307 1156 l 415 1156 l 541 1065 l 543 1065 l 699 1156 l 806 1156 l 802 1137 l 600 968 z "},"ř":{"ha":833,"x_min":98,"x_max":805,"o":"m 774 575 q 633 588 701 588 q 450 509 528 588 q 346 297 372 429 l 288 0 l 98 0 l 191 475 q 208 671 208 568 l 205 734 l 389 734 q 393 648 393 681 q 391 579 393 610 l 393 579 q 511 709 445 671 q 667 747 576 747 q 805 736 739 747 l 774 575 m 595 802 l 440 802 l 298 971 l 302 991 l 410 991 l 536 900 l 538 900 l 694 991 l 802 991 l 798 971 l 595 802 z "},"Ś":{"ha":833,"x_min":3,"x_max":829,"o":"m 340 -14 q 94 54 181 -14 q 3 249 7 121 l 201 274 q 247 173 205 210 q 375 136 289 136 q 486 152 442 136 q 553 201 530 168 q 576 273 576 234 q 444 380 576 345 q 239 448 293 418 q 155 519 184 477 q 125 620 125 562 q 151 737 125 680 q 231 838 176 793 q 361 905 285 882 q 526 929 437 929 q 752 869 678 929 q 827 683 826 809 l 629 663 q 495 787 623 787 q 402 772 440 787 q 345 727 364 757 q 325 664 325 697 q 341 618 325 637 q 384 587 357 600 q 498 551 412 574 q 668 489 612 520 q 749 415 723 458 q 776 318 776 372 q 723 150 776 229 q 571 29 670 71 q 340 -14 473 -14 m 448 969 l 452 990 l 654 1155 l 829 1155 l 824 1126 l 563 969 l 448 969 z "},"ś":{"ha":833,"x_min":46,"x_max":774,"o":"m 347 -14 q 123 35 195 -14 q 46 183 52 83 l 219 208 q 253 134 222 156 q 371 113 284 113 q 492 133 452 113 q 541 197 532 153 l 542 212 q 515 257 542 239 q 429 288 489 275 q 243 338 294 315 q 165 395 192 360 q 138 480 138 429 q 181 620 138 557 q 305 715 224 682 q 496 748 386 748 q 697 697 627 748 q 768 550 766 646 l 595 532 q 567 600 595 579 q 471 621 539 621 q 366 604 404 621 q 321 546 329 587 l 319 532 q 343 491 319 507 q 419 465 368 475 l 492 447 q 631 404 587 427 q 700 346 676 380 q 724 262 724 312 q 677 118 724 181 q 546 20 631 54 q 347 -14 460 -14 m 392 803 l 396 824 l 599 989 l 774 989 l 768 960 l 507 803 l 392 803 z "},"Ţ":{"ha":833,"x_min":118,"x_max":899,"o":"m 593 760 l 446 0 l 245 0 l 393 760 l 118 760 l 148 915 l 899 915 l 869 760 l 593 760 m 137 -307 l 141 -285 l 244 -66 l 418 -66 l 414 -92 l 249 -307 l 137 -307 z "},"ţ":{"ha":833,"x_min":155,"x_max":743,"o":"m 269 605 l 155 605 l 180 734 l 303 734 l 400 925 l 519 925 l 482 734 l 743 734 l 718 605 l 457 605 l 387 245 q 380 189 380 205 q 404 137 380 153 q 481 121 429 121 q 658 139 565 121 l 633 13 q 582 5 607 9 q 529 -2 556 1 q 473 -7 503 -5 q 409 -9 444 -9 q 242 30 299 -9 q 185 152 185 68 q 189 195 185 172 q 269 605 192 218 m 168 -307 l 172 -285 l 275 -66 l 449 -66 l 444 -92 l 279 -307 l 168 -307 z "},"Ť":{"ha":833,"x_min":118,"x_max":899,"o":"m 593 760 l 446 0 l 245 0 l 393 760 l 118 760 l 148 915 l 899 915 l 869 760 l 593 760 m 614 968 l 458 968 l 316 1137 l 320 1156 l 429 1156 l 554 1065 l 557 1065 l 712 1156 l 820 1156 l 816 1137 l 614 968 z "},"ť":{"ha":833,"x_min":81,"x_max":959,"o":"m 195 605 l 81 605 l 106 734 l 229 734 l 326 925 l 446 925 l 408 734 l 669 734 l 644 605 l 383 605 l 313 245 q 306 189 306 205 q 330 137 306 153 q 408 121 355 121 q 584 139 491 121 l 559 13 q 508 5 533 9 q 455 -2 482 1 q 399 -7 429 -5 q 335 -9 370 -9 q 168 30 225 -9 q 111 152 111 68 q 115 195 111 172 q 195 605 118 218 m 677 766 l 682 788 l 785 1006 l 959 1006 l 954 981 l 789 766 l 677 766 z "},"Ů":{"ha":833,"x_min":71,"x_max":852,"o":"m 332 -14 q 134 44 197 -14 q 71 224 71 102 q 86 358 71 283 l 194 915 l 394 915 l 286 360 q 273 249 273 296 q 296 167 273 191 q 368 143 319 143 q 480 194 438 143 q 546 367 522 245 l 652 915 l 852 915 l 747 368 q 607 80 708 174 q 332 -14 505 -14 m 517 886 q 415 915 452 886 q 377 996 377 945 q 401 1074 377 1036 q 470 1135 425 1113 q 570 1156 515 1156 q 673 1128 635 1156 q 711 1047 711 1099 q 686 966 711 1004 q 616 907 661 928 q 517 886 572 886 m 614 1028 q 597 1059 614 1048 q 553 1069 581 1069 q 493 1051 514 1069 q 473 1013 473 1033 q 489 984 473 995 q 534 973 505 973 q 592 989 570 973 q 614 1028 614 1006 z "},"ů":{"ha":833,"x_min":62,"x_max":801,"o":"m 353 734 l 273 322 q 265 244 265 279 q 353 129 265 129 q 466 190 414 129 q 534 340 517 250 l 610 734 l 801 734 l 690 164 q 673 67 681 119 q 664 0 666 16 l 482 0 q 503 146 488 62 l 499 146 q 245 -14 395 -14 q 62 172 62 -14 q 73 268 62 217 l 163 734 l 353 734 m 496 779 q 394 808 431 779 q 356 888 356 838 q 380 967 356 928 q 449 1027 404 1006 q 549 1049 494 1049 q 652 1021 614 1049 q 690 940 690 992 q 665 859 690 897 q 595 800 640 821 q 496 779 551 779 m 593 921 q 576 952 593 941 q 532 962 559 962 q 472 944 493 962 q 452 906 452 926 q 468 877 452 888 q 513 866 484 866 q 571 882 549 866 q 593 921 593 899 z "},"Ű":{"ha":833,"x_min":71,"x_max":920,"o":"m 332 -14 q 134 44 197 -14 q 71 224 71 102 q 86 358 71 283 l 194 915 l 394 915 l 286 360 q 273 249 273 296 q 296 167 273 191 q 368 143 319 143 q 480 194 438 143 q 546 367 522 245 l 652 915 l 852 915 l 747 368 q 607 80 708 174 q 332 -14 505 -14 m 392 967 l 296 967 l 300 990 l 485 1156 l 644 1156 l 639 1127 l 392 967 m 667 967 l 571 967 l 575 990 l 760 1156 l 920 1156 l 914 1127 l 667 967 z "},"ű":{"ha":833,"x_min":62,"x_max":886,"o":"m 353 734 l 273 322 q 265 244 265 279 q 353 129 265 129 q 466 190 414 129 q 534 340 517 250 l 610 734 l 801 734 l 690 164 q 673 67 681 119 q 664 0 666 16 l 482 0 q 503 146 488 62 l 499 146 q 245 -14 395 -14 q 62 172 62 -14 q 73 268 62 217 l 163 734 l 353 734 m 358 802 l 262 802 l 266 825 l 451 991 l 610 991 l 605 962 l 358 802 m 633 802 l 537 802 l 541 825 l 726 991 l 886 991 l 880 962 l 633 802 z "},"Ź":{"ha":833,"x_min":-12,"x_max":850,"o":"m 701 0 l -12 0 l 16 142 l 590 758 l 186 758 l 217 915 l 850 915 l 823 776 l 248 157 l 731 157 l 701 0 m 435 969 l 439 990 l 642 1155 l 817 1155 l 812 1126 l 551 969 l 435 969 z "},"ź":{"ha":833,"x_min":22,"x_max":773,"o":"m 22 0 l 49 135 l 525 596 l 166 596 l 193 734 l 768 734 l 742 597 l 269 139 l 686 139 l 659 0 l 22 0 m 391 803 l 395 824 l 598 989 l 773 989 l 768 960 l 507 803 l 391 803 z "},"Ż":{"ha":833,"x_min":-12,"x_max":850,"o":"m 701 0 l -12 0 l 16 142 l 590 758 l 186 758 l 217 915 l 850 915 l 823 776 l 248 157 l 731 157 l 701 0 m 446 964 l 474 1104 l 665 1104 l 637 964 l 446 964 z "},"ż":{"ha":833,"x_min":22,"x_max":768,"o":"m 22 0 l 49 135 l 525 596 l 166 596 l 193 734 l 768 734 l 742 597 l 269 139 l 686 139 l 659 0 l 22 0 m 415 859 l 443 1000 l 633 1000 l 606 859 l 415 859 z "},"Γ":{"ha":833,"x_min":49,"x_max":882,"o":"m 882 915 l 852 760 l 397 760 l 249 1 l 49 1 l 227 915 l 882 915 z "},"Θ":{"ha":833,"x_min":44,"x_max":826,"o":"m 570 534 l 541 389 l 300 389 l 329 534 l 570 534 m 343 -14 q 121 66 197 -14 q 44 303 44 146 q 78 538 44 413 q 175 750 113 663 q 326 884 237 838 q 526 929 415 929 q 749 851 671 929 q 826 617 826 773 q 791 381 826 507 q 693 166 757 256 q 541 32 629 77 q 343 -14 452 -14 m 628 590 q 593 727 628 682 q 496 772 559 772 q 366 712 423 772 q 276 542 309 652 q 243 331 243 431 q 277 191 243 238 q 374 144 311 144 q 504 206 446 144 q 595 381 562 268 q 628 590 628 495 z "},"Φ":{"ha":833,"x_min":20,"x_max":859,"o":"m 682 539 q 652 637 682 601 q 570 673 623 673 l 557 673 l 479 269 l 496 269 q 589 307 546 269 q 656 411 631 345 q 682 539 682 476 m 264 -7 l 291 134 l 275 134 q 89 205 158 134 q 20 395 20 275 q 47 551 20 472 q 128 688 75 629 q 255 777 181 746 q 414 808 328 808 l 422 808 l 444 922 l 606 922 l 584 808 l 592 808 q 788 744 718 808 q 859 564 859 680 q 830 407 859 485 q 748 266 802 328 q 622 169 694 203 q 469 134 550 134 l 452 134 l 425 -7 l 264 -7 m 195 409 q 224 306 195 342 q 300 269 253 269 l 317 269 l 396 673 l 383 673 q 286 636 330 673 q 219 536 243 600 q 195 409 195 473 z "},"α":{"ha":833,"x_min":32,"x_max":904,"o":"m 536 161 q 409 27 475 68 q 259 -14 343 -14 q 32 224 32 -14 q 47 363 32 286 q 425 747 123 747 q 568 703 513 747 q 641 574 624 659 l 643 574 q 724 734 677 661 l 904 734 q 801 563 856 669 q 720 377 745 456 q 714 248 714 311 q 739 0 714 115 l 556 0 q 539 161 539 77 l 536 161 m 232 235 q 254 145 232 174 q 322 117 276 117 q 438 185 382 117 q 530 368 495 254 l 532 422 q 504 567 532 517 q 424 616 477 616 q 323 568 363 616 q 258 413 284 521 q 232 235 232 306 z "},"δ":{"ha":833,"x_min":35,"x_max":858,"o":"m 580 395 q 494 612 580 507 q 353 532 412 585 q 264 406 294 479 q 233 260 233 333 q 266 155 233 191 q 360 119 299 119 q 477 155 428 119 q 553 259 527 190 q 580 395 580 328 m 591 878 l 492 882 l 672 684 q 751 564 723 627 q 779 422 779 501 q 770 328 779 372 q 691 150 750 227 q 541 29 632 72 q 338 -14 449 -14 q 113 53 191 -14 q 35 242 35 120 q 43 326 35 278 q 431 694 95 585 l 260 907 l 279 1006 l 858 1006 l 833 878 l 591 878 z "},"ε":{"ha":833,"x_min":53,"x_max":806,"o":"m 378 114 q 506 141 441 114 q 629 220 571 169 l 722 125 q 347 -14 558 -14 q 131 33 208 -14 q 53 163 53 79 q 88 270 53 224 q 183 344 123 315 q 313 378 243 373 l 314 380 q 193 427 241 387 q 144 524 144 467 q 192 637 144 585 q 325 718 239 689 q 519 747 412 747 q 806 619 729 747 l 667 536 q 596 602 643 578 q 493 626 550 626 q 370 599 415 626 q 326 529 326 572 q 584 442 326 442 l 560 322 q 334 290 414 322 q 253 194 254 258 q 283 137 253 161 q 378 114 313 114 z "},"σ":{"ha":833,"x_min":41,"x_max":899,"o":"m 338 -14 q 118 55 195 -14 q 41 253 41 123 q 75 438 41 345 q 174 600 108 532 q 334 700 239 667 q 545 734 428 734 l 899 734 l 874 605 l 783 605 l 700 609 l 699 606 q 763 388 763 499 q 710 184 763 279 q 560 38 658 90 q 338 -14 463 -14 m 572 444 q 544 605 572 532 l 507 605 q 401 578 452 605 q 313 501 350 551 q 259 387 277 451 q 242 262 242 322 q 272 153 242 189 q 359 117 302 117 q 471 158 422 117 q 546 276 519 199 q 572 444 572 353 z "},"τ":{"ha":833,"x_min":128,"x_max":797,"o":"m 304 605 q 198 597 249 605 q 128 580 147 589 l 155 714 q 210 728 174 722 q 282 734 245 734 l 797 734 l 772 605 l 538 605 l 462 212 q 458 176 458 191 q 476 132 458 143 q 528 120 494 120 q 600 125 556 120 l 575 1 q 510 -9 553 -5 q 439 -14 467 -14 q 302 17 345 -14 q 259 115 259 49 q 265 170 259 140 l 349 605 l 304 605 z "},"φ":{"ha":833,"x_min":16,"x_max":821,"o":"m 358 -288 l 210 -288 l 264 -14 q 80 60 143 -8 q 16 250 16 127 q 40 418 16 330 q 109 574 64 507 q 219 685 153 642 q 380 750 286 728 l 370 629 q 271 564 314 615 q 202 427 228 512 q 176 262 176 341 q 288 113 176 121 l 359 476 q 457 680 385 610 q 640 749 528 749 q 773 685 726 749 q 821 508 821 622 q 794 321 821 419 q 712 149 766 223 q 582 34 658 74 q 412 -12 505 -7 l 358 -288 m 665 526 q 614 631 665 631 q 549 594 575 631 q 507 474 523 557 l 436 113 q 559 170 509 116 q 637 330 608 224 q 665 526 665 437 z "},"‗":{"ha":833,"x_min":-131,"x_max":749,"o":"m -104 -149 l -91 -84 l 749 -84 l 736 -149 l -104 -149 m -131 -288 l -118 -223 l 722 -223 l 709 -288 l -131 -288 z "},"‼":{"ha":833,"x_min":52,"x_max":816,"o":"m 286 289 l 130 289 l 230 915 l 429 915 l 286 289 m 52 0 l 87 183 l 283 183 l 248 0 l 52 0 m 673 289 l 517 289 l 616 915 l 816 915 l 673 289 m 439 0 l 474 183 l 669 183 l 634 0 l 439 0 z "},"ⁿ":{"ha":833,"x_min":222,"x_max":690,"o":"m 506 352 l 557 612 q 562 662 562 642 q 549 705 562 692 q 505 717 535 717 q 431 684 463 717 q 389 590 400 652 l 342 352 l 222 352 l 289 699 l 304 793 l 417 793 q 408 718 417 770 l 410 718 q 474 778 438 755 q 568 801 511 801 q 660 776 629 801 q 690 697 690 751 q 684 646 690 674 l 627 352 l 506 352 z "},"₧":{"ha":833,"x_min":-41,"x_max":807,"o":"m 196 444 l 168 444 l 82 0 l -41 0 l 137 915 l 279 915 q 464 755 464 915 q 429 602 464 677 q 334 485 395 526 q 196 444 273 444 m 618 -7 q 541 22 570 -7 q 513 102 513 52 l 513 111 l 595 122 q 633 62 595 62 q 661 76 650 62 q 674 102 671 89 l 676 118 q 629 191 676 153 q 573 252 587 226 q 559 306 559 278 q 603 408 559 366 q 712 450 646 450 q 781 422 755 450 q 807 349 807 394 q 806 336 807 340 l 724 328 l 724 335 q 717 368 724 355 q 697 382 710 382 q 659 343 670 382 l 658 331 q 670 296 658 313 q 713 256 682 279 q 776 148 776 208 q 755 73 776 111 q 698 15 734 36 q 618 -7 662 -7 m 338 732 q 317 792 338 773 q 250 811 296 811 l 239 811 l 188 546 l 204 546 q 276 570 246 546 q 322 642 305 594 q 338 732 338 689 m 303 368 l 317 441 l 371 441 l 430 537 l 492 537 l 473 441 l 562 441 l 548 368 l 459 368 l 411 121 l 409 102 q 440 68 409 68 q 490 73 471 68 l 475 1 q 404 -7 439 -7 q 329 14 355 -7 q 302 75 302 35 l 304 102 l 357 368 l 303 368 z "},"←":{"ha":833,"x_min":5,"x_max":827,"o":"m 157 201 q 237 68 195 156 l 189 68 q 5 218 102 169 l 5 243 q 189 393 102 292 l 237 393 q 157 260 195 305 l 827 260 l 827 201 l 157 201 z "},"↑":{"ha":833,"x_min":254,"x_max":579,"o":"m 387 629 q 254 549 342 591 l 254 597 q 404 781 355 684 l 429 781 q 579 597 478 684 l 579 549 q 446 629 491 591 l 446 -41 l 387 -41 l 387 629 z "},"→":{"ha":833,"x_min":5,"x_max":827,"o":"m 676 260 q 595 393 637 305 l 644 393 q 827 243 730 292 l 827 218 q 644 68 730 169 l 595 68 q 676 201 637 156 l 5 201 l 5 260 l 676 260 z "},"↓":{"ha":833,"x_min":254,"x_max":579,"o":"m 446 110 q 579 191 491 149 l 579 142 q 429 -41 478 56 l 404 -41 q 254 142 355 56 l 254 191 q 387 110 342 149 l 387 781 l 446 781 l 446 110 z "},"↔":{"ha":833,"x_min":5,"x_max":827,"o":"m 157 201 q 237 68 195 156 l 189 68 q 5 218 102 169 l 5 243 q 189 393 102 292 l 237 393 q 157 260 195 305 l 676 260 q 595 393 637 305 l 644 393 q 827 243 730 292 l 827 218 q 644 68 730 169 l 595 68 q 676 201 637 156 l 157 201 z "},"↕":{"ha":833,"x_min":254,"x_max":579,"o":"m 387 629 q 254 549 342 591 l 254 597 q 404 781 355 684 l 429 781 q 579 597 478 684 l 579 549 q 446 629 491 591 l 446 110 q 579 191 491 149 l 579 142 q 429 -41 478 56 l 404 -41 q 254 142 355 56 l 254 191 q 387 110 342 149 l 387 629 z "},"↨":{"ha":833,"x_min":254,"x_max":579,"o":"m 254 -71 l 579 -71 l 579 -125 l 254 -125 l 254 -71 m 387 629 q 254 549 342 591 l 254 597 q 404 781 355 684 l 429 781 q 579 597 478 684 l 579 549 q 446 629 491 591 l 446 110 q 579 191 491 149 l 579 142 q 429 -41 478 56 l 404 -41 q 254 142 355 56 l 254 191 q 387 110 342 149 l 387 629 z "},"∟":{"ha":833,"x_min":35,"x_max":798,"o":"m 35 829 l 99 829 l 99 64 l 798 64 l 798 0 l 35 0 l 35 829 z "},"∩":{"ha":833,"x_min":106,"x_max":727,"o":"m 106 -1 l 106 346 q 145 529 106 448 q 255 655 184 610 q 414 700 326 700 q 575 655 503 700 q 687 528 646 610 q 727 346 727 446 l 727 -1 l 657 -1 l 657 347 q 591 553 657 476 q 416 631 524 631 q 241 554 306 631 q 176 346 176 477 l 176 -1 l 106 -1 z "},"≡":{"ha":833,"x_min":79,"x_max":753,"o":"m 79 648 l 79 749 l 753 749 l 753 648 l 79 648 m 79 165 l 79 266 l 753 266 l 753 165 l 79 165 m 79 407 l 79 507 l 753 507 l 753 407 l 79 407 z "},"⌂":{"ha":833,"x_min":94,"x_max":739,"o":"m 94 0 l 94 431 l 416 734 l 739 431 l 739 0 l 94 0 m 150 58 l 683 58 l 683 405 l 416 656 l 150 405 l 150 58 z "},"⌐":{"ha":833,"x_min":78,"x_max":753,"o":"m 178 412 l 178 122 l 78 122 l 79 511 l 753 511 l 753 412 l 178 412 z "},"⌠":{"ha":833,"x_min":368,"x_max":696,"o":"m 466 -417 l 368 -417 l 368 819 q 423 1066 368 977 q 580 1156 479 1156 q 662 1132 627 1156 q 696 1069 696 1107 q 679 1026 696 1042 q 638 1009 662 1009 q 597 1021 612 1009 q 573 1048 583 1034 q 554 1075 563 1063 q 530 1087 545 1087 q 480 1036 495 1087 q 466 871 466 985 l 466 -417 z "},"⌡":{"ha":833,"x_min":138,"x_max":466,"o":"m 368 1156 l 466 1156 l 466 -79 q 410 -329 466 -240 q 254 -417 353 -417 q 172 -392 206 -417 q 138 -330 138 -368 q 155 -287 138 -303 q 195 -270 172 -270 q 236 -282 222 -270 q 261 -309 251 -294 q 280 -336 271 -323 q 304 -348 289 -348 q 353 -297 338 -348 q 368 -132 368 -245 l 368 1156 z "},"─":{"ha":833,"x_min":-7,"x_max":840,"o":"m -7 376 l -7 475 l 840 475 l 840 376 l -7 376 z "},"│":{"ha":833,"x_min":368,"x_max":466,"o":"m 368 1156 l 466 1156 l 466 -417 l 368 -417 l 368 1156 z "},"┌":{"ha":833,"x_min":368,"x_max":840,"o":"m 368 475 l 840 475 l 840 376 l 466 376 l 466 -417 l 368 -417 l 368 475 z "},"┐":{"ha":833,"x_min":-7,"x_max":466,"o":"m -7 376 l -7 475 l 466 475 l 466 -417 l 368 -417 l 368 376 l -7 376 z "},"└":{"ha":833,"x_min":368,"x_max":840,"o":"m 368 1156 l 466 1156 l 466 475 l 840 475 l 840 376 l 368 376 l 368 1156 z "},"┘":{"ha":833,"x_min":-7,"x_max":466,"o":"m -7 376 l -7 475 l 368 475 l 368 1156 l 466 1156 l 466 376 l -7 376 z "},"├":{"ha":833,"x_min":368,"x_max":840,"o":"m 368 1156 l 466 1156 l 466 475 l 840 475 l 840 376 l 466 376 l 466 -417 l 368 -417 l 368 1156 z "},"┤":{"ha":833,"x_min":-7,"x_max":466,"o":"m -7 376 l -7 475 l 368 475 l 368 1156 l 466 1156 l 466 -417 l 368 -417 l 368 376 l -7 376 z "},"┬":{"ha":833,"x_min":-7,"x_max":840,"o":"m -7 376 l -7 475 l 840 475 l 840 376 l 466 376 l 466 -417 l 368 -417 l 368 376 l -7 376 z "},"┴":{"ha":833,"x_min":-7,"x_max":840,"o":"m -7 376 l -7 475 l 368 475 l 368 1156 l 466 1156 l 466 475 l 840 475 l 840 376 l -7 376 z "},"┼":{"ha":833,"x_min":-7,"x_max":840,"o":"m -7 376 l -7 475 l 368 475 l 368 1156 l 466 1156 l 466 475 l 840 475 l 840 376 l 466 376 l 466 -417 l 368 -417 l 368 376 l -7 376 z "},"═":{"ha":833,"x_min":-7,"x_max":840,"o":"m -7 498 l -7 597 l 840 597 l 840 498 l -7 498 m -7 254 l -7 353 l 840 353 l 840 254 l -7 254 z "},"║":{"ha":833,"x_min":245,"x_max":588,"o":"m 245 1156 l 344 1156 l 344 -417 l 245 -417 l 245 1156 m 490 1156 l 588 1156 l 588 -417 l 490 -417 l 490 1156 z "},"╒":{"ha":833,"x_min":368,"x_max":840,"o":"m 368 597 l 840 597 l 840 498 l 466 498 l 466 353 l 840 353 l 840 254 l 466 254 l 466 -417 l 368 -417 l 368 597 z "},"╓":{"ha":833,"x_min":245,"x_max":840,"o":"m 840 475 l 840 376 l 588 376 l 588 -417 l 490 -417 l 490 376 l 344 376 l 344 -417 l 245 -417 l 245 475 l 840 475 z "},"╔":{"ha":833,"x_min":245,"x_max":840,"o":"m 245 597 l 840 597 l 840 498 l 344 498 l 344 -417 l 245 -417 l 245 597 m 490 353 l 840 353 l 840 254 l 588 254 l 588 -417 l 490 -417 l 490 353 z "},"╕":{"ha":833,"x_min":-7,"x_max":466,"o":"m -7 254 l -7 353 l 368 353 l 368 498 l -7 498 l -7 597 l 466 597 l 466 -417 l 368 -417 l 368 254 l -7 254 z "},"╖":{"ha":833,"x_min":-7,"x_max":588,"o":"m -7 376 l -7 475 l 588 475 l 588 -417 l 490 -417 l 490 376 l 344 376 l 344 -417 l 245 -417 l 245 376 l -7 376 z "},"╗":{"ha":833,"x_min":-7,"x_max":588,"o":"m 588 597 l 588 -417 l 490 -417 l 490 498 l -7 498 l -7 597 l 588 597 m 344 -417 l 245 -417 l 245 254 l -7 254 l -7 353 l 344 353 l 344 -417 z "},"╘":{"ha":833,"x_min":368,"x_max":840,"o":"m 368 1156 l 466 1156 l 466 597 l 840 597 l 840 498 l 466 498 l 466 353 l 840 353 l 840 254 l 368 254 l 368 1156 z "},"╙":{"ha":833,"x_min":245,"x_max":840,"o":"m 490 1156 l 588 1156 l 588 475 l 840 475 l 840 376 l 245 376 l 245 1156 l 344 1156 l 344 475 l 490 475 l 490 1156 z "},"╚":{"ha":833,"x_min":245,"x_max":840,"o":"m 245 1156 l 344 1156 l 344 353 l 840 353 l 840 254 l 245 254 l 245 1156 m 490 1156 l 588 1156 l 588 597 l 840 597 l 840 498 l 490 498 l 490 1156 z "},"╛":{"ha":833,"x_min":-7,"x_max":466,"o":"m -7 254 l -7 353 l 368 353 l 368 498 l -7 498 l -7 597 l 368 597 l 368 1156 l 466 1156 l 466 254 l -7 254 z "},"╜":{"ha":833,"x_min":-7,"x_max":588,"o":"m 588 376 l -7 376 l -7 475 l 245 475 l 245 1156 l 344 1156 l 344 475 l 490 475 l 490 1156 l 588 1156 l 588 376 z "},"╝":{"ha":833,"x_min":-7,"x_max":588,"o":"m 588 254 l -7 254 l -7 353 l 490 353 l 490 1156 l 588 1156 l 588 254 m 245 1156 l 344 1156 l 344 498 l -7 498 l -7 597 l 245 597 l 245 1156 z "},"╞":{"ha":833,"x_min":368,"x_max":840,"o":"m 368 1156 l 466 1156 l 466 597 l 840 597 l 840 498 l 466 498 l 466 353 l 840 353 l 840 254 l 466 254 l 466 -417 l 368 -417 l 368 1156 z "},"╟":{"ha":833,"x_min":245,"x_max":840,"o":"m 490 1156 l 588 1156 l 588 475 l 840 475 l 840 376 l 588 376 l 588 -417 l 490 -417 l 490 1156 m 245 1156 l 344 1156 l 344 -417 l 245 -417 l 245 1156 z "},"╠":{"ha":833,"x_min":245,"x_max":840,"o":"m 344 -417 l 245 -417 l 245 1156 l 344 1156 l 344 -417 m 490 353 l 840 353 l 840 254 l 588 254 l 588 -417 l 490 -417 l 490 353 m 490 1156 l 588 1156 l 588 597 l 840 597 l 840 498 l 490 498 l 490 1156 z "},"╡":{"ha":833,"x_min":-7,"x_max":466,"o":"m -7 254 l -7 353 l 368 353 l 368 498 l -7 498 l -7 597 l 368 597 l 368 1156 l 466 1156 l 466 -417 l 368 -417 l 368 254 l -7 254 z "},"╢":{"ha":833,"x_min":-7,"x_max":588,"o":"m -7 376 l -7 475 l 245 475 l 245 1156 l 344 1156 l 344 -417 l 245 -417 l 245 376 l -7 376 m 490 1156 l 588 1156 l 588 -417 l 490 -417 l 490 1156 z "},"╣":{"ha":833,"x_min":-7,"x_max":588,"o":"m 490 1156 l 588 1156 l 588 -417 l 490 -417 l 490 1156 m 245 1156 l 344 1156 l 344 498 l -7 498 l -7 597 l 245 597 l 245 1156 m 344 -417 l 245 -417 l 245 254 l -7 254 l -7 353 l 344 353 l 344 -417 z "},"╤":{"ha":833,"x_min":-7,"x_max":840,"o":"m -7 254 l -7 353 l 840 353 l 840 254 l 466 254 l 466 -417 l 368 -417 l 368 254 l -7 254 m -7 498 l -7 597 l 840 597 l 840 498 l -7 498 z "},"╥":{"ha":833,"x_min":-7,"x_max":840,"o":"m -7 376 l -7 475 l 840 475 l 840 376 l 588 376 l 588 -417 l 490 -417 l 490 376 l 344 376 l 344 -417 l 245 -417 l 245 376 l -7 376 z "},"╦":{"ha":833,"x_min":-7,"x_max":840,"o":"m 344 -417 l 245 -417 l 245 254 l -7 254 l -7 353 l 344 353 l 344 -417 m 490 353 l 840 353 l 840 254 l 588 254 l 588 -417 l 490 -417 l 490 353 m 840 597 l 840 498 l -7 498 l -7 597 l 840 597 z "},"╧":{"ha":833,"x_min":-7,"x_max":840,"o":"m -7 498 l -7 597 l 368 597 l 368 1156 l 466 1156 l 466 597 l 840 597 l 840 498 l -7 498 m -7 254 l -7 353 l 840 353 l 840 254 l -7 254 z "},"╨":{"ha":833,"x_min":-7,"x_max":840,"o":"m -7 376 l -7 475 l 245 475 l 245 1156 l 344 1156 l 344 475 l 490 475 l 490 1156 l 588 1156 l 588 475 l 840 475 l 840 376 l -7 376 z "},"╩":{"ha":833,"x_min":-7,"x_max":840,"o":"m 490 1156 l 588 1156 l 588 597 l 840 597 l 840 498 l 490 498 l 490 1156 m 245 1156 l 344 1156 l 344 498 l -7 498 l -7 597 l 245 597 l 245 1156 m -7 254 l -7 353 l 840 353 l 840 254 l -7 254 z "},"╪":{"ha":833,"x_min":-7,"x_max":840,"o":"m -7 254 l -7 353 l 368 353 l 368 498 l -7 498 l -7 597 l 368 597 l 368 1156 l 466 1156 l 466 597 l 840 597 l 840 498 l 466 498 l 466 353 l 840 353 l 840 254 l 466 254 l 466 -417 l 368 -417 l 368 254 l -7 254 z "},"╫":{"ha":833,"x_min":-7,"x_max":840,"o":"m 490 1156 l 588 1156 l 588 475 l 840 475 l 840 376 l 588 376 l 588 -417 l 490 -417 l 490 376 l 344 376 l 344 -417 l 245 -417 l 245 376 l -7 376 l -7 475 l 245 475 l 245 1156 l 344 1156 l 344 475 l 490 475 l 490 1156 z "},"╬":{"ha":833,"x_min":-7,"x_max":840,"o":"m 490 1156 l 588 1156 l 588 597 l 840 597 l 840 498 l 490 498 l 490 1156 m 344 -417 l 245 -417 l 245 254 l -7 254 l -7 353 l 344 353 l 344 -417 m 490 353 l 840 353 l 840 254 l 588 254 l 588 -417 l 490 -417 l 490 353 m 245 1156 l 344 1156 l 344 498 l -7 498 l -7 597 l 245 597 l 245 1156 z "},"▀":{"ha":833,"x_min":0,"x_max":833,"o":"m 833 425 l 0 425 l 0 1156 l 833 1156 l 833 425 z "},"▄":{"ha":833,"x_min":0,"x_max":833,"o":"m 833 -417 l 0 -417 l 0 425 l 833 425 l 833 -417 z "},"█":{"ha":833,"x_min":0,"x_max":833,"o":"m 833 -417 l 0 -417 l 0 1156 l 833 1156 l 833 -417 z "},"▌":{"ha":833,"x_min":0,"x_max":417,"o":"m 417 -417 l 0 -417 l 0 1156 l 417 1156 l 417 -417 z "},"▐":{"ha":833,"x_min":416,"x_max":833,"o":"m 833 -417 l 416 -417 l 416 1156 l 833 1156 l 833 -417 z "},"░":{"ha":833,"x_min":0,"x_max":764,"o":"m 0 895 l 70 895 l 70 829 l 0 829 l 0 895 m 278 895 l 348 895 l 348 829 l 278 829 l 278 895 m 556 895 l 626 895 l 626 829 l 556 829 l 556 895 m 139 763 l 208 763 l 208 698 l 139 698 l 139 763 m 417 763 l 486 763 l 486 698 l 417 698 l 417 763 m 695 763 l 764 763 l 764 698 l 695 698 l 695 763 m 0 633 l 70 633 l 70 568 l 0 568 l 0 633 m 278 633 l 348 633 l 348 568 l 278 568 l 278 633 m 556 633 l 626 633 l 626 568 l 556 568 l 556 633 m 139 500 l 208 500 l 208 435 l 139 435 l 139 500 m 417 500 l 486 500 l 486 435 l 417 435 l 417 500 m 695 500 l 764 500 l 764 435 l 695 435 l 695 500 m 0 370 l 70 370 l 70 305 l 0 305 l 0 370 m 278 370 l 348 370 l 348 305 l 278 305 l 278 370 m 556 370 l 626 370 l 626 305 l 556 305 l 556 370 m 417 238 l 486 238 l 486 173 l 417 173 l 417 238 m 695 238 l 764 238 l 764 173 l 695 173 l 695 238 m 139 238 l 208 238 l 208 173 l 139 173 l 139 238 m 556 108 l 626 108 l 626 42 l 556 42 l 556 108 m 278 108 l 348 108 l 348 42 l 278 42 l 278 108 m 0 108 l 70 108 l 70 42 l 0 42 l 0 108 m 139 -24 l 208 -24 l 208 -88 l 139 -88 l 139 -24 m 417 -24 l 486 -24 l 486 -88 l 417 -88 l 417 -24 m 695 -24 l 764 -24 l 764 -88 l 695 -88 l 695 -24 m 556 -155 l 626 -155 l 626 -220 l 556 -220 l 556 -155 m 278 -155 l 348 -155 l 348 -220 l 278 -220 l 278 -155 m 0 -155 l 70 -155 l 70 -220 l 0 -220 l 0 -155 m 139 -286 l 208 -286 l 208 -351 l 139 -351 l 139 -286 m 417 -286 l 486 -286 l 486 -351 l 417 -351 l 417 -286 m 695 -286 l 764 -286 l 764 -351 l 695 -351 l 695 -286 m 139 1025 l 208 1025 l 208 959 l 139 959 l 139 1025 m 417 1025 l 486 1025 l 486 959 l 417 959 l 417 1025 m 695 1025 l 764 1025 l 764 959 l 695 959 l 695 1025 m 0 1156 l 70 1156 l 70 1091 l 0 1091 l 0 1156 m 278 1156 l 348 1156 l 348 1091 l 278 1091 l 278 1156 m 556 1156 l 626 1156 l 626 1091 l 556 1091 l 556 1156 z "},"▒":{"ha":833,"x_min":0,"x_max":834,"o":"m 69 895 l 139 895 l 139 829 l 69 829 l 69 895 m 208 895 l 278 895 l 278 829 l 208 829 l 208 895 m 347 895 l 417 895 l 417 829 l 347 829 l 347 895 m 486 895 l 556 895 l 556 829 l 486 829 l 486 895 m 625 895 l 695 895 l 695 829 l 625 829 l 625 895 m 764 895 l 834 895 l 834 829 l 764 829 l 764 895 m 0 763 l 69 763 l 69 698 l 0 698 l 0 763 m 139 763 l 208 763 l 208 698 l 139 698 l 139 763 m 278 763 l 347 763 l 347 698 l 278 698 l 278 763 m 417 763 l 486 763 l 486 698 l 417 698 l 417 763 m 556 763 l 625 763 l 625 698 l 556 698 l 556 763 m 695 763 l 764 763 l 764 698 l 695 698 l 695 763 m 69 633 l 139 633 l 139 568 l 69 568 l 69 633 m 208 633 l 278 633 l 278 568 l 208 568 l 208 633 m 347 633 l 417 633 l 417 568 l 347 568 l 347 633 m 486 633 l 556 633 l 556 568 l 486 568 l 486 633 m 625 633 l 695 633 l 695 568 l 625 568 l 625 633 m 764 633 l 834 633 l 834 568 l 764 568 l 764 633 m 0 500 l 69 500 l 69 435 l 0 435 l 0 500 m 139 500 l 208 500 l 208 435 l 139 435 l 139 500 m 278 500 l 347 500 l 347 435 l 278 435 l 278 500 m 417 500 l 486 500 l 486 435 l 417 435 l 417 500 m 556 500 l 625 500 l 625 435 l 556 435 l 556 500 m 695 500 l 764 500 l 764 435 l 695 435 l 695 500 m 69 370 l 139 370 l 139 305 l 69 305 l 69 370 m 208 370 l 278 370 l 278 305 l 208 305 l 208 370 m 347 370 l 417 370 l 417 305 l 347 305 l 347 370 m 486 370 l 556 370 l 556 305 l 486 305 l 486 370 m 625 370 l 695 370 l 695 305 l 625 305 l 625 370 m 764 370 l 834 370 l 834 305 l 764 305 l 764 370 m 0 238 l 69 238 l 69 173 l 0 173 l 0 238 m 278 238 l 347 238 l 347 173 l 278 173 l 278 238 m 417 238 l 486 238 l 486 173 l 417 173 l 417 238 m 556 238 l 625 238 l 625 173 l 556 173 l 556 238 m 695 238 l 764 238 l 764 173 l 695 173 l 695 238 m 139 238 l 208 238 l 208 173 l 139 173 l 139 238 m 764 108 l 834 108 l 834 42 l 764 42 l 764 108 m 625 108 l 695 108 l 695 42 l 625 42 l 625 108 m 486 108 l 556 108 l 556 42 l 486 42 l 486 108 m 347 108 l 417 108 l 417 42 l 347 42 l 347 108 m 208 108 l 278 108 l 278 42 l 208 42 l 208 108 m 69 108 l 139 108 l 139 42 l 69 42 l 69 108 m 0 -24 l 69 -24 l 69 -88 l 0 -88 l 0 -24 m 139 -24 l 208 -24 l 208 -88 l 139 -88 l 139 -24 m 278 -24 l 347 -24 l 347 -88 l 278 -88 l 278 -24 m 417 -24 l 486 -24 l 486 -88 l 417 -88 l 417 -24 m 556 -24 l 625 -24 l 625 -88 l 556 -88 l 556 -24 m 695 -24 l 764 -24 l 764 -88 l 695 -88 l 695 -24 m 764 -155 l 834 -155 l 834 -220 l 764 -220 l 764 -155 m 625 -155 l 695 -155 l 695 -220 l 625 -220 l 625 -155 m 486 -155 l 556 -155 l 556 -220 l 486 -220 l 486 -155 m 347 -155 l 417 -155 l 417 -220 l 347 -220 l 347 -155 m 208 -155 l 278 -155 l 278 -220 l 208 -220 l 208 -155 m 69 -155 l 139 -155 l 139 -220 l 69 -220 l 69 -155 m 0 -286 l 69 -286 l 69 -351 l 0 -351 l 0 -286 m 139 -286 l 208 -286 l 208 -351 l 139 -351 l 139 -286 m 278 -286 l 347 -286 l 347 -351 l 278 -351 l 278 -286 m 417 -286 l 486 -286 l 486 -351 l 417 -351 l 417 -286 m 556 -286 l 625 -286 l 625 -351 l 556 -351 l 556 -286 m 695 -286 l 764 -286 l 764 -351 l 695 -351 l 695 -286 m 0 1025 l 69 1025 l 69 959 l 0 959 l 0 1025 m 139 1025 l 208 1025 l 208 959 l 139 959 l 139 1025 m 278 1025 l 347 1025 l 347 959 l 278 959 l 278 1025 m 417 1025 l 486 1025 l 486 959 l 417 959 l 417 1025 m 556 1025 l 625 1025 l 625 959 l 556 959 l 556 1025 m 695 1025 l 764 1025 l 764 959 l 695 959 l 695 1025 m 69 1156 l 139 1156 l 139 1091 l 69 1091 l 69 1156 m 208 1156 l 278 1156 l 278 1091 l 208 1091 l 208 1156 m 347 1156 l 417 1156 l 417 1091 l 347 1091 l 347 1156 m 486 1156 l 556 1156 l 556 1091 l 486 1091 l 486 1156 m 625 1156 l 695 1156 l 695 1091 l 625 1091 l 625 1156 m 764 1156 l 834 1156 l 834 1091 l 764 1091 l 764 1156 z "},"▓":{"ha":833,"x_min":0,"x_max":834,"o":"m 834 -417 l 0 -417 l 0 -220 l 69 -220 l 69 -155 l 0 -155 l 0 42 l 69 42 l 69 108 l 0 108 l 0 305 l 69 305 l 69 370 l 0 370 l 0 566 l 69 566 l 69 633 l 0 633 l 0 829 l 69 829 l 69 895 l 0 895 l 0 1091 l 69 1091 l 69 1156 l 139 1156 l 139 1091 l 208 1091 l 208 1156 l 278 1156 l 278 1091 l 347 1091 l 347 1156 l 417 1156 l 417 1091 l 486 1091 l 486 1156 l 556 1156 l 556 1091 l 625 1091 l 625 1156 l 695 1156 l 695 1091 l 764 1091 l 764 1156 l 834 1156 l 834 1025 l 764 1025 l 764 959 l 834 959 l 834 763 l 764 763 l 764 698 l 834 698 l 834 500 l 764 500 l 764 435 l 834 435 l 834 238 l 764 238 l 764 173 l 834 173 l 834 -24 l 764 -24 l 764 -88 l 834 -88 l 834 -286 l 764 -286 l 764 -351 l 834 -351 l 834 -417 m 69 763 l 69 698 l 139 698 l 139 763 l 69 763 m 208 763 l 208 698 l 278 698 l 278 763 l 208 763 m 347 763 l 347 698 l 417 698 l 417 763 l 347 763 m 486 763 l 486 698 l 556 698 l 556 763 l 486 763 m 625 633 l 556 633 l 556 566 l 625 566 l 625 633 m 486 633 l 417 633 l 417 566 l 486 566 l 486 633 m 347 633 l 278 633 l 278 566 l 347 566 l 347 633 m 208 633 l 139 633 l 139 566 l 208 566 l 208 633 m 69 500 l 69 435 l 139 435 l 139 500 l 69 500 m 208 500 l 208 435 l 278 435 l 278 500 l 208 500 m 347 500 l 347 435 l 417 435 l 417 500 l 347 500 m 486 500 l 486 435 l 556 435 l 556 500 l 486 500 m 208 370 l 139 370 l 139 305 l 208 305 l 208 370 m 278 370 l 278 305 l 347 305 l 347 370 l 278 370 m 417 370 l 417 305 l 486 305 l 486 370 l 417 370 m 556 370 l 556 305 l 625 305 l 625 370 l 556 370 m 69 238 l 69 173 l 139 173 l 139 238 l 69 238 m 347 238 l 347 173 l 417 173 l 417 238 l 347 238 m 278 173 l 278 238 l 208 238 l 208 173 l 278 173 m 486 238 l 486 173 l 556 173 l 556 238 l 486 238 m 625 42 l 625 108 l 556 108 l 556 42 l 625 42 m 486 42 l 486 108 l 417 108 l 417 42 l 486 42 m 347 42 l 347 108 l 278 108 l 278 42 l 347 42 m 208 42 l 208 108 l 139 108 l 139 42 l 208 42 m 69 -24 l 69 -88 l 139 -88 l 139 -24 l 69 -24 m 208 -24 l 208 -88 l 278 -88 l 278 -24 l 208 -24 m 347 -24 l 347 -88 l 417 -88 l 417 -24 l 347 -24 m 486 -24 l 486 -88 l 556 -88 l 556 -24 l 486 -24 m 625 -220 l 625 -155 l 556 -155 l 556 -220 l 625 -220 m 486 -220 l 486 -155 l 417 -155 l 417 -220 l 486 -220 m 347 -220 l 347 -155 l 278 -155 l 278 -220 l 347 -220 m 208 -220 l 208 -155 l 139 -155 l 139 -220 l 208 -220 m 69 -286 l 69 -351 l 139 -351 l 139 -286 l 69 -286 m 208 -286 l 208 -351 l 278 -351 l 278 -286 l 208 -286 m 347 -286 l 347 -351 l 417 -351 l 417 -286 l 347 -286 m 486 -286 l 486 -351 l 556 -351 l 556 -286 l 486 -286 m 625 895 l 556 895 l 556 829 l 625 829 l 625 895 m 486 895 l 417 895 l 417 829 l 486 829 l 486 895 m 347 895 l 278 895 l 278 829 l 347 829 l 347 895 m 208 895 l 139 895 l 139 829 l 208 829 l 208 895 m 556 1025 l 486 1025 l 486 959 l 556 959 l 556 1025 m 417 1025 l 347 1025 l 347 959 l 417 959 l 417 1025 m 278 1025 l 208 1025 l 208 959 l 278 959 l 278 1025 m 139 1025 l 69 1025 l 69 959 l 139 959 l 139 1025 m 625 763 l 625 698 l 695 698 l 695 763 l 625 763 m 764 633 l 695 633 l 695 566 l 764 566 l 764 633 m 625 500 l 625 435 l 695 435 l 695 500 l 625 500 m 695 370 l 695 305 l 764 305 l 764 370 l 695 370 m 625 238 l 625 173 l 695 173 l 695 238 l 625 238 m 764 42 l 764 108 l 695 108 l 695 42 l 764 42 m 625 -24 l 625 -88 l 695 -88 l 695 -24 l 625 -24 m 764 -220 l 764 -155 l 695 -155 l 695 -220 l 764 -220 m 625 -286 l 625 -351 l 695 -351 l 695 -286 l 625 -286 m 764 895 l 695 895 l 695 829 l 764 829 l 764 895 m 695 1025 l 625 1025 l 625 959 l 695 959 l 695 1025 z "},"■":{"ha":833,"x_min":81,"x_max":753,"o":"m 81 751 l 753 751 l 753 79 l 81 79 l 81 751 z "},"▬":{"ha":833,"x_min":5,"x_max":828,"o":"m 5 370 l 828 370 l 828 47 l 5 47 l 5 370 z "},"▲":{"ha":833,"x_min":10,"x_max":823,"o":"m 10 34 l 417 812 l 823 34 l 10 34 z "},"►":{"ha":833,"x_min":35,"x_max":832,"o":"m 35 811 l 832 397 l 35 -18 l 35 811 z "},"▼":{"ha":833,"x_min":10,"x_max":823,"o":"m 823 760 l 417 -18 l 10 760 l 823 760 z "},"◄":{"ha":833,"x_min":1,"x_max":798,"o":"m 798 811 l 798 -18 l 1 397 l 798 811 z "},"○":{"ha":833,"x_min":111,"x_max":723,"o":"m 111 415 q 151 569 111 498 q 263 681 192 640 q 416 722 334 722 q 570 681 498 722 q 682 569 641 640 q 723 415 723 497 q 682 262 723 333 q 570 151 641 191 q 416 110 499 110 q 262 151 333 110 q 151 262 192 191 q 111 415 111 332 m 169 415 q 202 291 169 349 q 292 201 235 234 q 416 168 349 168 q 539 201 482 168 q 631 291 597 233 q 665 415 665 349 q 631 539 665 481 q 540 631 598 597 q 416 664 482 664 q 293 631 350 664 q 202 540 235 597 q 169 415 169 483 z "},"◘":{"ha":833,"x_min":25,"x_max":808,"o":"m 25 0 l 25 783 l 808 783 l 808 0 l 25 0 m 117 391 q 157 242 117 311 q 266 133 197 173 q 415 93 334 93 q 565 133 495 93 q 674 242 634 173 q 714 391 714 312 q 674 541 714 471 q 565 650 634 610 q 415 690 496 690 q 266 650 335 690 q 156 541 196 610 q 117 391 117 471 z "},"◙":{"ha":833,"x_min":25,"x_max":808,"o":"m 25 0 l 25 783 l 808 783 l 808 0 l 25 0 m 169 391 q 202 515 169 457 q 293 606 235 572 q 416 639 351 639 q 540 606 482 639 q 631 515 597 572 q 664 391 664 457 q 631 268 664 326 q 540 177 597 210 q 416 144 482 144 q 293 177 351 144 q 202 268 235 210 q 169 391 169 326 m 117 391 q 157 242 117 311 q 266 133 197 173 q 415 93 334 93 q 565 133 495 93 q 674 242 634 173 q 714 391 714 312 q 674 541 714 471 q 565 650 634 610 q 415 690 496 690 q 266 650 335 690 q 156 541 196 610 q 117 391 117 471 z "},"☺":{"ha":833,"x_min":18,"x_max":814,"o":"m 18 399 q 72 599 18 507 q 217 744 125 691 q 416 798 309 798 q 615 744 524 798 q 761 599 707 691 q 814 399 814 507 q 761 200 814 292 q 616 55 708 108 q 416 1 524 1 q 217 55 309 1 q 72 200 125 108 q 18 399 18 292 m 61 399 q 109 222 61 304 q 238 92 156 140 q 416 44 321 44 q 594 92 511 44 q 724 222 676 140 q 771 399 771 305 q 724 576 771 494 q 594 706 676 659 q 416 754 512 754 q 239 707 321 754 q 109 576 157 659 q 61 399 61 494 m 221 503 q 235 536 221 522 q 269 551 249 551 q 302 536 288 551 q 317 503 317 522 q 302 469 317 483 q 269 455 288 455 q 235 469 249 455 q 221 503 221 483 m 516 503 q 530 536 516 522 q 564 551 544 551 q 597 536 583 551 q 612 503 612 522 q 597 469 612 483 q 564 455 583 455 q 530 469 544 455 q 516 503 516 483 m 239 300 q 321 227 279 247 q 416 208 363 208 q 513 228 471 208 q 593 300 555 248 l 633 267 q 416 146 557 146 q 329 160 368 146 q 261 197 290 174 q 200 267 231 220 l 239 300 z "},"☻":{"ha":833,"x_min":18,"x_max":814,"o":"m 18 399 q 72 599 18 507 q 217 744 125 691 q 416 798 309 798 q 615 744 524 798 q 761 599 707 691 q 814 399 814 507 q 761 200 814 292 q 616 55 708 108 q 416 1 524 1 q 217 55 309 1 q 72 200 125 108 q 18 399 18 292 m 221 503 q 235 469 221 483 q 269 455 249 455 q 302 469 288 455 q 317 503 317 483 q 302 536 317 522 q 269 551 288 551 q 235 536 249 551 q 221 503 221 522 m 516 503 q 530 469 516 483 q 564 455 544 455 q 597 469 583 455 q 612 503 612 483 q 597 536 612 522 q 564 551 583 551 q 530 536 544 551 q 516 503 516 522 m 200 267 q 260 197 231 220 q 328 160 290 174 q 416 146 367 146 q 633 267 557 146 l 593 300 q 512 227 554 247 q 416 208 469 208 q 320 228 363 208 q 239 300 278 248 l 200 267 z "},"☼":{"ha":833,"x_min":18,"x_max":815,"o":"m 152 615 l 263 503 q 392 557 322 550 l 392 715 l 441 715 l 441 557 q 569 503 510 551 l 681 615 l 715 581 l 604 469 q 657 340 651 410 l 815 340 l 815 292 l 657 292 q 604 163 650 222 l 715 52 l 681 17 l 569 128 q 441 75 510 81 l 441 -83 l 392 -83 l 392 75 q 263 128 322 81 l 152 17 l 117 52 l 229 163 q 175 292 182 222 l 18 292 l 18 340 l 175 340 q 229 469 181 410 l 117 581 l 152 615 m 223 316 q 279 179 223 236 q 416 123 335 123 q 554 179 498 123 q 610 316 610 236 q 553 453 610 396 q 416 509 496 509 q 280 453 336 509 q 223 316 223 396 z "},"♀":{"ha":833,"x_min":214,"x_max":618,"o":"m 233 255 l 392 255 l 392 392 q 264 459 315 401 q 214 593 214 517 q 274 735 214 676 q 416 795 333 795 q 559 735 500 795 q 618 593 618 676 q 568 460 618 517 q 441 392 518 402 l 441 255 l 600 255 l 600 206 l 441 206 l 441 47 l 392 47 l 392 206 l 233 206 l 233 255 m 263 593 q 308 484 263 529 q 416 439 353 439 q 525 485 481 439 q 570 593 570 530 q 525 701 570 656 q 416 746 480 746 q 309 702 355 746 q 263 593 263 658 z "},"♂":{"ha":833,"x_min":111,"x_max":697,"o":"m 111 279 q 171 422 111 363 q 313 481 230 481 q 437 438 382 481 l 612 612 l 458 626 l 457 663 l 682 663 l 697 648 l 697 423 l 660 425 l 646 578 l 472 404 q 515 279 515 349 q 456 137 515 196 q 313 77 397 77 q 171 137 230 77 q 111 279 111 196 m 160 279 q 205 171 160 216 q 313 126 250 126 q 422 172 378 126 q 467 279 467 217 q 422 388 467 342 q 313 433 377 433 q 206 389 252 433 q 160 279 160 345 z "},"♠":{"ha":833,"x_min":69,"x_max":764,"o":"m 434 810 q 482 680 434 752 q 604 549 530 608 q 728 429 692 480 q 764 324 764 378 q 718 207 764 251 q 604 163 671 163 q 519 182 564 163 q 449 231 474 201 q 508 89 449 140 q 666 38 568 38 l 666 0 l 167 0 l 167 38 q 325 89 265 38 q 384 231 384 140 q 313 182 358 201 q 229 163 269 163 q 115 207 161 163 q 69 324 69 251 q 103 426 69 376 q 229 549 136 475 q 351 680 302 607 q 399 810 399 753 l 434 810 z "},"♣":{"ha":833,"x_min":66,"x_max":767,"o":"m 416 810 q 516 790 474 810 q 581 732 558 769 q 604 652 604 695 q 582 561 604 606 q 524 492 559 516 l 562 494 q 710 447 653 494 q 767 324 767 401 q 721 207 767 251 q 608 163 675 163 q 520 183 566 163 q 449 231 474 203 q 508 89 449 140 q 666 38 568 38 l 666 0 l 167 0 l 167 38 q 325 89 265 38 q 384 231 384 140 q 314 183 359 203 q 225 163 268 163 q 112 207 157 163 q 66 324 66 251 q 123 448 66 401 q 271 494 180 494 l 309 492 q 251 561 274 516 q 229 652 229 606 q 252 732 229 695 q 317 790 275 769 q 416 810 359 810 z "},"♥":{"ha":833,"x_min":69,"x_max":764,"o":"m 399 -1 q 358 116 399 45 q 229 294 318 187 q 69 597 69 488 q 92 683 69 644 q 153 743 115 722 q 235 765 192 765 q 345 721 296 765 q 414 609 394 676 l 418 609 q 488 721 439 677 q 597 765 538 765 q 680 743 641 765 q 741 683 718 722 q 764 597 764 644 q 604 294 764 488 q 501 159 531 204 q 452 73 471 113 q 434 -1 434 33 l 399 -1 z "},"♦":{"ha":833,"x_min":90,"x_max":743,"o":"m 90 405 l 90 407 q 412 812 258 600 l 420 812 q 743 407 574 600 l 743 405 q 420 -1 574 212 l 412 -1 q 90 405 258 212 z "},"♪":{"ha":833,"x_min":191,"x_max":635,"o":"m 534 184 q 572 249 558 210 q 586 332 586 288 q 549 459 586 403 q 450 535 511 515 l 450 130 q 404 50 450 83 q 300 16 358 16 q 222 39 253 16 q 191 100 191 62 q 238 178 191 144 q 340 212 284 212 q 408 197 380 212 l 408 764 l 434 764 q 524 602 442 685 q 609 485 583 541 q 635 360 635 429 q 617 265 635 311 q 566 184 598 219 l 534 184 z "},"♫":{"ha":833,"x_min":76,"x_max":735,"o":"m 585 30 q 507 53 538 30 q 476 114 476 76 q 523 192 476 158 q 625 226 569 226 q 693 210 665 226 l 693 505 l 335 450 l 335 82 q 289 2 335 36 q 184 -31 243 -31 q 107 -8 138 -31 q 76 53 76 15 q 122 131 76 97 q 225 165 169 165 q 293 149 264 165 l 293 715 l 735 783 l 735 143 q 689 63 735 97 q 585 30 643 30 m 335 545 l 693 600 l 693 682 l 335 627 l 335 545 z "},"Ĳ":{"ha":833,"x_min":-22,"x_max":892,"o":"m 156 915 l 349 915 l 171 0 l -22 0 l 156 915 m 458 -14 q 304 34 353 -14 q 255 182 255 81 q 259 244 255 211 l 443 270 l 440 223 q 452 163 440 182 q 493 143 463 143 q 543 175 524 143 q 575 281 561 207 l 668 758 l 496 758 l 526 915 l 892 915 l 774 302 q 458 -14 712 -14 z "},"ĳ":{"ha":833,"x_min":44,"x_max":838,"o":"m 235 0 l 44 0 l 186 734 l 377 734 l 235 0 m 212 866 l 239 1006 l 430 1006 l 403 866 l 212 866 m 275 -288 q 169 -279 222 -288 q 86 -259 115 -271 l 114 -117 q 288 -140 202 -140 q 401 -103 363 -140 q 453 7 439 -66 l 594 734 l 785 734 l 641 -9 q 573 -159 624 -96 q 444 -255 522 -222 q 275 -288 367 -288 m 621 866 l 648 1006 l 838 1006 l 811 866 l 621 866 z "},"ŉ":{"ha":833,"x_min":60,"x_max":833,"o":"m 543 0 l 624 420 q 634 509 634 472 q 557 605 634 605 q 445 545 496 605 q 375 393 394 485 l 298 0 l 108 0 l 218 570 q 245 734 241 682 l 427 734 q 420 674 427 723 q 408 588 414 625 l 410 588 q 663 748 515 748 q 833 564 833 748 q 823 466 833 520 l 732 0 l 543 0 m 60 675 l 64 697 l 167 916 l 341 916 l 336 890 l 172 675 l 60 675 z "},"′":{"ha":833,"x_min":389,"x_max":634,"o":"m 524 572 l 389 572 l 449 1007 l 634 1007 l 524 572 z "},"″":{"ha":833,"x_min":235,"x_max":790,"o":"m 679 572 l 544 572 l 604 1007 l 790 1007 l 679 572 m 370 572 l 235 572 l 294 1007 l 479 1007 l 370 572 z "},"℅":{"ha":833,"x_min":41,"x_max":829,"o":"m 578 -8 q 476 36 511 -8 q 441 163 441 80 q 471 350 441 247 q 556 506 502 453 q 690 559 610 559 q 829 391 829 559 q 810 249 829 329 q 758 111 792 169 q 679 22 724 52 q 578 -8 633 -8 m 715 390 q 673 471 715 471 q 615 427 640 471 q 571 299 589 383 q 553 163 553 216 q 596 80 553 80 q 652 125 625 80 q 697 253 679 170 q 715 390 715 336 m 154 534 q 200 445 154 445 q 243 473 226 445 q 279 559 260 500 l 387 553 q 303 407 358 460 q 184 354 248 354 q 77 401 113 354 q 41 532 41 448 q 73 718 41 618 q 161 870 104 817 q 294 922 217 922 q 387 878 355 922 q 418 748 418 833 l 418 733 l 307 726 l 309 771 q 302 816 309 800 q 275 832 295 832 q 217 792 242 832 q 173 670 191 753 q 154 534 154 588 m 154 0 l 60 0 l 715 915 l 806 915 l 154 0 z "},"ℓ":{"ha":833,"x_min":91,"x_max":790,"o":"m 427 132 q 517 168 481 132 q 583 277 553 204 l 682 277 q 540 58 624 130 q 344 -14 456 -14 q 157 142 157 -14 q 159 174 157 157 q 187 323 161 191 q 91 290 140 305 l 117 422 l 212 455 l 264 720 q 370 905 287 840 q 585 969 454 969 q 737 929 684 969 q 790 814 790 890 q 763 692 790 759 q 684 569 736 626 q 558 467 633 512 q 390 392 484 422 l 363 256 q 359 210 359 232 q 427 132 359 132 m 624 787 q 565 854 624 854 q 466 754 486 854 l 422 526 q 525 589 479 548 q 597 684 571 630 q 624 787 624 738 z "},"□":{"ha":833,"x_min":1,"x_max":832,"o":"m 1 831 l 832 831 l 832 0 l 1 0 l 1 831 m 53 779 l 53 52 l 781 52 l 781 779 l 53 779 z "},"▪":{"ha":833,"x_min":244,"x_max":589,"o":"m 589 260 l 244 260 l 244 604 l 589 604 l 589 260 z "},"▫":{"ha":833,"x_min":244,"x_max":589,"o":"m 589 260 l 244 260 l 244 604 l 589 604 l 589 260 m 537 311 l 537 551 l 296 551 l 296 311 l 537 311 z "},"●":{"ha":833,"x_min":118,"x_max":715,"o":"m 416 690 q 565 651 491 690 q 677 538 638 612 q 715 392 715 464 q 628 180 715 268 q 416 93 541 93 q 205 181 293 93 q 118 392 118 269 q 156 537 118 465 q 266 650 193 610 q 416 690 339 690 z "},"◦":{"ha":833,"x_min":248,"x_max":585,"o":"m 585 432 q 533 312 585 359 q 416 264 482 264 q 332 286 370 264 q 271 347 294 308 q 248 432 248 385 q 298 551 248 502 q 416 600 348 600 q 534 550 486 600 q 585 432 585 502 m 533 432 q 498 514 533 479 q 416 549 464 549 q 334 514 369 549 q 300 432 300 479 q 333 350 300 384 q 416 315 366 315 q 501 351 469 315 q 533 432 533 387 z "},"Ā":{"ha":833,"x_min":-71,"x_max":770,"o":"m 762 0 l 563 0 l 544 224 l 235 224 l 129 0 l -71 0 l 407 915 l 640 915 l 762 0 m 500 791 q 468 718 489 764 q 306 374 448 671 l 531 374 l 508 632 l 500 768 l 500 791 m 355 1111 l 770 1111 l 748 997 l 333 997 l 355 1111 z "},"ā":{"ha":833,"x_min":35,"x_max":749,"o":"m 224 -14 q 84 28 133 -14 q 35 151 35 71 q 41 208 35 177 q 370 442 87 439 l 522 445 l 528 482 q 535 539 535 515 q 456 624 535 624 q 379 600 408 624 q 334 520 351 575 l 137 530 q 488 747 214 747 q 666 698 605 747 q 726 553 726 649 q 719 483 726 522 l 667 217 q 660 159 660 180 q 670 121 660 134 q 707 109 681 109 q 749 113 728 109 l 730 9 q 698 2 712 5 q 670 -3 684 -1 q 640 -7 656 -5 q 604 -8 625 -8 q 511 20 540 -8 q 483 103 483 48 l 484 131 l 480 131 q 360 20 422 54 q 224 -14 298 -14 m 500 340 l 410 338 q 304 319 338 337 q 255 263 271 302 q 239 186 239 225 q 304 119 239 119 q 425 173 370 119 q 494 302 479 226 l 500 340 m 313 930 l 728 930 l 707 816 l 292 816 l 313 930 z "},"Ĉ":{"ha":833,"x_min":56,"x_max":834,"o":"m 262 330 q 404 144 262 144 q 599 309 515 144 l 777 274 q 371 -14 629 -14 q 136 67 215 -14 q 56 304 56 147 q 73 462 56 378 q 549 929 165 929 q 834 665 803 929 l 641 621 q 604 732 635 693 q 521 772 572 772 q 385 714 441 772 q 295 541 328 656 q 262 330 262 427 m 800 987 l 797 968 l 689 968 l 569 1059 l 566 1059 l 406 968 l 297 968 l 300 987 l 509 1156 l 664 1156 l 800 987 z "},"ĉ":{"ha":833,"x_min":63,"x_max":773,"o":"m 349 -14 q 137 56 211 -14 q 63 256 63 126 q 94 443 63 347 q 183 607 125 538 q 322 712 241 676 q 500 747 403 747 q 701 683 629 747 q 773 506 773 618 l 773 503 l 579 493 l 580 506 q 555 585 580 553 q 471 616 530 616 q 361 571 406 616 q 290 432 317 525 q 263 261 263 339 q 376 117 263 117 q 474 151 430 117 q 539 253 517 185 l 728 244 q 650 111 705 170 q 517 19 595 52 q 349 -14 439 -14 m 755 821 l 751 802 l 644 802 l 524 893 l 521 893 l 360 802 l 252 802 l 255 821 l 463 991 l 618 991 l 755 821 z "},"Ċ":{"ha":833,"x_min":56,"x_max":834,"o":"m 262 330 q 404 144 262 144 q 599 309 515 144 l 777 274 q 371 -14 629 -14 q 136 67 215 -14 q 56 304 56 147 q 73 462 56 378 q 549 929 165 929 q 834 665 803 929 l 641 621 q 604 732 635 693 q 521 772 572 772 q 385 714 441 772 q 295 541 328 656 q 262 330 262 427 m 458 964 l 486 1104 l 676 1104 l 648 964 l 458 964 z "},"ċ":{"ha":833,"x_min":63,"x_max":773,"o":"m 349 -14 q 137 56 211 -14 q 63 256 63 126 q 94 443 63 347 q 183 607 125 538 q 322 712 241 676 q 500 747 403 747 q 701 683 629 747 q 773 506 773 618 l 773 503 l 579 493 l 580 506 q 555 585 580 553 q 471 616 530 616 q 361 571 406 616 q 290 432 317 525 q 263 261 263 339 q 376 117 263 117 q 474 151 430 117 q 539 253 517 185 l 728 244 q 650 111 705 170 q 517 19 595 52 q 349 -14 439 -14 m 431 859 l 458 1000 l 649 1000 l 621 859 l 431 859 z "},"Ē":{"ha":833,"x_min":22,"x_max":856,"o":"m 22 0 l 199 915 l 856 915 l 826 760 l 370 760 l 327 541 l 742 541 l 712 386 l 297 386 l 252 155 l 736 155 l 706 0 l 22 0 m 366 1111 l 781 1111 l 759 997 l 344 997 l 366 1111 z "},"ē":{"ha":833,"x_min":57,"x_max":773,"o":"m 351 -14 q 134 57 210 -14 q 57 261 57 128 q 86 440 57 347 q 174 604 115 533 q 318 711 234 675 q 501 747 402 747 q 704 674 635 747 q 773 465 773 601 q 760 336 773 405 l 759 330 l 261 330 q 254 263 254 296 q 289 152 254 191 q 385 114 323 114 q 480 136 437 114 q 543 201 522 158 l 720 186 q 567 38 663 90 q 351 -14 471 -14 m 475 627 q 355 580 406 627 q 286 450 304 533 l 597 450 l 600 488 q 566 592 600 557 q 475 627 531 627 m 319 930 l 734 930 l 713 816 l 298 816 l 319 930 z "},"Ĕ":{"ha":833,"x_min":22,"x_max":856,"o":"m 22 0 l 199 915 l 856 915 l 826 760 l 370 760 l 327 541 l 742 541 l 712 386 l 297 386 l 252 155 l 736 155 l 706 0 l 22 0 m 532 968 q 380 1009 431 968 q 328 1128 328 1051 q 330 1156 328 1149 l 440 1156 l 440 1149 q 553 1074 440 1074 q 647 1094 613 1074 q 699 1156 681 1114 l 810 1156 q 532 968 750 968 z "},"ĕ":{"ha":833,"x_min":57,"x_max":781,"o":"m 351 -14 q 134 57 210 -14 q 57 261 57 128 q 86 440 57 347 q 174 604 115 533 q 318 711 234 675 q 501 747 402 747 q 704 674 635 747 q 773 465 773 601 q 760 336 773 405 l 759 330 l 261 330 q 254 263 254 296 q 289 152 254 191 q 385 114 323 114 q 480 136 437 114 q 543 201 522 158 l 720 186 q 567 38 663 90 q 351 -14 471 -14 m 475 627 q 355 580 406 627 q 286 450 304 533 l 597 450 l 600 488 q 566 592 600 557 q 475 627 531 627 m 503 802 q 351 844 402 802 q 299 963 299 886 q 300 991 299 983 l 411 991 l 411 984 q 524 909 411 909 q 618 928 584 909 q 669 991 652 948 l 781 991 q 503 802 721 802 z "},"Ė":{"ha":833,"x_min":22,"x_max":856,"o":"m 22 0 l 199 915 l 856 915 l 826 760 l 370 760 l 327 541 l 742 541 l 712 386 l 297 386 l 252 155 l 736 155 l 706 0 l 22 0 m 437 964 l 465 1104 l 656 1104 l 628 964 l 437 964 z "},"ė":{"ha":833,"x_min":57,"x_max":773,"o":"m 351 -14 q 134 57 210 -14 q 57 261 57 128 q 86 440 57 347 q 174 604 115 533 q 318 711 234 675 q 501 747 402 747 q 704 674 635 747 q 773 465 773 601 q 760 336 773 405 l 759 330 l 261 330 q 254 263 254 296 q 289 152 254 191 q 385 114 323 114 q 480 136 437 114 q 543 201 522 158 l 720 186 q 567 38 663 90 q 351 -14 471 -14 m 475 627 q 355 580 406 627 q 286 450 304 533 l 597 450 l 600 488 q 566 592 600 557 q 475 627 531 627 m 419 863 l 447 1004 l 637 1004 l 610 863 l 419 863 z "},"Ĝ":{"ha":833,"x_min":57,"x_max":806,"o":"m 357 -14 q 134 72 210 -14 q 57 312 57 157 q 94 550 57 421 q 192 763 131 680 q 340 887 253 846 q 542 929 428 929 q 728 867 663 929 q 806 675 793 804 l 613 638 q 513 772 602 772 q 381 717 434 772 q 294 543 328 663 q 261 328 261 422 q 398 146 261 146 q 478 161 435 146 q 549 197 521 176 l 580 356 l 394 356 l 422 504 l 791 504 l 718 125 q 357 -14 527 -14 m 787 987 l 783 968 l 675 968 l 555 1059 l 553 1059 l 392 968 l 283 968 l 287 987 l 495 1156 l 650 1156 l 787 987 z "},"ĝ":{"ha":833,"x_min":24,"x_max":827,"o":"m 290 -294 q 95 -242 163 -294 q 24 -97 26 -191 l 220 -75 q 248 -144 221 -119 q 319 -170 275 -170 q 496 25 457 -170 l 520 143 l 519 143 q 407 40 472 72 q 270 8 342 8 q 123 68 174 8 q 72 243 72 129 q 99 431 72 331 q 173 601 125 530 q 284 709 220 672 q 428 745 349 745 q 548 711 500 745 q 610 616 595 677 l 614 616 q 646 734 636 710 l 827 734 l 811 665 l 790 564 l 684 22 q 552 -214 654 -133 q 290 -294 450 -294 m 576 469 q 548 575 576 536 q 470 614 520 614 q 367 567 411 614 q 298 432 323 519 q 273 276 273 344 q 376 140 273 140 q 481 188 435 140 q 551 318 527 235 q 576 469 576 401 m 749 821 l 745 802 l 637 802 l 517 893 l 515 893 l 354 802 l 245 802 l 249 821 l 457 991 l 612 991 l 749 821 z "},"Ġ":{"ha":833,"x_min":57,"x_max":806,"o":"m 357 -14 q 134 72 210 -14 q 57 312 57 157 q 94 550 57 421 q 192 763 131 680 q 340 887 253 846 q 542 929 428 929 q 728 867 663 929 q 806 675 793 804 l 613 638 q 513 772 602 772 q 381 717 434 772 q 294 543 328 663 q 261 328 261 422 q 398 146 261 146 q 478 161 435 146 q 549 197 521 176 l 580 356 l 394 356 l 422 504 l 791 504 l 718 125 q 357 -14 527 -14 m 444 964 l 472 1104 l 663 1104 l 635 964 l 444 964 z "},"ġ":{"ha":833,"x_min":24,"x_max":827,"o":"m 290 -294 q 95 -242 163 -294 q 24 -97 26 -191 l 220 -75 q 248 -144 221 -119 q 319 -170 275 -170 q 496 25 457 -170 l 520 143 l 519 143 q 407 40 472 72 q 270 8 342 8 q 123 68 174 8 q 72 243 72 129 q 99 431 72 331 q 173 601 125 530 q 284 709 220 672 q 428 745 349 745 q 548 711 500 745 q 610 616 595 677 l 614 616 q 646 734 636 710 l 827 734 l 811 665 l 790 564 l 684 22 q 552 -214 654 -133 q 290 -294 450 -294 m 576 469 q 548 575 576 536 q 470 614 520 614 q 367 567 411 614 q 298 432 323 519 q 273 276 273 344 q 376 140 273 140 q 481 188 435 140 q 551 318 527 235 q 576 469 576 401 m 411 859 l 439 1000 l 629 1000 l 602 859 l 411 859 z "},"Ģ":{"ha":833,"x_min":57,"x_max":806,"o":"m 357 -14 q 134 72 210 -14 q 57 312 57 157 q 94 550 57 421 q 192 763 131 680 q 340 887 253 846 q 542 929 428 929 q 728 867 663 929 q 806 675 793 804 l 613 638 q 513 772 602 772 q 381 717 434 772 q 294 543 328 663 q 261 328 261 422 q 398 146 261 146 q 478 161 435 146 q 549 197 521 176 l 580 356 l 394 356 l 422 504 l 791 504 l 718 125 q 357 -14 527 -14 m 164 -307 l 168 -285 l 271 -66 l 446 -66 l 441 -92 l 276 -307 l 164 -307 z "},"ģ":{"ha":833,"x_min":24,"x_max":827,"o":"m 290 -294 q 95 -242 163 -294 q 24 -97 26 -191 l 220 -75 q 248 -144 221 -119 q 319 -170 275 -170 q 496 25 457 -170 l 520 143 l 519 143 q 407 40 472 72 q 270 8 342 8 q 123 68 174 8 q 72 243 72 129 q 99 431 72 331 q 173 601 125 530 q 284 709 220 672 q 428 745 349 745 q 548 711 500 745 q 610 616 595 677 l 614 616 q 646 734 636 710 l 827 734 l 811 665 l 790 564 l 684 22 q 552 -214 654 -133 q 290 -294 450 -294 m 576 469 q 548 575 576 536 q 470 614 520 614 q 367 567 411 614 q 298 432 323 519 q 273 276 273 344 q 376 140 273 140 q 481 188 435 140 q 551 318 527 235 q 576 469 576 401 m 671 1062 l 667 1040 l 564 821 l 389 821 l 395 846 l 559 1062 l 671 1062 z "},"Ĥ":{"ha":833,"x_min":22,"x_max":846,"o":"m 469 0 l 545 389 l 298 389 l 222 0 l 22 0 l 200 915 l 400 915 l 330 555 l 576 555 l 646 915 l 846 915 l 669 0 l 469 0 m 786 987 l 783 968 l 675 968 l 555 1059 l 552 1059 l 391 968 l 283 968 l 286 987 l 494 1156 l 650 1156 l 786 987 z "},"ĥ":{"ha":833,"x_min":26,"x_max":787,"o":"m 328 587 q 448 709 382 671 q 595 747 514 747 q 779 566 779 747 q 768 465 779 519 l 677 0 l 488 0 l 570 421 q 580 508 580 473 q 559 579 580 555 q 488 604 539 604 q 366 546 418 604 q 293 393 313 487 l 216 0 l 26 0 l 203 915 l 394 915 l 359 732 q 331 612 350 684 l 325 587 l 328 587 m 787 987 l 783 968 l 675 968 l 555 1059 l 553 1059 l 392 968 l 283 968 l 288 987 l 495 1156 l 650 1156 l 787 987 z "},"Ħ":{"ha":833,"x_min":22,"x_max":915,"o":"m 469 0 l 545 389 l 298 389 l 222 0 l 22 0 l 155 681 l 62 681 l 85 795 l 177 795 l 200 915 l 400 915 l 377 795 l 623 795 l 646 915 l 846 915 l 823 795 l 915 795 l 892 681 l 801 681 l 669 0 l 469 0 m 576 555 l 601 681 l 355 681 l 330 555 l 576 555 z "},"ħ":{"ha":833,"x_min":26,"x_max":774,"o":"m 323 560 q 589 720 427 720 q 774 538 774 720 q 763 438 774 491 l 677 0 l 488 0 l 564 394 q 574 481 574 443 q 554 552 574 527 q 482 577 534 577 q 360 518 413 577 q 288 366 307 460 l 216 0 l 26 0 l 181 800 l 90 800 l 113 915 l 203 915 l 221 1006 l 412 1006 l 394 915 l 597 915 l 575 800 l 372 800 q 353 701 362 751 q 320 560 343 650 l 323 560 z "},"Ĩ":{"ha":833,"x_min":35,"x_max":834,"o":"m 213 915 l 834 915 l 804 760 l 590 760 l 472 155 l 686 155 l 656 0 l 35 0 l 65 155 l 279 155 l 397 760 l 183 760 l 213 915 m 646 964 q 588 976 616 964 q 534 1003 560 988 q 486 1029 509 1017 q 442 1041 463 1041 q 392 1023 410 1041 q 361 964 374 1006 l 268 964 q 341 1112 295 1068 q 458 1156 388 1156 q 517 1144 488 1156 q 571 1118 545 1133 q 618 1092 596 1103 q 661 1080 641 1080 q 712 1099 694 1080 q 743 1156 729 1118 l 834 1156 q 762 1009 809 1055 q 646 964 714 964 z "},"ĩ":{"ha":833,"x_min":9,"x_max":804,"o":"m 492 129 l 732 129 l 707 0 l 9 0 l 34 129 l 302 129 l 394 605 l 197 605 l 222 734 l 610 734 l 492 129 m 615 802 q 557 814 585 802 q 504 841 530 826 q 455 867 478 855 q 412 879 432 879 q 361 861 379 879 q 330 802 343 844 l 237 802 q 311 950 264 906 q 427 994 357 994 q 486 982 458 994 q 540 956 515 970 q 588 929 566 941 q 630 918 610 918 q 681 937 664 918 q 712 994 699 956 l 804 994 q 731 847 779 892 q 615 802 684 802 z "},"Ī":{"ha":833,"x_min":35,"x_max":834,"o":"m 213 915 l 834 915 l 804 760 l 590 760 l 472 155 l 686 155 l 656 0 l 35 0 l 65 155 l 279 155 l 397 760 l 183 760 l 213 915 m 355 1111 l 770 1111 l 748 997 l 333 997 l 355 1111 z "},"ī":{"ha":833,"x_min":9,"x_max":739,"o":"m 492 129 l 732 129 l 707 0 l 9 0 l 34 129 l 302 129 l 394 605 l 197 605 l 222 734 l 610 734 l 492 129 m 323 930 l 739 930 l 717 816 l 302 816 l 323 930 z "},"Ĭ":{"ha":833,"x_min":35,"x_max":834,"o":"m 213 915 l 834 915 l 804 760 l 590 760 l 472 155 l 686 155 l 656 0 l 35 0 l 65 155 l 279 155 l 397 760 l 183 760 l 213 915 m 532 968 q 380 1009 431 968 q 328 1128 328 1051 q 330 1156 328 1149 l 440 1156 l 440 1149 q 553 1074 440 1074 q 647 1094 613 1074 q 699 1156 681 1114 l 810 1156 q 532 968 750 968 z "},"ĭ":{"ha":833,"x_min":9,"x_max":791,"o":"m 492 129 l 732 129 l 707 0 l 9 0 l 34 129 l 302 129 l 394 605 l 197 605 l 222 734 l 610 734 l 492 129 m 513 802 q 361 844 413 802 q 310 963 310 886 q 311 991 310 983 l 422 991 l 422 984 q 535 909 422 909 q 629 928 595 909 q 680 991 663 948 l 791 991 q 513 802 732 802 z "},"Į":{"ha":833,"x_min":35,"x_max":834,"o":"m 213 915 l 834 915 l 804 760 l 590 760 l 472 155 l 686 155 l 656 0 l 35 0 l 65 155 l 279 155 l 397 760 l 183 760 l 213 915 m 327 -288 q 228 -261 265 -288 q 190 -182 190 -235 q 230 -71 190 -125 q 332 14 269 -16 l 436 14 q 351 -63 382 -17 q 319 -144 319 -109 q 331 -176 319 -161 q 372 -191 342 -191 q 452 -173 410 -191 l 434 -266 q 327 -288 387 -288 z "},"į":{"ha":833,"x_min":9,"x_max":732,"o":"m 492 129 l 732 129 l 707 0 l 9 0 l 34 129 l 302 129 l 394 605 l 197 605 l 222 734 l 610 734 l 492 129 m 445 866 l 472 1006 l 663 1006 l 635 866 l 445 866 m 356 -288 q 257 -261 294 -288 q 219 -182 219 -235 q 259 -71 219 -125 q 361 14 298 -16 l 465 14 q 380 -63 412 -17 q 349 -144 349 -109 q 360 -176 349 -161 q 401 -191 371 -191 q 481 -173 439 -191 l 463 -266 q 356 -288 416 -288 z "},"Ĵ":{"ha":833,"x_min":50,"x_max":868,"o":"m 309 -14 q 115 55 180 -14 q 50 251 50 124 l 51 273 l 254 302 l 254 289 q 276 181 254 218 q 340 143 298 143 q 427 183 390 143 q 478 298 464 223 l 568 758 l 363 758 l 394 915 l 798 915 l 679 302 q 551 71 650 155 q 309 -14 452 -14 m 868 987 l 865 968 l 757 968 l 637 1059 l 634 1059 l 473 968 l 365 968 l 368 987 l 576 1156 l 732 1156 l 868 987 z "},"ĵ":{"ha":833,"x_min":-42,"x_max":783,"o":"m 147 -288 q 40 -279 94 -288 q -42 -259 -13 -271 l -14 -117 q 159 -140 74 -140 q 273 -103 235 -140 q 325 7 311 -66 l 441 605 l 201 605 l 226 734 l 657 734 l 513 -9 q 445 -159 496 -96 q 316 -255 393 -222 q 147 -288 239 -288 m 783 821 l 780 802 l 672 802 l 552 893 l 549 893 l 389 802 l 280 802 l 283 821 l 492 991 l 647 991 l 783 821 z "},"Ķ":{"ha":833,"x_min":21,"x_max":927,"o":"m 526 0 l 380 378 l 276 281 l 221 0 l 21 0 l 199 915 l 399 915 l 320 509 l 694 915 l 927 915 l 539 522 l 762 0 l 526 0 m 164 -307 l 168 -285 l 271 -66 l 446 -66 l 441 -92 l 276 -307 l 164 -307 z "},"ķ":{"ha":833,"x_min":46,"x_max":846,"o":"m 515 0 l 383 332 l 290 275 l 237 0 l 46 0 l 241 1006 l 432 1006 l 320 430 l 641 734 l 846 734 l 532 448 l 723 0 l 515 0 m 164 -307 l 168 -285 l 271 -66 l 446 -66 l 441 -92 l 276 -307 l 164 -307 z "},"ĸ":{"ha":833,"x_min":46,"x_max":846,"o":"m 515 0 l 380 319 l 288 262 l 237 0 l 46 0 l 189 734 l 379 734 l 317 416 l 641 734 l 846 734 l 530 434 l 723 0 l 515 0 z "},"Ļ":{"ha":833,"x_min":72,"x_max":720,"o":"m 72 0 l 250 915 l 450 915 l 302 155 l 720 155 l 690 0 l 72 0 m 171 -307 l 175 -285 l 278 -66 l 452 -66 l 448 -92 l 283 -307 l 171 -307 z "},"ļ":{"ha":833,"x_min":9,"x_max":732,"o":"m 492 129 l 732 129 l 707 0 l 9 0 l 34 129 l 302 129 l 448 878 l 251 878 l 275 1006 l 663 1006 l 492 129 m 164 -307 l 168 -285 l 271 -66 l 446 -66 l 441 -92 l 276 -307 l 164 -307 z "},"Ņ":{"ha":833,"x_min":20,"x_max":848,"o":"m 436 0 l 309 685 l 300 591 q 281 445 288 480 l 195 0 l 20 0 l 198 915 l 427 915 l 557 212 q 586 459 569 374 l 674 915 l 848 915 l 671 0 l 436 0 m 143 -307 l 147 -285 l 250 -66 l 425 -66 l 420 -92 l 255 -307 l 143 -307 z "},"ņ":{"ha":833,"x_min":26,"x_max":779,"o":"m 488 0 l 569 420 q 579 506 579 470 q 557 581 579 557 q 489 605 536 605 q 367 547 420 605 q 293 393 313 489 l 216 0 l 26 0 l 136 570 q 163 734 159 682 l 345 734 q 338 674 345 723 q 326 588 332 625 l 328 588 q 595 748 432 748 q 779 563 779 748 q 768 466 779 519 l 677 0 l 488 0 m 146 -307 l 150 -285 l 253 -66 l 427 -66 l 422 -92 l 258 -307 l 146 -307 z "},"Ŋ":{"ha":833,"x_min":8,"x_max":828,"o":"m 451 -14 q 324 27 368 -14 q 272 159 280 68 l 423 205 q 437 151 427 165 q 470 137 447 137 q 523 178 503 137 q 564 322 544 220 l 614 575 q 627 684 627 643 q 606 754 627 735 q 543 773 585 773 q 447 731 500 773 q 355 622 394 688 q 302 481 316 555 l 208 0 l 8 0 l 144 700 l 183 915 l 378 915 q 368 834 375 880 q 353 745 361 788 l 355 745 q 487 878 408 828 q 641 928 566 928 q 781 880 734 928 q 828 726 828 832 q 813 589 828 666 l 765 340 q 653 74 730 161 q 451 -14 576 -14 z "},"ŋ":{"ha":833,"x_min":26,"x_max":779,"o":"m 579 506 q 557 581 579 557 q 489 605 536 605 q 367 547 420 605 q 293 393 313 489 l 216 0 l 26 0 l 136 570 q 163 734 159 682 l 345 734 q 338 674 345 723 q 326 588 332 625 l 328 588 q 595 748 432 748 q 779 563 779 748 q 768 466 779 519 l 661 -87 q 584 -235 643 -181 q 427 -288 524 -288 q 313 -282 359 -288 l 339 -148 l 373 -151 q 445 -129 422 -151 q 479 -41 467 -107 l 569 420 q 579 506 579 470 z "},"Ō":{"ha":833,"x_min":50,"x_max":820,"o":"m 343 -14 q 124 65 199 -14 q 50 298 50 143 q 85 538 50 410 q 181 753 120 667 q 329 884 242 840 q 526 929 416 929 q 745 852 670 929 q 820 622 820 776 q 785 381 820 511 q 687 164 749 252 q 538 32 625 77 q 343 -14 452 -14 m 616 605 q 496 772 616 772 q 371 711 423 772 q 286 530 318 651 q 254 316 254 410 q 374 144 254 144 q 498 206 446 144 q 584 389 551 268 q 616 605 616 510 m 355 1111 l 770 1111 l 748 997 l 333 997 l 355 1111 z "},"ō":{"ha":833,"x_min":52,"x_max":784,"o":"m 340 -14 q 125 57 199 -14 q 52 260 52 127 q 105 504 52 385 q 258 685 159 623 q 492 747 356 747 q 784 488 784 747 q 771 368 784 436 q 624 86 736 185 q 340 -14 512 -14 m 585 485 q 557 585 585 553 q 469 616 530 616 q 351 572 397 616 q 277 431 304 528 q 250 256 250 334 q 363 117 250 117 q 484 162 437 117 q 558 308 530 208 q 585 485 585 408 m 319 930 l 734 930 l 713 816 l 298 816 l 319 930 z "},"Ŏ":{"ha":833,"x_min":50,"x_max":820,"o":"m 343 -14 q 124 65 199 -14 q 50 298 50 143 q 85 538 50 410 q 181 753 120 667 q 329 884 242 840 q 526 929 416 929 q 745 852 670 929 q 820 622 820 776 q 785 381 820 511 q 687 164 749 252 q 538 32 625 77 q 343 -14 452 -14 m 616 605 q 496 772 616 772 q 371 711 423 772 q 286 530 318 651 q 254 316 254 410 q 374 144 254 144 q 498 206 446 144 q 584 389 551 268 q 616 605 616 510 m 532 968 q 380 1009 431 968 q 328 1128 328 1051 q 330 1156 328 1149 l 440 1156 l 440 1149 q 553 1074 440 1074 q 647 1094 613 1074 q 699 1156 681 1114 l 810 1156 q 532 968 750 968 z "},"ŏ":{"ha":833,"x_min":52,"x_max":784,"o":"m 340 -14 q 125 57 199 -14 q 52 260 52 127 q 105 504 52 385 q 258 685 159 623 q 492 747 356 747 q 784 488 784 747 q 771 368 784 436 q 624 86 736 185 q 340 -14 512 -14 m 585 485 q 557 585 585 553 q 469 616 530 616 q 351 572 397 616 q 277 431 304 528 q 250 256 250 334 q 363 117 250 117 q 484 162 437 117 q 558 308 530 208 q 585 485 585 408 m 500 802 q 348 844 399 802 q 296 963 296 886 q 298 991 296 983 l 408 991 l 408 984 q 522 909 408 909 q 615 928 581 909 q 667 991 649 948 l 778 991 q 500 802 718 802 z "},"Ŗ":{"ha":833,"x_min":22,"x_max":845,"o":"m 536 0 l 407 349 l 290 349 l 222 0 l 22 0 l 199 915 l 534 915 q 768 862 690 915 q 845 707 845 808 q 830 609 845 660 q 783 515 814 557 q 703 440 751 472 q 601 394 656 409 l 761 0 l 536 0 m 639 667 q 598 739 639 718 q 484 760 558 760 l 370 760 l 320 505 l 439 505 q 635 635 610 505 l 639 667 m 162 -307 l 166 -285 l 269 -66 l 444 -66 l 439 -92 l 274 -307 l 162 -307 z "},"ŗ":{"ha":833,"x_min":-20,"x_max":805,"o":"m 774 575 q 633 588 701 588 q 450 509 528 588 q 346 297 372 429 l 288 0 l 98 0 l 191 475 q 208 671 208 568 l 205 734 l 389 734 q 393 648 393 681 q 391 579 393 610 l 393 579 q 511 709 445 671 q 667 747 576 747 q 805 736 739 747 l 774 575 m -20 -307 l -16 -285 l 87 -66 l 261 -66 l 256 -92 l 92 -307 l -20 -307 z "},"Ŝ":{"ha":833,"x_min":3,"x_max":827,"o":"m 340 -14 q 94 54 181 -14 q 3 249 7 121 l 201 274 q 247 173 205 210 q 375 136 289 136 q 486 152 442 136 q 553 201 530 168 q 576 273 576 234 q 444 380 576 345 q 239 448 293 418 q 155 519 184 477 q 125 620 125 562 q 151 737 125 680 q 231 838 176 793 q 361 905 285 882 q 526 929 437 929 q 752 869 678 929 q 827 683 826 809 l 629 663 q 495 787 623 787 q 402 772 440 787 q 345 727 364 757 q 325 664 325 697 q 341 618 325 637 q 384 587 357 600 q 498 551 412 574 q 668 489 612 520 q 749 415 723 458 q 776 318 776 372 q 723 150 776 229 q 571 29 670 71 q 340 -14 473 -14 m 789 987 l 786 968 l 678 968 l 558 1059 l 555 1059 l 395 968 l 286 968 l 290 987 l 498 1156 l 653 1156 l 789 987 z "},"ŝ":{"ha":833,"x_min":46,"x_max":768,"o":"m 347 -14 q 123 35 195 -14 q 46 183 52 83 l 219 208 q 253 134 222 156 q 371 113 284 113 q 492 133 452 113 q 541 197 532 153 l 542 212 q 515 257 542 239 q 429 288 489 275 q 243 338 294 315 q 165 395 192 360 q 138 480 138 429 q 181 620 138 557 q 305 715 224 682 q 496 748 386 748 q 697 697 627 748 q 768 550 766 646 l 595 532 q 567 600 595 579 q 471 621 539 621 q 366 604 404 621 q 321 546 329 587 l 319 532 q 343 491 319 507 q 419 465 368 475 l 492 447 q 631 404 587 427 q 700 346 676 380 q 724 262 724 312 q 677 118 724 181 q 546 20 631 54 q 347 -14 460 -14 m 765 821 l 762 802 l 654 802 l 534 893 l 531 893 l 370 802 l 262 802 l 265 821 l 473 991 l 629 991 l 765 821 z "},"Ŧ":{"ha":833,"x_min":119,"x_max":899,"o":"m 593 760 l 548 526 l 703 526 l 677 397 l 523 397 l 446 0 l 245 0 l 323 397 l 169 397 l 194 526 l 348 526 l 393 760 l 119 760 l 149 915 l 899 915 l 869 760 l 593 760 z "},"ŧ":{"ha":833,"x_min":113,"x_max":753,"o":"m 224 334 l 113 334 l 138 463 l 250 463 l 277 605 l 165 605 l 190 734 l 313 734 l 410 925 l 529 925 l 492 734 l 753 734 l 728 605 l 467 605 l 439 463 l 701 463 l 675 334 l 414 334 l 397 245 q 389 189 389 205 q 414 137 389 153 q 491 121 438 121 q 667 139 574 121 l 643 13 q 591 5 616 9 q 539 -2 566 1 q 483 -7 512 -5 q 418 -9 453 -9 q 252 30 309 -9 q 195 152 195 68 q 203 228 195 178 l 224 334 z "},"Ũ":{"ha":833,"x_min":71,"x_max":852,"o":"m 332 -14 q 134 44 197 -14 q 71 224 71 102 q 86 358 71 283 l 194 915 l 394 915 l 286 360 q 273 249 273 296 q 296 167 273 191 q 368 143 319 143 q 480 194 438 143 q 546 367 522 245 l 652 915 l 852 915 l 747 368 q 607 80 708 174 q 332 -14 505 -14 m 646 964 q 588 976 616 964 q 534 1003 560 988 q 486 1029 509 1017 q 442 1041 463 1041 q 392 1023 410 1041 q 361 964 374 1006 l 268 964 q 341 1112 295 1068 q 458 1156 388 1156 q 517 1144 488 1156 q 571 1118 545 1133 q 618 1092 596 1103 q 661 1080 641 1080 q 712 1099 694 1080 q 743 1156 729 1118 l 834 1156 q 762 1009 809 1055 q 646 964 714 964 z "},"ũ":{"ha":833,"x_min":62,"x_max":804,"o":"m 353 734 l 273 322 q 265 244 265 279 q 353 129 265 129 q 466 190 414 129 q 534 340 517 250 l 610 734 l 801 734 l 690 164 q 673 67 681 119 q 664 0 666 16 l 482 0 q 503 146 488 62 l 499 146 q 245 -14 395 -14 q 62 172 62 -14 q 73 268 62 217 l 163 734 l 353 734 m 615 802 q 557 814 585 802 q 504 841 530 826 q 455 867 478 855 q 412 879 432 879 q 361 861 379 879 q 330 802 343 844 l 237 802 q 311 950 264 906 q 427 994 357 994 q 486 982 458 994 q 540 956 515 970 q 588 929 566 941 q 630 918 610 918 q 681 937 664 918 q 712 994 699 956 l 804 994 q 731 847 779 892 q 615 802 684 802 z "},"Ū":{"ha":833,"x_min":71,"x_max":852,"o":"m 332 -14 q 134 44 197 -14 q 71 224 71 102 q 86 358 71 283 l 194 915 l 394 915 l 286 360 q 273 249 273 296 q 296 167 273 191 q 368 143 319 143 q 480 194 438 143 q 546 367 522 245 l 652 915 l 852 915 l 747 368 q 607 80 708 174 q 332 -14 505 -14 m 355 1111 l 770 1111 l 748 997 l 333 997 l 355 1111 z "},"ū":{"ha":833,"x_min":62,"x_max":801,"o":"m 353 734 l 273 322 q 265 244 265 279 q 353 129 265 129 q 466 190 414 129 q 534 340 517 250 l 610 734 l 801 734 l 690 164 q 673 67 681 119 q 664 0 666 16 l 482 0 q 503 146 488 62 l 499 146 q 245 -14 395 -14 q 62 172 62 -14 q 73 268 62 217 l 163 734 l 353 734 m 319 930 l 734 930 l 713 816 l 298 816 l 319 930 z "},"Ŭ":{"ha":833,"x_min":71,"x_max":852,"o":"m 332 -14 q 134 44 197 -14 q 71 224 71 102 q 86 358 71 283 l 194 915 l 394 915 l 286 360 q 273 249 273 296 q 296 167 273 191 q 368 143 319 143 q 480 194 438 143 q 546 367 522 245 l 652 915 l 852 915 l 747 368 q 607 80 708 174 q 332 -14 505 -14 m 532 968 q 380 1009 431 968 q 328 1128 328 1051 q 330 1156 328 1149 l 440 1156 l 440 1149 q 553 1074 440 1074 q 647 1094 613 1074 q 699 1156 681 1114 l 810 1156 q 532 968 750 968 z "},"ŭ":{"ha":833,"x_min":62,"x_max":801,"o":"m 353 734 l 273 322 q 265 244 265 279 q 353 129 265 129 q 466 190 414 129 q 534 340 517 250 l 610 734 l 801 734 l 690 164 q 673 67 681 119 q 664 0 666 16 l 482 0 q 503 146 488 62 l 499 146 q 245 -14 395 -14 q 62 172 62 -14 q 73 268 62 217 l 163 734 l 353 734 m 500 802 q 348 844 399 802 q 296 963 296 886 q 298 991 296 983 l 408 991 l 408 984 q 522 909 408 909 q 615 928 581 909 q 667 991 649 948 l 778 991 q 500 802 718 802 z "},"Ų":{"ha":833,"x_min":71,"x_max":852,"o":"m 332 -14 q 134 44 197 -14 q 71 224 71 102 q 86 358 71 283 l 194 915 l 394 915 l 286 360 q 273 249 273 296 q 296 167 273 191 q 368 143 319 143 q 480 194 438 143 q 546 367 522 245 l 652 915 l 852 915 l 747 368 q 607 80 708 174 q 332 -14 505 -14 m 358 -288 q 259 -261 296 -288 q 221 -182 221 -235 q 261 -71 221 -125 q 363 14 300 -16 l 467 14 q 382 -63 414 -17 q 351 -144 351 -109 q 362 -176 351 -161 q 404 -191 373 -191 q 483 -173 441 -191 l 465 -266 q 358 -288 418 -288 z "},"ų":{"ha":833,"x_min":62,"x_max":801,"o":"m 353 734 l 273 322 q 265 244 265 279 q 353 129 265 129 q 466 190 414 129 q 534 340 517 250 l 610 734 l 801 734 l 690 164 q 673 67 681 119 q 664 0 666 16 l 482 0 q 503 146 488 62 l 499 146 q 245 -14 395 -14 q 62 172 62 -14 q 73 268 62 217 l 163 734 l 353 734 m 514 -288 q 415 -261 452 -288 q 377 -182 377 -235 q 417 -71 377 -125 q 519 14 456 -16 l 623 14 q 538 -63 570 -17 q 507 -144 507 -109 q 518 -176 507 -161 q 559 -191 529 -191 q 639 -173 597 -191 l 621 -266 q 514 -288 574 -288 z "},"Ŵ":{"ha":833,"x_min":72,"x_max":939,"o":"m 619 0 l 451 0 l 441 212 q 431 431 437 252 q 240 0 429 427 l 72 0 l 106 915 l 282 915 l 251 444 q 227 263 248 387 q 296 429 248 323 l 408 659 l 541 659 q 562 441 554 519 q 568 294 570 363 l 568 263 l 573 281 q 615 444 600 393 l 764 915 l 939 915 l 619 0 m 787 987 l 783 968 l 675 968 l 555 1059 l 553 1059 l 392 968 l 283 968 l 287 987 l 495 1156 l 650 1156 l 787 987 z "},"ŵ":{"ha":833,"x_min":60,"x_max":897,"o":"m 626 0 l 460 0 l 426 319 l 420 389 q 409 361 417 378 q 225 0 401 344 l 60 0 l 79 734 l 233 734 l 210 322 q 193 169 203 221 l 216 219 l 388 554 l 519 554 l 553 245 q 558 169 558 198 q 602 322 569 222 l 744 734 l 897 734 l 626 0 m 755 821 l 751 802 l 644 802 l 524 893 l 521 893 l 360 802 l 252 802 l 255 821 l 463 991 l 618 991 l 755 821 z "},"Ŷ":{"ha":833,"x_min":109,"x_max":937,"o":"m 445 0 l 245 0 l 319 377 l 109 915 l 318 915 l 447 531 l 728 915 l 937 915 l 518 377 l 445 0 m 787 987 l 783 968 l 675 968 l 555 1059 l 553 1059 l 392 968 l 283 968 l 287 987 l 495 1156 l 650 1156 l 787 987 z "},"ŷ":{"ha":833,"x_min":-28,"x_max":878,"o":"m 93 -288 q -28 -279 20 -288 l -2 -144 l 32 -147 l 66 -149 q 163 -120 123 -149 q 241 -25 203 -91 l 260 7 l 97 734 l 298 734 l 358 376 q 361 358 359 370 q 363 335 362 347 q 374 238 365 324 q 382 150 382 153 l 394 175 l 487 374 l 679 734 l 878 734 l 425 -39 q 268 -234 342 -179 q 93 -288 193 -288 m 755 821 l 751 802 l 644 802 l 524 893 l 521 893 l 360 802 l 252 802 l 255 821 l 463 991 l 618 991 l 755 821 z "},"ſ":{"ha":833,"x_min":182,"x_max":886,"o":"m 667 1027 q 886 1008 776 1027 l 861 883 q 675 896 762 896 q 571 868 608 896 q 522 772 534 840 l 372 0 l 182 0 l 335 790 q 444 967 358 907 q 667 1027 529 1027 z "},"Ǻ":{"ha":833,"x_min":-71,"x_max":831,"o":"m 621 740 l 762 0 l 563 0 l 538 178 l 222 178 l 129 0 l -71 0 l 358 739 q 339 800 339 765 q 362 878 339 840 q 431 939 386 917 q 532 961 475 961 q 635 931 597 961 q 673 851 673 902 q 621 740 673 789 m 477 673 q 440 596 463 642 q 300 329 418 550 l 518 329 l 490 537 q 477 673 477 637 m 467 989 l 471 1010 l 656 1156 l 831 1156 l 826 1127 l 569 989 l 467 989 m 576 833 q 559 864 576 853 q 515 874 543 874 q 455 856 476 874 q 435 818 435 838 q 451 789 435 800 q 496 778 467 778 q 541 786 522 778 q 568 807 559 794 q 576 833 576 821 z "},"ǻ":{"ha":833,"x_min":35,"x_max":827,"o":"m 224 -14 q 84 28 133 -14 q 35 151 35 71 q 41 208 35 177 q 370 442 87 439 l 522 445 l 528 482 q 535 539 535 515 q 456 624 535 624 q 379 600 408 624 q 334 520 351 575 l 137 530 q 488 747 214 747 q 666 698 605 747 q 726 553 726 649 q 719 483 726 522 l 667 217 q 660 159 660 180 q 670 121 660 134 q 707 109 681 109 q 749 113 728 109 l 730 9 q 698 2 712 5 q 670 -3 684 -1 q 640 -7 656 -5 q 604 -8 625 -8 q 511 20 540 -8 q 483 103 483 48 l 484 131 l 480 131 q 360 20 422 54 q 224 -14 298 -14 m 500 340 l 410 338 q 304 319 338 337 q 255 263 271 302 q 239 186 239 225 q 304 119 239 119 q 425 173 370 119 q 494 302 479 226 l 500 340 m 471 679 q 368 708 406 679 q 330 789 330 738 q 354 867 330 829 q 423 928 378 906 q 524 949 468 949 q 626 921 588 949 q 664 840 664 892 q 639 759 664 798 q 570 700 614 721 q 471 679 526 679 m 568 821 q 551 852 568 842 q 507 863 534 863 q 447 844 467 863 q 426 806 426 826 q 442 777 426 788 q 488 766 458 766 q 546 783 524 766 q 568 821 568 799 m 445 970 l 449 991 l 652 1156 l 827 1156 l 821 1127 l 560 970 l 445 970 z "},"Ǽ":{"ha":833,"x_min":-71,"x_max":914,"o":"m 397 262 l 226 262 l 106 0 l -71 0 l 359 915 l 904 915 l 878 778 l 668 778 l 621 537 l 823 537 l 796 401 l 595 401 l 543 137 l 779 137 l 753 0 l 347 0 l 397 262 m 498 781 l 459 781 l 401 646 l 287 397 l 424 397 l 498 781 m 532 969 l 536 990 l 739 1155 l 914 1155 l 909 1126 l 648 969 l 532 969 z "},"ǽ":{"ha":833,"x_min":-24,"x_max":837,"o":"m 467 328 l 467 327 q 456 234 456 277 q 476 142 456 175 q 536 109 496 109 q 603 134 576 109 q 650 204 630 160 l 764 174 q 515 -14 677 -14 q 400 23 437 -14 q 354 144 362 60 q 244 26 306 65 q 115 -14 182 -14 q 11 26 46 -14 q -24 137 -24 65 q -18 205 -24 168 q 253 448 29 444 l 353 450 q 367 542 367 518 q 309 624 367 624 q 216 524 245 624 l 77 536 q 175 694 111 642 q 332 747 239 747 q 481 653 452 747 q 666 747 556 747 q 837 530 837 747 q 833 459 837 496 q 812 328 829 422 l 467 328 m 119 165 q 159 110 119 110 q 260 168 212 110 q 324 302 309 225 l 332 338 l 262 336 q 180 313 208 335 q 135 247 151 292 q 119 165 119 203 m 633 627 q 578 605 606 627 q 526 543 549 583 q 491 448 503 503 l 695 448 q 701 522 701 490 q 685 600 701 572 q 633 627 670 627 m 408 803 l 412 824 l 615 989 l 790 989 l 785 960 l 524 803 l 408 803 z "},"Ǿ":{"ha":833,"x_min":-36,"x_max":903,"o":"m 343 -14 q 122 67 197 -14 l 32 -29 l -36 22 l 76 141 q 50 298 50 206 q 84 535 50 406 q 180 752 119 665 q 329 884 241 839 q 526 929 416 929 q 745 851 671 929 l 836 947 l 903 897 l 792 779 q 820 621 820 711 q 785 381 820 511 q 688 165 749 252 q 539 32 626 77 q 343 -14 452 -14 m 616 591 l 267 221 q 374 144 295 144 q 496 203 444 144 q 581 379 548 262 q 616 591 614 495 m 254 330 l 602 699 q 496 772 575 772 q 373 714 425 772 q 288 539 321 656 q 254 330 256 423 m 434 969 l 438 990 l 641 1155 l 816 1155 l 810 1126 l 549 969 l 434 969 z "},"ǿ":{"ha":833,"x_min":5,"x_max":825,"o":"m 340 -14 q 130 52 204 -14 l 60 -14 l 5 39 l 83 112 q 52 259 52 173 q 105 504 52 385 q 258 686 159 624 q 492 747 357 747 q 703 688 631 747 l 769 749 l 825 696 l 753 629 q 784 487 784 572 q 753 294 784 393 q 664 127 722 195 q 526 23 607 59 q 340 -14 444 -14 m 585 473 l 263 176 q 363 117 289 117 q 479 158 433 117 q 552 287 524 199 q 585 473 579 376 m 250 267 l 570 564 q 469 616 545 616 q 353 574 398 616 q 280 440 307 532 q 250 267 253 348 m 401 803 l 406 824 l 608 989 l 783 989 l 778 960 l 517 803 l 401 803 z "},"·":{"ha":833,"x_min":302,"x_max":538,"o":"m 302 283 l 342 490 l 538 490 l 498 283 l 302 283 z "},"Ẁ":{"ha":833,"x_min":72,"x_max":939,"o":"m 619 0 l 451 0 l 441 212 q 431 431 437 252 q 240 0 429 427 l 72 0 l 106 915 l 282 915 l 251 444 q 227 263 248 387 q 296 429 248 323 l 408 659 l 541 659 q 562 441 554 519 q 568 294 570 363 l 568 263 l 573 281 q 615 444 600 393 l 764 915 l 939 915 l 619 0 m 530 969 l 330 1126 l 335 1155 l 510 1155 l 649 990 l 645 969 l 530 969 z "},"ẁ":{"ha":833,"x_min":60,"x_max":897,"o":"m 626 0 l 460 0 l 426 319 l 420 389 q 409 361 417 378 q 225 0 401 344 l 60 0 l 79 734 l 233 734 l 210 322 q 193 169 203 221 l 216 219 l 388 554 l 519 554 l 553 245 q 558 169 558 198 q 602 322 569 222 l 744 734 l 897 734 l 626 0 m 469 803 l 269 960 l 275 989 l 450 989 l 589 824 l 585 803 l 469 803 z "},"Ẃ":{"ha":833,"x_min":72,"x_max":939,"o":"m 619 0 l 451 0 l 441 212 q 431 431 437 252 q 240 0 429 427 l 72 0 l 106 915 l 282 915 l 251 444 q 227 263 248 387 q 296 429 248 323 l 408 659 l 541 659 q 562 441 554 519 q 568 294 570 363 l 568 263 l 573 281 q 615 444 600 393 l 764 915 l 939 915 l 619 0 m 436 970 l 440 991 l 643 1156 l 818 1156 l 812 1127 l 551 970 l 436 970 z "},"ẃ":{"ha":833,"x_min":60,"x_max":897,"o":"m 626 0 l 460 0 l 426 319 l 420 389 q 409 361 417 378 q 225 0 401 344 l 60 0 l 79 734 l 233 734 l 210 322 q 193 169 203 221 l 216 219 l 388 554 l 519 554 l 553 245 q 558 169 558 198 q 602 322 569 222 l 744 734 l 897 734 l 626 0 m 397 803 l 401 824 l 604 989 l 779 989 l 774 960 l 513 803 l 397 803 z "},"Ẅ":{"ha":833,"x_min":72,"x_max":939,"o":"m 619 0 l 451 0 l 441 212 q 431 431 437 252 q 240 0 429 427 l 72 0 l 106 915 l 282 915 l 251 444 q 227 263 248 387 q 296 429 248 323 l 408 659 l 541 659 q 562 441 554 519 q 568 294 570 363 l 568 263 l 573 281 q 615 444 600 393 l 764 915 l 939 915 l 619 0 m 604 981 l 633 1129 l 787 1129 l 758 981 l 604 981 m 316 981 l 345 1129 l 497 1129 l 468 981 l 316 981 z "},"ẅ":{"ha":833,"x_min":60,"x_max":897,"o":"m 626 0 l 460 0 l 426 319 l 420 389 q 409 361 417 378 q 225 0 401 344 l 60 0 l 79 734 l 233 734 l 210 322 q 193 169 203 221 l 216 219 l 388 554 l 519 554 l 553 245 q 558 169 558 198 q 602 322 569 222 l 744 734 l 897 734 l 626 0 m 574 827 l 603 975 l 757 975 l 728 827 l 574 827 m 286 827 l 315 975 l 467 975 l 438 827 l 286 827 z "},"Ỳ":{"ha":833,"x_min":109,"x_max":937,"o":"m 445 0 l 245 0 l 319 377 l 109 915 l 318 915 l 447 531 l 728 915 l 937 915 l 518 377 l 445 0 m 529 970 l 329 1127 l 334 1156 l 509 1156 l 648 991 l 644 970 l 529 970 z "},"ỳ":{"ha":833,"x_min":-28,"x_max":878,"o":"m 93 -288 q -28 -279 20 -288 l -2 -144 l 32 -147 l 66 -149 q 163 -120 123 -149 q 241 -25 203 -91 l 260 7 l 97 734 l 298 734 l 358 376 q 361 358 359 370 q 363 335 362 347 q 374 238 365 324 q 382 150 382 153 l 394 175 l 487 374 l 679 734 l 878 734 l 425 -39 q 268 -234 342 -179 q 93 -288 193 -288 m 511 803 l 311 960 l 316 989 l 491 989 l 630 824 l 626 803 l 511 803 z "},"‛":{"ha":833,"x_min":374,"x_max":627,"o":"m 503 585 l 374 1006 l 594 1006 l 627 585 l 503 585 z "},"‾":{"ha":833,"x_min":117,"x_max":969,"o":"m 117 985 l 130 1050 l 969 1050 l 956 985 l 117 985 z "},"₤":{"ha":833,"x_min":-2,"x_max":819,"o":"m 783 246 q 656 65 740 130 q 469 0 572 0 l -2 0 l 25 139 q 115 195 90 172 q 158 252 141 218 q 182 331 175 286 l 55 331 l 75 432 l 195 432 l 210 508 l 90 508 l 109 609 l 230 609 l 238 652 q 352 859 265 789 q 581 929 438 929 q 750 884 692 929 q 819 732 807 839 l 654 700 q 627 776 650 752 q 559 800 604 800 q 463 761 497 800 q 412 637 428 722 l 406 609 l 600 609 l 581 508 l 387 508 l 372 432 l 566 432 l 546 331 l 352 331 l 351 328 q 325 252 342 283 q 281 196 309 220 q 192 142 253 172 l 450 142 q 563 175 520 142 q 629 273 606 209 l 783 246 z "},"℮":{"ha":833,"x_min":64,"x_max":783,"o":"m 425 -22 q 235 27 317 -22 q 109 165 153 77 q 64 360 64 253 q 109 558 64 472 q 238 694 153 644 q 425 743 322 743 q 610 694 528 743 q 738 554 692 644 q 783 347 783 463 l 263 347 l 263 115 q 335 76 293 92 q 425 60 378 60 q 567 96 507 60 q 678 217 626 133 l 748 176 q 654 59 699 99 q 553 -1 610 20 q 425 -22 496 -22 m 423 661 q 263 610 330 661 l 263 429 l 587 429 l 587 608 q 423 661 516 661 z "},"⅛":{"ha":833,"x_min":-7,"x_max":820,"o":"m 218 786 q 180 754 205 767 q 123 732 155 741 q 71 724 91 724 l 92 836 q 179 859 132 836 q 250 915 227 881 l 373 915 l 273 399 l 143 399 l 218 786 m 102 0 l -7 0 l 671 915 l 780 915 l 102 0 m 678 401 q 642 438 678 438 q 598 412 614 438 q 583 355 583 387 q 619 314 583 314 q 653 326 640 314 q 672 361 666 337 q 678 401 678 385 m 652 190 q 603 235 652 235 q 560 222 577 235 q 535 178 543 208 q 526 125 526 148 q 536 94 526 105 q 575 82 547 82 q 618 95 602 82 q 643 139 635 107 q 652 190 652 171 m 557 -6 q 431 24 475 -6 q 387 115 387 54 q 417 217 387 176 q 511 273 448 258 l 511 275 q 448 367 448 309 q 474 448 448 410 q 548 506 500 486 q 659 526 597 526 q 780 498 739 526 q 820 420 820 470 q 711 275 820 321 l 710 273 q 770 243 752 264 q 789 187 789 222 q 773 113 789 151 q 729 48 758 74 q 658 8 701 22 q 557 -6 615 -6 z "},"⅜":{"ha":833,"x_min":7,"x_max":847,"o":"m 176 386 q 49 422 91 386 q 7 541 7 458 l 7 543 l 150 561 q 149 545 149 549 q 197 479 149 479 q 250 507 233 479 q 268 567 268 534 q 249 605 268 593 q 186 616 231 616 l 159 616 l 176 705 l 201 705 q 257 715 236 705 q 289 749 278 725 q 300 800 300 773 q 264 835 300 835 q 219 816 235 835 q 194 760 204 797 l 64 768 q 143 884 90 846 q 286 923 197 923 q 397 894 359 923 q 436 814 436 865 q 318 667 436 708 l 317 663 q 403 567 403 644 l 399 538 q 328 427 387 469 q 176 386 269 386 m 149 0 l 39 0 l 718 915 l 827 915 l 149 0 m 705 401 q 669 438 705 438 q 626 412 641 438 q 610 355 610 387 q 646 314 610 314 q 680 326 667 314 q 699 361 693 337 q 705 401 705 385 m 679 190 q 630 235 679 235 q 587 222 604 235 q 562 178 570 208 q 553 125 553 148 q 564 94 553 105 q 602 82 574 82 q 646 95 629 82 q 670 139 662 107 q 679 190 679 171 m 585 -6 q 458 24 502 -6 q 414 115 414 54 q 445 217 414 176 q 538 273 475 258 l 538 275 q 475 367 475 309 q 501 448 475 410 q 575 506 527 486 q 686 526 624 526 q 807 498 766 526 q 847 420 847 470 q 738 275 847 321 l 737 273 q 798 243 779 264 q 816 187 816 222 q 801 113 816 151 q 756 48 785 74 q 685 8 728 22 q 585 -6 642 -6 z "},"⅝":{"ha":833,"x_min":20,"x_max":847,"o":"m 183 391 q 61 426 102 391 q 20 530 20 462 l 20 534 l 157 544 l 157 534 q 166 492 157 503 q 197 480 176 480 q 238 497 222 480 q 262 548 254 515 q 271 601 271 581 q 258 636 271 628 q 225 645 245 645 q 165 618 188 645 l 41 618 l 129 915 l 442 915 l 422 811 l 218 811 l 186 701 q 286 732 222 732 q 377 702 345 732 q 409 614 409 672 q 404 566 409 589 q 330 437 388 483 q 183 391 272 391 m 149 0 l 39 0 l 718 915 l 827 915 l 149 0 m 705 401 q 669 438 705 438 q 626 412 641 438 q 610 355 610 387 q 646 314 610 314 q 680 326 667 314 q 699 361 693 337 q 705 401 705 385 m 679 190 q 630 235 679 235 q 587 222 604 235 q 562 178 570 208 q 553 125 553 148 q 564 94 553 105 q 602 82 574 82 q 646 95 629 82 q 670 139 662 107 q 679 190 679 171 m 585 -6 q 458 24 502 -6 q 414 115 414 54 q 445 217 414 176 q 538 273 475 258 l 538 275 q 475 367 475 309 q 501 448 475 410 q 575 506 527 486 q 686 526 624 526 q 807 498 766 526 q 847 420 847 470 q 738 275 847 321 l 737 273 q 798 243 779 264 q 816 187 816 222 q 801 113 816 151 q 756 48 785 74 q 685 8 728 22 q 585 -6 642 -6 z "},"⅞":{"ha":833,"x_min":-24,"x_max":820,"o":"m 234 399 l 96 399 q 138 534 111 473 q 212 654 166 594 q 355 811 258 713 l 91 811 l 111 915 l 511 915 l 492 819 q 342 651 386 709 q 275 536 299 593 q 234 399 250 479 m 85 0 l -24 0 l 654 915 l 763 915 l 85 0 m 678 401 q 642 438 678 438 q 598 412 614 438 q 583 355 583 387 q 619 314 583 314 q 653 326 640 314 q 672 361 666 337 q 678 401 678 385 m 652 190 q 603 235 652 235 q 560 222 577 235 q 535 178 543 208 q 526 125 526 148 q 536 94 526 105 q 575 82 547 82 q 618 95 602 82 q 643 139 635 107 q 652 190 652 171 m 557 -6 q 431 24 475 -6 q 387 115 387 54 q 417 217 387 176 q 511 273 448 258 l 511 275 q 448 367 448 309 q 474 448 448 410 q 548 506 500 486 q 659 526 597 526 q 780 498 739 526 q 820 420 820 470 q 711 275 820 321 l 710 273 q 770 243 752 264 q 789 187 789 222 q 773 113 789 151 q 729 48 758 74 q 658 8 701 22 q 557 -6 615 -6 z "},"΄":{"ha":833,"x_min":409,"x_max":667,"o":"m 409 814 l 414 837 l 492 1055 l 667 1055 l 662 1030 l 480 814 l 409 814 z "},"΅":{"ha":833,"x_min":260,"x_max":785,"o":"m 437 814 l 441 837 l 534 1107 l 694 1107 l 690 1082 l 515 814 l 437 814 m 260 835 l 289 985 l 425 985 l 395 835 l 260 835 m 621 835 l 650 985 l 785 985 l 756 835 l 621 835 z "},"Ά":{"ha":833,"x_min":-71,"x_max":762,"o":"m 762 0 l 563 0 l 544 224 l 235 224 l 129 0 l -71 0 l 407 915 l 640 915 l 762 0 m 500 791 q 468 718 489 764 q 306 374 448 671 l 531 374 l 508 632 l 500 768 l 500 791 m 62 675 l 66 697 l 145 916 l 319 916 l 315 890 l 133 675 l 62 675 z "},"Έ":{"ha":833,"x_min":22,"x_max":876,"o":"m 151 0 l 328 915 l 876 915 l 846 760 l 498 760 l 455 541 l 762 541 l 732 386 l 425 386 l 380 155 l 756 155 l 726 0 l 151 0 m 22 674 l 27 696 l 106 915 l 280 915 l 275 890 l 94 674 l 22 674 z "},"Ή":{"ha":833,"x_min":22,"x_max":900,"o":"m 532 0 l 608 389 l 416 389 l 340 0 l 151 0 l 328 915 l 518 915 l 448 555 l 640 555 l 710 915 l 900 915 l 722 0 l 532 0 m 22 674 l 27 696 l 106 915 l 280 915 l 275 890 l 94 674 l 22 674 z "},"Ί":{"ha":833,"x_min":23,"x_max":919,"o":"m 298 915 l 919 915 l 889 760 l 675 760 l 557 155 l 771 155 l 741 0 l 120 0 l 150 155 l 364 155 l 482 760 l 268 760 l 298 915 m 23 675 l 28 697 l 106 916 l 281 916 l 276 890 l 94 675 l 23 675 z "},"Ό":{"ha":833,"x_min":22,"x_max":850,"o":"m 400 -14 q 201 63 270 -14 q 132 292 132 140 q 166 528 132 398 q 258 747 199 657 q 399 883 317 837 q 583 929 481 929 q 782 854 713 929 q 850 630 850 780 q 817 394 850 524 q 725 172 784 264 q 583 33 665 79 q 400 -14 501 -14 m 648 619 q 553 772 648 772 q 445 708 492 772 q 367 520 397 644 q 336 302 336 395 q 431 144 336 144 q 538 210 491 144 q 617 402 586 275 q 648 619 648 528 m 22 674 l 27 696 l 106 915 l 280 915 l 275 890 l 94 674 l 22 674 z "},"Ύ":{"ha":833,"x_min":22,"x_max":940,"o":"m 536 0 l 342 0 l 401 302 l 294 915 l 489 915 l 536 507 l 745 915 l 940 915 l 595 302 l 536 0 m 22 674 l 27 696 l 106 915 l 280 915 l 275 890 l 94 674 l 22 674 z "},"Ώ":{"ha":833,"x_min":22,"x_max":830,"o":"m 22 674 l 27 696 l 106 915 l 280 915 l 275 890 l 94 674 l 22 674 m 530 775 q 428 731 473 775 q 354 601 382 687 q 326 422 326 515 q 335 295 326 342 q 366 206 345 248 l 326 0 l 31 0 l 60 155 l 119 155 q 215 147 148 155 q 153 274 170 201 q 137 433 137 346 q 192 685 137 571 q 346 864 248 800 q 559 929 444 929 q 757 851 684 929 q 830 633 830 772 q 766 362 830 489 q 587 147 703 235 l 623 151 q 695 155 670 155 l 758 155 l 728 0 l 419 0 l 459 206 q 632 604 632 370 q 605 731 632 686 q 530 775 577 775 z "},"ΐ":{"ha":833,"x_min":127,"x_max":777,"o":"m 470 -14 q 242 171 242 -14 q 251 250 242 205 l 319 605 l 127 605 l 152 734 l 534 734 l 439 243 q 435 200 435 221 q 505 127 435 127 q 643 200 580 127 l 734 114 q 470 -14 625 -14 m 428 814 l 433 837 l 525 1107 l 686 1107 l 681 1082 l 506 814 l 428 814 m 251 835 l 280 985 l 416 985 l 387 835 l 251 835 m 612 835 l 641 985 l 777 985 l 747 835 l 612 835 z "},"Α":{"ha":833,"x_min":-71,"x_max":762,"o":"m 762 0 l 563 0 l 544 224 l 235 224 l 129 0 l -71 0 l 407 915 l 640 915 l 762 0 m 500 791 q 468 718 489 764 q 306 374 448 671 l 531 374 l 508 632 l 500 768 l 500 791 z "},"Β":{"ha":833,"x_min":22,"x_max":817,"o":"m 416 0 l 22 0 l 199 915 l 555 915 q 749 870 682 915 q 817 738 817 826 q 758 572 817 641 q 589 481 700 503 q 738 426 688 470 q 789 307 789 381 q 764 194 789 253 q 690 91 740 136 q 570 23 640 46 q 416 0 500 0 m 608 690 q 513 766 608 766 l 371 766 l 329 550 l 472 550 q 605 658 583 550 q 608 690 608 677 m 589 310 q 559 378 589 355 q 469 402 528 402 l 300 402 l 251 149 l 425 149 q 514 169 478 149 q 570 229 551 189 q 589 310 589 268 z "},"Δ":{"ha":833,"x_min":-59,"x_max":781,"o":"m 409 915 l 643 915 l 781 153 l 751 0 l -59 0 l -29 153 l 409 915 m 583 165 l 514 585 q 504 697 508 626 q 499 786 499 768 q 406 583 443 655 l 176 165 l 583 165 z "},"Ε":{"ha":833,"x_min":22,"x_max":856,"o":"m 22 0 l 199 915 l 856 915 l 826 760 l 370 760 l 327 541 l 742 541 l 712 386 l 297 386 l 252 155 l 736 155 l 706 0 l 22 0 z "},"Ζ":{"ha":833,"x_min":-12,"x_max":850,"o":"m 701 0 l -12 0 l 16 142 l 590 758 l 186 758 l 217 915 l 850 915 l 823 776 l 248 157 l 731 157 l 701 0 z "},"Η":{"ha":833,"x_min":22,"x_max":846,"o":"m 469 0 l 545 389 l 298 389 l 222 0 l 22 0 l 200 915 l 400 915 l 330 555 l 576 555 l 646 915 l 846 915 l 669 0 l 469 0 z "},"Ι":{"ha":833,"x_min":35,"x_max":834,"o":"m 213 915 l 834 915 l 804 760 l 590 760 l 472 155 l 686 155 l 656 0 l 35 0 l 65 155 l 279 155 l 397 760 l 183 760 l 213 915 z "},"Κ":{"ha":833,"x_min":21,"x_max":927,"o":"m 526 0 l 380 378 l 276 281 l 221 0 l 21 0 l 199 915 l 399 915 l 320 509 l 694 915 l 927 915 l 539 522 l 762 0 l 526 0 z "},"Λ":{"ha":833,"x_min":-58,"x_max":749,"o":"m -58 0 l 420 915 l 627 915 l 749 0 l 543 0 l 488 587 q 484 688 484 644 q 485 715 484 710 q 462 655 475 687 q 441 608 448 624 q 149 0 435 592 l -58 0 z "},"Μ":{"ha":833,"x_min":-4,"x_max":873,"o":"m 545 0 l 659 589 q 683 691 666 623 q 709 793 700 760 q 614 562 636 608 l 468 244 l 320 244 l 296 562 q 290 793 292 629 q 260 589 271 644 l 145 0 l -4 0 l 174 915 l 409 915 l 435 576 l 436 545 q 430 420 436 515 q 488 576 465 521 l 646 915 l 873 915 l 695 0 l 545 0 z "},"Ν":{"ha":833,"x_min":20,"x_max":848,"o":"m 436 0 l 309 685 l 300 591 q 281 445 288 480 l 195 0 l 20 0 l 198 915 l 427 915 l 557 212 q 586 459 569 374 l 674 915 l 848 915 l 671 0 l 436 0 z "},"Ξ":{"ha":833,"x_min":7,"x_max":848,"o":"m 166 749 l 198 915 l 848 915 l 817 749 l 166 749 m 7 0 l 39 165 l 716 165 l 684 0 l 7 0 m 692 548 l 663 393 l 182 393 l 212 548 l 692 548 z "},"Ο":{"ha":833,"x_min":50,"x_max":820,"o":"m 343 -14 q 124 65 199 -14 q 50 298 50 143 q 85 538 50 410 q 181 753 120 667 q 329 884 242 840 q 526 929 416 929 q 745 852 670 929 q 820 622 820 776 q 785 381 820 511 q 687 164 749 252 q 538 32 625 77 q 343 -14 452 -14 m 616 605 q 496 772 616 772 q 371 711 423 772 q 286 530 318 651 q 254 316 254 410 q 374 144 254 144 q 498 206 446 144 q 584 389 551 268 q 616 605 616 510 z "},"Π":{"ha":833,"x_min":22,"x_max":846,"o":"m 469 0 l 614 749 l 368 749 l 222 0 l 22 0 l 200 915 l 846 915 l 669 0 l 469 0 z "},"Ρ":{"ha":833,"x_min":21,"x_max":832,"o":"m 418 323 l 284 323 l 221 0 l 21 0 l 199 915 l 524 915 q 754 859 675 915 q 832 696 832 804 q 802 552 832 624 q 719 429 772 479 q 589 351 665 378 q 418 323 513 323 m 627 660 q 588 736 627 713 q 472 760 549 760 l 369 760 l 314 477 l 422 477 q 623 623 595 477 q 627 660 627 643 z "},"Σ":{"ha":833,"x_min":-3,"x_max":850,"o":"m -3 0 l 27 159 l 401 482 l 155 757 l 186 915 l 850 915 l 818 749 l 382 749 l 584 528 l 566 437 l 246 165 l 745 165 l 713 0 l -3 0 z "},"Τ":{"ha":833,"x_min":118,"x_max":899,"o":"m 593 760 l 446 0 l 245 0 l 393 760 l 118 760 l 148 915 l 899 915 l 869 760 l 593 760 z "},"Υ":{"ha":833,"x_min":109,"x_max":937,"o":"m 445 0 l 245 0 l 319 377 l 109 915 l 318 915 l 447 531 l 728 915 l 937 915 l 518 377 l 445 0 z "},"Χ":{"ha":833,"x_min":-71,"x_max":912,"o":"m 552 0 l 412 334 l 140 0 l -71 0 l 334 482 l 134 915 l 346 915 l 468 623 l 702 915 l 912 915 l 538 482 l 762 0 l 552 0 z "},"Ψ":{"ha":833,"x_min":68,"x_max":909,"o":"m 479 269 l 427 0 l 264 0 l 317 269 l 310 269 q 68 504 68 269 q 81 621 68 553 l 138 915 l 300 915 l 242 618 q 232 530 232 567 q 259 444 232 468 q 340 419 287 419 l 346 419 l 442 915 l 604 915 l 508 419 l 514 419 q 629 467 589 419 q 689 618 669 514 l 747 915 l 909 915 l 852 621 q 727 359 819 450 q 486 269 635 269 l 479 269 z "},"Ω":{"ha":833,"x_min":-37,"x_max":830,"o":"m 496 775 q 374 727 429 775 q 289 591 319 678 q 258 422 258 504 q 278 309 258 360 q 338 206 298 258 l 298 0 l -37 0 l -7 155 l 71 155 q 188 147 113 155 q 69 433 69 259 q 100 616 69 527 q 195 778 130 705 q 347 890 260 851 q 526 929 435 929 q 684 893 614 929 q 792 790 753 857 q 830 633 830 723 q 799 458 830 551 q 707 286 768 364 q 559 147 646 207 q 682 155 639 155 l 758 155 l 728 0 l 392 0 l 432 206 q 548 331 507 271 q 611 463 589 391 q 632 604 632 536 q 596 731 632 686 q 496 775 560 775 z "},"Ϊ":{"ha":833,"x_min":35,"x_max":834,"o":"m 213 915 l 834 915 l 804 760 l 590 760 l 472 155 l 686 155 l 656 0 l 35 0 l 65 155 l 279 155 l 397 760 l 183 760 l 213 915 m 603 980 l 632 1128 l 786 1128 l 757 980 l 603 980 m 315 980 l 345 1128 l 496 1128 l 467 980 l 315 980 z "},"Ϋ":{"ha":833,"x_min":109,"x_max":937,"o":"m 445 0 l 245 0 l 319 377 l 109 915 l 318 915 l 447 531 l 728 915 l 937 915 l 518 377 l 445 0 m 603 980 l 632 1128 l 786 1128 l 757 980 l 603 980 m 315 980 l 345 1128 l 496 1128 l 467 980 l 315 980 z "},"ά":{"ha":833,"x_min":32,"x_max":904,"o":"m 536 161 q 409 27 475 68 q 259 -14 343 -14 q 32 224 32 -14 q 47 363 32 286 q 425 747 123 747 q 568 703 513 747 q 641 574 624 659 l 643 574 q 724 734 677 661 l 904 734 q 801 563 856 669 q 720 377 745 456 q 714 248 714 311 q 739 0 714 115 l 556 0 q 539 161 539 77 l 536 161 m 232 235 q 254 145 232 174 q 322 117 276 117 q 438 185 382 117 q 530 368 495 254 l 532 422 q 504 567 532 517 q 424 616 477 616 q 323 568 363 616 q 258 413 284 521 q 232 235 232 306 m 450 814 l 454 837 l 533 1055 l 707 1055 l 703 1030 l 521 814 l 450 814 z "},"έ":{"ha":833,"x_min":53,"x_max":806,"o":"m 378 114 q 506 141 441 114 q 629 220 571 169 l 722 125 q 347 -14 558 -14 q 131 33 208 -14 q 53 163 53 79 q 88 270 53 224 q 183 344 123 315 q 313 378 243 373 l 314 380 q 193 427 241 387 q 144 524 144 467 q 192 637 144 585 q 325 718 239 689 q 519 747 412 747 q 806 619 729 747 l 667 536 q 596 602 643 578 q 493 626 550 626 q 370 599 415 626 q 326 529 326 572 q 584 442 326 442 l 560 322 q 334 290 414 322 q 253 194 254 258 q 283 137 253 161 q 378 114 313 114 m 463 814 l 468 837 l 547 1055 l 721 1055 l 716 1030 l 534 814 l 463 814 z "},"ή":{"ha":833,"x_min":28,"x_max":785,"o":"m 435 -288 l 574 427 q 584 514 584 479 q 562 585 584 564 q 496 605 541 605 q 370 550 422 605 q 296 394 317 494 l 220 0 l 28 0 l 140 577 q 150 677 150 623 q 146 734 150 705 l 329 734 q 336 668 336 704 q 330 608 336 635 l 332 608 q 454 716 391 684 q 600 747 517 747 q 740 708 694 747 q 785 582 785 669 q 775 489 785 541 l 625 -288 l 435 -288 m 463 814 l 468 837 l 547 1055 l 721 1055 l 716 1030 l 534 814 l 463 814 z "},"ί":{"ha":833,"x_min":127,"x_max":734,"o":"m 470 -14 q 242 171 242 -14 q 251 250 242 205 l 319 605 l 127 605 l 152 734 l 534 734 l 439 243 q 435 200 435 221 q 505 127 435 127 q 643 200 580 127 l 734 114 q 470 -14 625 -14 m 429 814 l 434 837 l 513 1055 l 687 1055 l 682 1030 l 500 814 l 429 814 z "},"ΰ":{"ha":833,"x_min":72,"x_max":779,"o":"m 339 -14 q 137 38 203 -14 q 72 199 72 90 q 82 294 72 242 l 168 734 l 358 734 l 276 312 q 268 240 268 271 q 294 155 268 184 q 378 127 320 127 q 489 174 446 127 q 561 328 532 221 q 589 522 589 434 q 558 734 589 644 l 752 734 q 779 530 779 646 q 727 252 779 385 q 576 53 674 119 q 339 -14 479 -14 m 427 814 l 431 837 l 524 1107 l 684 1107 l 680 1082 l 505 814 l 427 814 m 250 835 l 279 985 l 414 985 l 385 835 l 250 835 m 610 835 l 640 985 l 775 985 l 746 835 l 610 835 z "},"β":{"ha":833,"x_min":-31,"x_max":811,"o":"m 420 -14 q 227 50 303 -14 l 220 50 q 199 -87 213 -22 l 160 -288 l -31 -288 l 161 696 q 291 932 192 857 q 557 1006 389 1006 q 748 959 686 1006 q 811 824 811 911 q 789 709 811 768 q 723 608 766 651 q 616 539 680 564 q 739 469 695 522 q 783 337 783 416 q 739 164 783 250 q 613 32 694 78 q 420 -14 532 -14 m 596 324 q 547 425 596 391 q 408 458 498 458 l 435 593 q 541 630 499 604 q 604 698 583 655 q 625 785 625 741 q 530 869 625 869 q 410 822 452 869 q 347 672 367 774 l 250 173 q 320 133 278 149 q 407 117 362 117 q 507 143 465 117 q 573 222 549 170 q 596 324 596 274 z "},"γ":{"ha":833,"x_min":96,"x_max":878,"o":"m 373 178 q 371 127 373 143 q 401 205 380 155 q 448 303 422 256 l 677 734 l 878 734 l 464 37 q 378 -128 410 -56 q 318 -288 346 -201 l 121 -288 q 247 7 170 -143 l 96 734 l 298 734 l 368 300 q 371 250 368 296 q 373 178 373 203 z "},"ζ":{"ha":833,"x_min":86,"x_max":867,"o":"m 295 252 q 308 206 295 224 q 351 174 321 188 q 476 138 380 161 q 638 73 590 113 q 686 -29 686 33 q 653 -152 686 -82 q 579 -272 621 -221 l 465 -222 q 523 -117 515 -159 l 524 -103 q 490 -56 524 -74 q 345 -13 455 -39 q 190 39 242 12 q 112 104 138 66 q 86 197 86 142 q 147 392 86 287 q 333 616 208 497 q 661 878 458 734 l 661 882 l 513 878 l 279 878 l 304 1006 l 867 1006 l 843 878 q 544 633 668 751 q 357 418 420 515 q 295 252 295 321 z "},"η":{"ha":833,"x_min":28,"x_max":785,"o":"m 435 -288 l 574 427 q 584 514 584 479 q 562 585 584 564 q 496 605 541 605 q 370 550 422 605 q 296 394 317 494 l 220 0 l 28 0 l 140 577 q 150 677 150 623 q 146 734 150 705 l 329 734 q 336 668 336 704 q 330 608 336 635 l 332 608 q 454 716 391 684 q 600 747 517 747 q 740 708 694 747 q 785 582 785 669 q 775 489 785 541 l 625 -288 l 435 -288 z "},"θ":{"ha":833,"x_min":92,"x_max":792,"o":"m 339 -14 q 156 66 220 -14 q 92 300 92 146 q 113 497 92 388 q 273 878 163 751 q 541 1006 384 1006 q 792 707 792 1006 q 758 445 792 591 q 664 194 724 298 q 522 39 604 91 q 339 -14 441 -14 m 363 110 q 485 195 431 110 q 572 437 539 281 l 289 437 q 273 281 273 347 q 297 155 273 199 q 363 110 320 110 m 519 882 q 400 801 452 882 q 313 566 347 721 l 597 566 q 612 718 612 654 q 589 840 612 798 q 519 882 565 882 z "},"ι":{"ha":833,"x_min":127,"x_max":734,"o":"m 470 -14 q 242 171 242 -14 q 251 250 242 205 l 319 605 l 127 605 l 152 734 l 534 734 l 439 243 q 435 200 435 221 q 505 127 435 127 q 643 200 580 127 l 734 114 q 470 -14 625 -14 z "},"κ":{"ha":833,"x_min":46,"x_max":846,"o":"m 515 0 l 380 319 l 288 262 l 237 0 l 46 0 l 189 734 l 379 734 l 317 416 l 641 734 l 846 734 l 530 434 l 723 0 l 515 0 z "},"λ":{"ha":833,"x_min":-26,"x_max":720,"o":"m 720 0 l 520 0 l 486 313 q 475 493 475 420 q 475 515 475 510 q 417 400 458 475 q 355 291 377 326 l 176 0 l -26 0 l 429 682 l 423 698 q 395 813 406 783 q 367 855 383 843 q 326 867 351 867 q 260 854 292 867 l 254 986 q 384 1006 313 1006 q 494 983 453 1006 q 559 907 535 959 q 599 754 584 854 l 720 0 z "},"μ":{"ha":833,"x_min":-37,"x_max":817,"o":"m 498 0 q 513 125 504 76 l 511 125 q 317 -14 432 -14 q 256 3 282 -14 q 220 47 230 19 l 217 47 l 204 -31 l 154 -288 l -37 -288 l 162 734 l 353 734 l 273 323 q 264 243 264 275 q 361 131 264 131 q 480 189 428 131 q 550 342 532 247 l 626 734 l 817 734 l 706 164 q 680 0 682 24 l 498 0 z "},"ν":{"ha":833,"x_min":98,"x_max":795,"o":"m 410 0 l 229 0 l 98 734 l 300 734 l 374 162 q 504 333 455 252 q 578 500 553 414 q 604 652 604 586 q 593 734 604 696 l 783 734 q 795 656 795 696 q 691 347 795 522 q 410 0 586 172 z "},"ξ":{"ha":833,"x_min":77,"x_max":817,"o":"m 286 256 q 323 184 286 210 q 458 142 359 159 q 632 81 578 123 q 686 -29 686 39 q 653 -152 686 -82 q 579 -272 621 -221 l 465 -222 q 523 -117 515 -159 l 524 -104 q 510 -68 524 -83 q 463 -42 495 -54 q 322 -7 431 -31 q 130 66 184 20 q 77 189 77 113 q 125 349 77 273 q 266 475 173 425 q 481 542 359 525 l 483 547 q 316 592 380 553 q 252 692 252 631 q 320 805 252 756 q 509 877 388 854 l 511 882 l 317 878 l 252 878 l 277 1006 l 817 1006 l 793 881 q 545 835 627 869 q 450 737 463 800 l 448 719 q 507 648 448 672 q 712 615 566 623 l 687 486 q 484 448 554 467 q 370 399 414 428 q 306 333 326 370 q 286 256 286 297 z "},"ο":{"ha":833,"x_min":52,"x_max":784,"o":"m 340 -14 q 125 57 199 -14 q 52 260 52 127 q 105 504 52 385 q 258 685 159 623 q 492 747 356 747 q 784 488 784 747 q 771 368 784 436 q 624 86 736 185 q 340 -14 512 -14 m 585 485 q 557 585 585 553 q 469 616 530 616 q 351 572 397 616 q 277 431 304 528 q 250 256 250 334 q 363 117 250 117 q 484 162 437 117 q 558 308 530 208 q 585 485 585 408 z "},"ρ":{"ha":833,"x_min":-41,"x_max":774,"o":"m 404 -14 q 231 79 290 -14 l 224 79 l 208 -40 l 159 -288 l -41 -288 l 92 394 q 234 654 124 559 q 502 748 345 748 q 701 672 628 748 q 774 460 774 596 q 747 289 774 376 q 668 132 720 201 q 548 25 616 63 q 404 -14 479 -14 m 578 478 q 478 616 578 616 q 291 388 334 616 l 255 203 q 318 141 281 163 q 395 118 355 118 q 486 169 443 118 q 553 309 528 220 q 578 478 578 397 z "}}}
